G04 #@! TF.FileFunction,Copper,L2,Bot,Signal*
%FSLAX46Y46*%
G04 Gerber Fmt 4.6, Leading zero omitted, Abs format (unit mm)*
G04 Created by KiCad (PCBNEW 4.0.6) date 03/27/17 14:11:27*
%MOMM*%
%LPD*%
G01*
G04 APERTURE LIST*
%ADD10C,0.100000*%
%ADD11R,2.000000X2.000000*%
%ADD12C,0.600000*%
%ADD13C,0.300000*%
%ADD14C,0.200000*%
G04 APERTURE END LIST*
D10*
D11*
X125230000Y-91700000D03*
X125230000Y-94240000D03*
X125230000Y-96780000D03*
X125230000Y-99320000D03*
X125230000Y-101860000D03*
X125230000Y-104400000D03*
X145560000Y-104400000D03*
X145560000Y-101860000D03*
X145560000Y-99320000D03*
X145560000Y-96780000D03*
X145560000Y-94240000D03*
X145560000Y-91700000D03*
X148100000Y-104400000D03*
X148100000Y-101860000D03*
X148100000Y-99320000D03*
X148100000Y-96780000D03*
X148100000Y-94240000D03*
X148100000Y-91700000D03*
X122690000Y-91700000D03*
X122690000Y-94240000D03*
X122690000Y-96780000D03*
X122690000Y-99320000D03*
X122690000Y-101860000D03*
X122690000Y-104400000D03*
D12*
X133500000Y-93600000D03*
X133530000Y-95620000D03*
X136600000Y-85710000D03*
X131810000Y-85710000D03*
X137920000Y-94020000D03*
X137920000Y-95980000D03*
X130800000Y-93190000D03*
X137900000Y-93100000D03*
X140200000Y-85500000D03*
X144570000Y-89470000D03*
X140710000Y-99600000D03*
X128060000Y-101760000D03*
X132270000Y-98130000D03*
X130000000Y-85500000D03*
X127500000Y-96100000D03*
X132500000Y-94300000D03*
X142500000Y-98200000D03*
X142900000Y-95300000D03*
X135000000Y-100800000D03*
X134100000Y-94300000D03*
X138000000Y-99600000D03*
X135490000Y-88040000D03*
X136975000Y-100100000D03*
X136375000Y-100575000D03*
X135915000Y-90605000D03*
X135104000Y-90580000D03*
X142340000Y-103390000D03*
X135740000Y-100000000D03*
X134650000Y-88090000D03*
X134250000Y-90550000D03*
X133540000Y-88140000D03*
X135220000Y-95830000D03*
X136025000Y-95800000D03*
X141320000Y-101110000D03*
X138790000Y-93210000D03*
X139000000Y-88025000D03*
X130670000Y-101520000D03*
D13*
X133500000Y-93600000D02*
X133470000Y-93630000D01*
X133470000Y-95560000D02*
X133530000Y-95620000D01*
X133470000Y-93630000D02*
X133470000Y-95560000D01*
D14*
X133530000Y-95620000D02*
X133500000Y-95620000D01*
D13*
X136600000Y-85710000D02*
X131810000Y-85710000D01*
X137920000Y-95980000D02*
X137920000Y-94020000D01*
X126770000Y-91700000D02*
X125230000Y-91700000D01*
X128260000Y-93190000D02*
X126770000Y-91700000D01*
X130800000Y-93190000D02*
X128260000Y-93190000D01*
D14*
X140200000Y-85500000D02*
X140600000Y-85500000D01*
X140600000Y-85500000D02*
X144570000Y-89470000D01*
X136975000Y-100100000D02*
X137350000Y-99725000D01*
X136470000Y-89020000D02*
X135490000Y-88040000D01*
X136470000Y-94140000D02*
X136470000Y-89020000D01*
X137350000Y-95020000D02*
X136470000Y-94140000D01*
X137350000Y-99725000D02*
X137350000Y-95020000D01*
X145560000Y-101860000D02*
X138685000Y-101860000D01*
X136975000Y-100150000D02*
X136975000Y-100100000D01*
X138685000Y-101860000D02*
X136975000Y-100150000D01*
X135915000Y-90605000D02*
X135915000Y-94185000D01*
X136375000Y-99835000D02*
X136375000Y-100575000D01*
X136980000Y-99230000D02*
X136375000Y-99835000D01*
X136980000Y-95250000D02*
X136980000Y-99230000D01*
X135915000Y-94185000D02*
X136980000Y-95250000D01*
X145560000Y-104400000D02*
X144300000Y-104400000D01*
X144300000Y-104400000D02*
X142220000Y-102320000D01*
X142220000Y-102320000D02*
X138120000Y-102320000D01*
X138120000Y-102320000D02*
X136375000Y-100575000D01*
X135740000Y-99885000D02*
X136600000Y-99025000D01*
X136600000Y-95500000D02*
X136600000Y-99025000D01*
X135104000Y-94004000D02*
X136600000Y-95500000D01*
X135104000Y-94004000D02*
X135104000Y-90580000D01*
X135740000Y-99885000D02*
X135740000Y-100000000D01*
X142340000Y-103390000D02*
X141750002Y-102800002D01*
X141750002Y-102800002D02*
X137810002Y-102800002D01*
X137810002Y-102800002D02*
X135800000Y-100790000D01*
X135740000Y-100730000D02*
X135800000Y-100790000D01*
X135740000Y-100000000D02*
X135740000Y-100730000D01*
X134650000Y-88090000D02*
X134650000Y-87749956D01*
X135730000Y-87500000D02*
X141730000Y-93500000D01*
X141730000Y-93500000D02*
X141730000Y-95660000D01*
X141730000Y-95660000D02*
X142850000Y-96780000D01*
X142850000Y-96780000D02*
X145560000Y-96780000D01*
X135650004Y-87420004D02*
X135730000Y-87500000D01*
X134979952Y-87420004D02*
X135650004Y-87420004D01*
X134650000Y-87749956D02*
X134979952Y-87420004D01*
X136080000Y-87120000D02*
X136079998Y-87120000D01*
X145560000Y-94240000D02*
X143200000Y-94240000D01*
X136080000Y-87120000D02*
X143200000Y-94240000D01*
X134092489Y-90392489D02*
X134250000Y-90550000D01*
X134092489Y-87812489D02*
X134092489Y-90392489D01*
X134834976Y-87070002D02*
X134092489Y-87812489D01*
X135600000Y-87070002D02*
X134834976Y-87070002D01*
X136030000Y-87070002D02*
X135600000Y-87070002D01*
X136079998Y-87120000D02*
X136030000Y-87070002D01*
X141400000Y-91700000D02*
X136420000Y-86720000D01*
X136420000Y-86720000D02*
X134690000Y-86720000D01*
X134690000Y-86720000D02*
X133540000Y-87870000D01*
X133540000Y-87870000D02*
X133540000Y-88140000D01*
X141400000Y-91700000D02*
X145560000Y-91700000D01*
X135220000Y-98905000D02*
X135102500Y-99022500D01*
X135220000Y-95830000D02*
X135220000Y-98905000D01*
X135102500Y-99022500D02*
X131550000Y-102575000D01*
X126285000Y-101860000D02*
X125230000Y-101860000D01*
X127000000Y-102575000D02*
X126285000Y-101860000D01*
X131550000Y-102575000D02*
X127000000Y-102575000D01*
X125230000Y-104400000D02*
X130475000Y-104400000D01*
X136025000Y-98850000D02*
X136025000Y-95800000D01*
X130475000Y-104400000D02*
X136025000Y-98850000D01*
X141320000Y-95740000D02*
X141320000Y-101110000D01*
X138790000Y-93210000D02*
X141320000Y-95740000D01*
X131400000Y-89300000D02*
X134340000Y-86360000D01*
X134340000Y-86360000D02*
X137335000Y-86360000D01*
X137335000Y-86360000D02*
X139000000Y-88025000D01*
X130670000Y-101520000D02*
X130675000Y-94395000D01*
X130675000Y-94395000D02*
X131400000Y-93670000D01*
X131400000Y-93670000D02*
X131400000Y-89300000D01*
G36*
X147775000Y-90445103D02*
X147100000Y-90445103D01*
X147007356Y-90462535D01*
X146922268Y-90517288D01*
X146865185Y-90600831D01*
X146845103Y-90700000D01*
X146845103Y-92700000D01*
X146862535Y-92792644D01*
X146917288Y-92877732D01*
X147000831Y-92934815D01*
X147100000Y-92954897D01*
X147775000Y-92954897D01*
X147775000Y-92985103D01*
X147100000Y-92985103D01*
X147007356Y-93002535D01*
X146922268Y-93057288D01*
X146865185Y-93140831D01*
X146845103Y-93240000D01*
X146845103Y-95240000D01*
X146862535Y-95332644D01*
X146917288Y-95417732D01*
X147000831Y-95474815D01*
X147100000Y-95494897D01*
X147775000Y-95494897D01*
X147775000Y-95525103D01*
X147100000Y-95525103D01*
X147007356Y-95542535D01*
X146922268Y-95597288D01*
X146865185Y-95680831D01*
X146845103Y-95780000D01*
X146845103Y-97780000D01*
X146862535Y-97872644D01*
X146917288Y-97957732D01*
X147000831Y-98014815D01*
X147100000Y-98034897D01*
X147775000Y-98034897D01*
X147775000Y-98065103D01*
X147100000Y-98065103D01*
X147007356Y-98082535D01*
X146922268Y-98137288D01*
X146865185Y-98220831D01*
X146845103Y-98320000D01*
X146845103Y-100320000D01*
X146862535Y-100412644D01*
X146917288Y-100497732D01*
X147000831Y-100554815D01*
X147100000Y-100574897D01*
X147775000Y-100574897D01*
X147775000Y-100605103D01*
X147100000Y-100605103D01*
X147007356Y-100622535D01*
X146922268Y-100677288D01*
X146865185Y-100760831D01*
X146845103Y-100860000D01*
X146845103Y-102860000D01*
X146862535Y-102952644D01*
X146917288Y-103037732D01*
X147000831Y-103094815D01*
X147100000Y-103114897D01*
X147775000Y-103114897D01*
X147775000Y-103145103D01*
X147100000Y-103145103D01*
X147007356Y-103162535D01*
X146922268Y-103217288D01*
X146865185Y-103300831D01*
X146845103Y-103400000D01*
X146845103Y-105400000D01*
X146862535Y-105492644D01*
X146917288Y-105577732D01*
X147000831Y-105634815D01*
X147100000Y-105654897D01*
X147775000Y-105654897D01*
X147775000Y-105775000D01*
X123025000Y-105775000D01*
X123025000Y-105654897D01*
X123690000Y-105654897D01*
X123782644Y-105637465D01*
X123867732Y-105582712D01*
X123924815Y-105499169D01*
X123944897Y-105400000D01*
X123944897Y-103400000D01*
X123927465Y-103307356D01*
X123872712Y-103222268D01*
X123789169Y-103165185D01*
X123690000Y-103145103D01*
X123025000Y-103145103D01*
X123025000Y-103114897D01*
X123690000Y-103114897D01*
X123782644Y-103097465D01*
X123867732Y-103042712D01*
X123924815Y-102959169D01*
X123944897Y-102860000D01*
X123944897Y-100860000D01*
X123927465Y-100767356D01*
X123872712Y-100682268D01*
X123789169Y-100625185D01*
X123690000Y-100605103D01*
X123025000Y-100605103D01*
X123025000Y-100574897D01*
X123690000Y-100574897D01*
X123782644Y-100557465D01*
X123867732Y-100502712D01*
X123924815Y-100419169D01*
X123944897Y-100320000D01*
X123944897Y-98320000D01*
X123975103Y-98320000D01*
X123975103Y-100320000D01*
X123992535Y-100412644D01*
X124047288Y-100497732D01*
X124130831Y-100554815D01*
X124230000Y-100574897D01*
X126230000Y-100574897D01*
X126322644Y-100557465D01*
X126407732Y-100502712D01*
X126464815Y-100419169D01*
X126484897Y-100320000D01*
X126484897Y-98320000D01*
X126467465Y-98227356D01*
X126412712Y-98142268D01*
X126329169Y-98085185D01*
X126230000Y-98065103D01*
X124230000Y-98065103D01*
X124137356Y-98082535D01*
X124052268Y-98137288D01*
X123995185Y-98220831D01*
X123975103Y-98320000D01*
X123944897Y-98320000D01*
X123927465Y-98227356D01*
X123872712Y-98142268D01*
X123789169Y-98085185D01*
X123690000Y-98065103D01*
X123025000Y-98065103D01*
X123025000Y-98034897D01*
X123690000Y-98034897D01*
X123782644Y-98017465D01*
X123867732Y-97962712D01*
X123924815Y-97879169D01*
X123944897Y-97780000D01*
X123944897Y-95780000D01*
X123975103Y-95780000D01*
X123975103Y-97780000D01*
X123992535Y-97872644D01*
X124047288Y-97957732D01*
X124130831Y-98014815D01*
X124230000Y-98034897D01*
X126230000Y-98034897D01*
X126322644Y-98017465D01*
X126407732Y-97962712D01*
X126464815Y-97879169D01*
X126484897Y-97780000D01*
X126484897Y-95780000D01*
X126467465Y-95687356D01*
X126412712Y-95602268D01*
X126329169Y-95545185D01*
X126230000Y-95525103D01*
X124230000Y-95525103D01*
X124137356Y-95542535D01*
X124052268Y-95597288D01*
X123995185Y-95680831D01*
X123975103Y-95780000D01*
X123944897Y-95780000D01*
X123927465Y-95687356D01*
X123872712Y-95602268D01*
X123789169Y-95545185D01*
X123690000Y-95525103D01*
X123025000Y-95525103D01*
X123025000Y-95490000D01*
X123739728Y-95490000D01*
X123831614Y-95451940D01*
X123901940Y-95381614D01*
X123940000Y-95289728D01*
X123940000Y-94352500D01*
X123980000Y-94352500D01*
X123980000Y-95289728D01*
X124018060Y-95381614D01*
X124088386Y-95451940D01*
X124180272Y-95490000D01*
X125117500Y-95490000D01*
X125180000Y-95427500D01*
X125180000Y-94290000D01*
X125280000Y-94290000D01*
X125280000Y-95427500D01*
X125342500Y-95490000D01*
X126279728Y-95490000D01*
X126371614Y-95451940D01*
X126441940Y-95381614D01*
X126480000Y-95289728D01*
X126480000Y-94352500D01*
X126417500Y-94290000D01*
X125280000Y-94290000D01*
X125180000Y-94290000D01*
X124042500Y-94290000D01*
X123980000Y-94352500D01*
X123940000Y-94352500D01*
X123877500Y-94290000D01*
X123025000Y-94290000D01*
X123025000Y-94190000D01*
X123877500Y-94190000D01*
X123940000Y-94127500D01*
X123940000Y-93190272D01*
X123980000Y-93190272D01*
X123980000Y-94127500D01*
X124042500Y-94190000D01*
X125180000Y-94190000D01*
X125180000Y-93052500D01*
X125280000Y-93052500D01*
X125280000Y-94190000D01*
X126417500Y-94190000D01*
X126480000Y-94127500D01*
X126480000Y-93190272D01*
X126441940Y-93098386D01*
X126371614Y-93028060D01*
X126279728Y-92990000D01*
X125342500Y-92990000D01*
X125280000Y-93052500D01*
X125180000Y-93052500D01*
X125117500Y-92990000D01*
X124180272Y-92990000D01*
X124088386Y-93028060D01*
X124018060Y-93098386D01*
X123980000Y-93190272D01*
X123940000Y-93190272D01*
X123901940Y-93098386D01*
X123831614Y-93028060D01*
X123739728Y-92990000D01*
X123025000Y-92990000D01*
X123025000Y-92954897D01*
X123690000Y-92954897D01*
X123782644Y-92937465D01*
X123867732Y-92882712D01*
X123924815Y-92799169D01*
X123944897Y-92700000D01*
X123944897Y-90700000D01*
X123975103Y-90700000D01*
X123975103Y-92700000D01*
X123992535Y-92792644D01*
X124047288Y-92877732D01*
X124130831Y-92934815D01*
X124230000Y-92954897D01*
X126230000Y-92954897D01*
X126322644Y-92937465D01*
X126407732Y-92882712D01*
X126464815Y-92799169D01*
X126484897Y-92700000D01*
X126484897Y-92100000D01*
X126604314Y-92100000D01*
X127977157Y-93472843D01*
X128106926Y-93559552D01*
X128260000Y-93590000D01*
X130422163Y-93590000D01*
X130488043Y-93655995D01*
X130690118Y-93739904D01*
X130834996Y-93740030D01*
X130427513Y-94147513D01*
X130389692Y-94204115D01*
X130351736Y-94260834D01*
X130351711Y-94260957D01*
X130351642Y-94261061D01*
X130338514Y-94327061D01*
X130325000Y-94394754D01*
X130320300Y-101091951D01*
X130204005Y-101208043D01*
X130120096Y-101410118D01*
X130119905Y-101628922D01*
X130203461Y-101831143D01*
X130358043Y-101985995D01*
X130560118Y-102069904D01*
X130778922Y-102070095D01*
X130981143Y-101986539D01*
X131135995Y-101831957D01*
X131219904Y-101629882D01*
X131220095Y-101411078D01*
X131136539Y-101208857D01*
X131020300Y-101092415D01*
X131024898Y-94540076D01*
X131647487Y-93917487D01*
X131723358Y-93803939D01*
X131742257Y-93708922D01*
X132949905Y-93708922D01*
X133033461Y-93911143D01*
X133070000Y-93947746D01*
X133070000Y-95302058D01*
X133064005Y-95308043D01*
X132980096Y-95510118D01*
X132979905Y-95728922D01*
X133063461Y-95931143D01*
X133218043Y-96085995D01*
X133420118Y-96169904D01*
X133638922Y-96170095D01*
X133841143Y-96086539D01*
X133995995Y-95931957D01*
X134079904Y-95729882D01*
X134080095Y-95511078D01*
X133996539Y-95308857D01*
X133870000Y-95182097D01*
X133870000Y-94007785D01*
X133965995Y-93911957D01*
X134049904Y-93709882D01*
X134050095Y-93491078D01*
X133966539Y-93288857D01*
X133811957Y-93134005D01*
X133609882Y-93050096D01*
X133391078Y-93049905D01*
X133188857Y-93133461D01*
X133034005Y-93288043D01*
X132950096Y-93490118D01*
X132949905Y-93708922D01*
X131742257Y-93708922D01*
X131750000Y-93670000D01*
X131750000Y-89444974D01*
X132989943Y-88205031D01*
X132989905Y-88248922D01*
X133073461Y-88451143D01*
X133228043Y-88605995D01*
X133430118Y-88689904D01*
X133648922Y-88690095D01*
X133742489Y-88651434D01*
X133742489Y-90338024D01*
X133700096Y-90440118D01*
X133699905Y-90658922D01*
X133783461Y-90861143D01*
X133938043Y-91015995D01*
X134140118Y-91099904D01*
X134358922Y-91100095D01*
X134561143Y-91016539D01*
X134662066Y-90915791D01*
X134754000Y-91007886D01*
X134754000Y-94004000D01*
X134774301Y-94106061D01*
X134780642Y-94137939D01*
X134856513Y-94251487D01*
X135872809Y-95267783D01*
X135713857Y-95333461D01*
X135607476Y-95439656D01*
X135531957Y-95364005D01*
X135329882Y-95280096D01*
X135111078Y-95279905D01*
X134908857Y-95363461D01*
X134754005Y-95518043D01*
X134670096Y-95720118D01*
X134669905Y-95938922D01*
X134753461Y-96141143D01*
X134870000Y-96257886D01*
X134870000Y-98760026D01*
X134855016Y-98775010D01*
X134855013Y-98775012D01*
X131405026Y-102225000D01*
X127144975Y-102225000D01*
X126532487Y-101612513D01*
X126484897Y-101580714D01*
X126484897Y-100860000D01*
X126467465Y-100767356D01*
X126412712Y-100682268D01*
X126329169Y-100625185D01*
X126230000Y-100605103D01*
X124230000Y-100605103D01*
X124137356Y-100622535D01*
X124052268Y-100677288D01*
X123995185Y-100760831D01*
X123975103Y-100860000D01*
X123975103Y-102860000D01*
X123992535Y-102952644D01*
X124047288Y-103037732D01*
X124130831Y-103094815D01*
X124230000Y-103114897D01*
X126230000Y-103114897D01*
X126322644Y-103097465D01*
X126407732Y-103042712D01*
X126464815Y-102959169D01*
X126484897Y-102860000D01*
X126484897Y-102554872D01*
X126752513Y-102822488D01*
X126866061Y-102898358D01*
X127000000Y-102925000D01*
X131455026Y-102925000D01*
X130330026Y-104050000D01*
X126484897Y-104050000D01*
X126484897Y-103400000D01*
X126467465Y-103307356D01*
X126412712Y-103222268D01*
X126329169Y-103165185D01*
X126230000Y-103145103D01*
X124230000Y-103145103D01*
X124137356Y-103162535D01*
X124052268Y-103217288D01*
X123995185Y-103300831D01*
X123975103Y-103400000D01*
X123975103Y-105400000D01*
X123992535Y-105492644D01*
X124047288Y-105577732D01*
X124130831Y-105634815D01*
X124230000Y-105654897D01*
X126230000Y-105654897D01*
X126322644Y-105637465D01*
X126407732Y-105582712D01*
X126464815Y-105499169D01*
X126484897Y-105400000D01*
X126484897Y-104750000D01*
X130475000Y-104750000D01*
X130608939Y-104723358D01*
X130722487Y-104647487D01*
X135210707Y-100159267D01*
X135273461Y-100311143D01*
X135390000Y-100427886D01*
X135390000Y-100730000D01*
X135416642Y-100863939D01*
X135492513Y-100977487D01*
X135552513Y-101037488D01*
X135552516Y-101037490D01*
X137562515Y-103047489D01*
X137676062Y-103123360D01*
X137698284Y-103127780D01*
X137810002Y-103150002D01*
X141605028Y-103150002D01*
X141790048Y-103335022D01*
X141789905Y-103498922D01*
X141873461Y-103701143D01*
X142028043Y-103855995D01*
X142230118Y-103939904D01*
X142448922Y-103940095D01*
X142651143Y-103856539D01*
X142805995Y-103701957D01*
X142889904Y-103499882D01*
X142889917Y-103484892D01*
X144052512Y-104647487D01*
X144166060Y-104723358D01*
X144188282Y-104727778D01*
X144300000Y-104750000D01*
X144305103Y-104750000D01*
X144305103Y-105400000D01*
X144322535Y-105492644D01*
X144377288Y-105577732D01*
X144460831Y-105634815D01*
X144560000Y-105654897D01*
X146560000Y-105654897D01*
X146652644Y-105637465D01*
X146737732Y-105582712D01*
X146794815Y-105499169D01*
X146814897Y-105400000D01*
X146814897Y-103400000D01*
X146797465Y-103307356D01*
X146742712Y-103222268D01*
X146659169Y-103165185D01*
X146560000Y-103145103D01*
X144560000Y-103145103D01*
X144467356Y-103162535D01*
X144382268Y-103217288D01*
X144325185Y-103300831D01*
X144305103Y-103400000D01*
X144305103Y-103910128D01*
X142604974Y-102210000D01*
X144305103Y-102210000D01*
X144305103Y-102860000D01*
X144322535Y-102952644D01*
X144377288Y-103037732D01*
X144460831Y-103094815D01*
X144560000Y-103114897D01*
X146560000Y-103114897D01*
X146652644Y-103097465D01*
X146737732Y-103042712D01*
X146794815Y-102959169D01*
X146814897Y-102860000D01*
X146814897Y-100860000D01*
X146797465Y-100767356D01*
X146742712Y-100682268D01*
X146659169Y-100625185D01*
X146560000Y-100605103D01*
X144560000Y-100605103D01*
X144467356Y-100622535D01*
X144382268Y-100677288D01*
X144325185Y-100760831D01*
X144305103Y-100860000D01*
X144305103Y-101510000D01*
X141697798Y-101510000D01*
X141785995Y-101421957D01*
X141869904Y-101219882D01*
X141870095Y-101001078D01*
X141786539Y-100798857D01*
X141670000Y-100682114D01*
X141670000Y-98320000D01*
X144305103Y-98320000D01*
X144305103Y-100320000D01*
X144322535Y-100412644D01*
X144377288Y-100497732D01*
X144460831Y-100554815D01*
X144560000Y-100574897D01*
X146560000Y-100574897D01*
X146652644Y-100557465D01*
X146737732Y-100502712D01*
X146794815Y-100419169D01*
X146814897Y-100320000D01*
X146814897Y-98320000D01*
X146797465Y-98227356D01*
X146742712Y-98142268D01*
X146659169Y-98085185D01*
X146560000Y-98065103D01*
X144560000Y-98065103D01*
X144467356Y-98082535D01*
X144382268Y-98137288D01*
X144325185Y-98220831D01*
X144305103Y-98320000D01*
X141670000Y-98320000D01*
X141670000Y-96094974D01*
X142602512Y-97027487D01*
X142716060Y-97103358D01*
X142738282Y-97107778D01*
X142850000Y-97130000D01*
X144305103Y-97130000D01*
X144305103Y-97780000D01*
X144322535Y-97872644D01*
X144377288Y-97957732D01*
X144460831Y-98014815D01*
X144560000Y-98034897D01*
X146560000Y-98034897D01*
X146652644Y-98017465D01*
X146737732Y-97962712D01*
X146794815Y-97879169D01*
X146814897Y-97780000D01*
X146814897Y-95780000D01*
X146797465Y-95687356D01*
X146742712Y-95602268D01*
X146659169Y-95545185D01*
X146560000Y-95525103D01*
X144560000Y-95525103D01*
X144467356Y-95542535D01*
X144382268Y-95597288D01*
X144325185Y-95680831D01*
X144305103Y-95780000D01*
X144305103Y-96430000D01*
X142994975Y-96430000D01*
X142080000Y-95515026D01*
X142080000Y-93614975D01*
X142952513Y-94487488D01*
X143066061Y-94563358D01*
X143200000Y-94590000D01*
X144305103Y-94590000D01*
X144305103Y-95240000D01*
X144322535Y-95332644D01*
X144377288Y-95417732D01*
X144460831Y-95474815D01*
X144560000Y-95494897D01*
X146560000Y-95494897D01*
X146652644Y-95477465D01*
X146737732Y-95422712D01*
X146794815Y-95339169D01*
X146814897Y-95240000D01*
X146814897Y-93240000D01*
X146797465Y-93147356D01*
X146742712Y-93062268D01*
X146659169Y-93005185D01*
X146560000Y-92985103D01*
X144560000Y-92985103D01*
X144467356Y-93002535D01*
X144382268Y-93057288D01*
X144325185Y-93140831D01*
X144305103Y-93240000D01*
X144305103Y-93890000D01*
X143344975Y-93890000D01*
X141504975Y-92050000D01*
X144305103Y-92050000D01*
X144305103Y-92700000D01*
X144322535Y-92792644D01*
X144377288Y-92877732D01*
X144460831Y-92934815D01*
X144560000Y-92954897D01*
X146560000Y-92954897D01*
X146652644Y-92937465D01*
X146737732Y-92882712D01*
X146794815Y-92799169D01*
X146814897Y-92700000D01*
X146814897Y-90700000D01*
X146797465Y-90607356D01*
X146742712Y-90522268D01*
X146659169Y-90465185D01*
X146560000Y-90445103D01*
X144560000Y-90445103D01*
X144467356Y-90462535D01*
X144382268Y-90517288D01*
X144325185Y-90600831D01*
X144305103Y-90700000D01*
X144305103Y-91350000D01*
X141544975Y-91350000D01*
X136904974Y-86710000D01*
X137190026Y-86710000D01*
X138450048Y-87970023D01*
X138449905Y-88133922D01*
X138533461Y-88336143D01*
X138688043Y-88490995D01*
X138890118Y-88574904D01*
X139108922Y-88575095D01*
X139311143Y-88491539D01*
X139465995Y-88336957D01*
X139549904Y-88134882D01*
X139550095Y-87916078D01*
X139466539Y-87713857D01*
X139311957Y-87559005D01*
X139109882Y-87475096D01*
X138944927Y-87474952D01*
X137582487Y-86112513D01*
X137468939Y-86036642D01*
X137335000Y-86010000D01*
X137070960Y-86010000D01*
X137149904Y-85819882D01*
X137150095Y-85601078D01*
X137066539Y-85398857D01*
X136911957Y-85244005D01*
X136709882Y-85160096D01*
X136491078Y-85159905D01*
X136288857Y-85243461D01*
X136222202Y-85310000D01*
X132187837Y-85310000D01*
X132121957Y-85244005D01*
X131919882Y-85160096D01*
X131701078Y-85159905D01*
X131498857Y-85243461D01*
X131344005Y-85398043D01*
X131260096Y-85600118D01*
X131259905Y-85818922D01*
X131343461Y-86021143D01*
X131498043Y-86175995D01*
X131700118Y-86259904D01*
X131918922Y-86260095D01*
X132121143Y-86176539D01*
X132187798Y-86110000D01*
X134096274Y-86110000D01*
X134092513Y-86112513D01*
X131152513Y-89052513D01*
X131076642Y-89166061D01*
X131050000Y-89300000D01*
X131050000Y-92698278D01*
X130909882Y-92640096D01*
X130691078Y-92639905D01*
X130488857Y-92723461D01*
X130422202Y-92790000D01*
X128425686Y-92790000D01*
X127052843Y-91417157D01*
X126923074Y-91330448D01*
X126770000Y-91300000D01*
X126484897Y-91300000D01*
X126484897Y-90700000D01*
X126467465Y-90607356D01*
X126412712Y-90522268D01*
X126329169Y-90465185D01*
X126230000Y-90445103D01*
X124230000Y-90445103D01*
X124137356Y-90462535D01*
X124052268Y-90517288D01*
X123995185Y-90600831D01*
X123975103Y-90700000D01*
X123944897Y-90700000D01*
X123927465Y-90607356D01*
X123872712Y-90522268D01*
X123789169Y-90465185D01*
X123690000Y-90445103D01*
X123025000Y-90445103D01*
X123025000Y-84425000D01*
X147775000Y-84425000D01*
X147775000Y-90445103D01*
X147775000Y-90445103D01*
G37*
X147775000Y-90445103D02*
X147100000Y-90445103D01*
X147007356Y-90462535D01*
X146922268Y-90517288D01*
X146865185Y-90600831D01*
X146845103Y-90700000D01*
X146845103Y-92700000D01*
X146862535Y-92792644D01*
X146917288Y-92877732D01*
X147000831Y-92934815D01*
X147100000Y-92954897D01*
X147775000Y-92954897D01*
X147775000Y-92985103D01*
X147100000Y-92985103D01*
X147007356Y-93002535D01*
X146922268Y-93057288D01*
X146865185Y-93140831D01*
X146845103Y-93240000D01*
X146845103Y-95240000D01*
X146862535Y-95332644D01*
X146917288Y-95417732D01*
X147000831Y-95474815D01*
X147100000Y-95494897D01*
X147775000Y-95494897D01*
X147775000Y-95525103D01*
X147100000Y-95525103D01*
X147007356Y-95542535D01*
X146922268Y-95597288D01*
X146865185Y-95680831D01*
X146845103Y-95780000D01*
X146845103Y-97780000D01*
X146862535Y-97872644D01*
X146917288Y-97957732D01*
X147000831Y-98014815D01*
X147100000Y-98034897D01*
X147775000Y-98034897D01*
X147775000Y-98065103D01*
X147100000Y-98065103D01*
X147007356Y-98082535D01*
X146922268Y-98137288D01*
X146865185Y-98220831D01*
X146845103Y-98320000D01*
X146845103Y-100320000D01*
X146862535Y-100412644D01*
X146917288Y-100497732D01*
X147000831Y-100554815D01*
X147100000Y-100574897D01*
X147775000Y-100574897D01*
X147775000Y-100605103D01*
X147100000Y-100605103D01*
X147007356Y-100622535D01*
X146922268Y-100677288D01*
X146865185Y-100760831D01*
X146845103Y-100860000D01*
X146845103Y-102860000D01*
X146862535Y-102952644D01*
X146917288Y-103037732D01*
X147000831Y-103094815D01*
X147100000Y-103114897D01*
X147775000Y-103114897D01*
X147775000Y-103145103D01*
X147100000Y-103145103D01*
X147007356Y-103162535D01*
X146922268Y-103217288D01*
X146865185Y-103300831D01*
X146845103Y-103400000D01*
X146845103Y-105400000D01*
X146862535Y-105492644D01*
X146917288Y-105577732D01*
X147000831Y-105634815D01*
X147100000Y-105654897D01*
X147775000Y-105654897D01*
X147775000Y-105775000D01*
X123025000Y-105775000D01*
X123025000Y-105654897D01*
X123690000Y-105654897D01*
X123782644Y-105637465D01*
X123867732Y-105582712D01*
X123924815Y-105499169D01*
X123944897Y-105400000D01*
X123944897Y-103400000D01*
X123927465Y-103307356D01*
X123872712Y-103222268D01*
X123789169Y-103165185D01*
X123690000Y-103145103D01*
X123025000Y-103145103D01*
X123025000Y-103114897D01*
X123690000Y-103114897D01*
X123782644Y-103097465D01*
X123867732Y-103042712D01*
X123924815Y-102959169D01*
X123944897Y-102860000D01*
X123944897Y-100860000D01*
X123927465Y-100767356D01*
X123872712Y-100682268D01*
X123789169Y-100625185D01*
X123690000Y-100605103D01*
X123025000Y-100605103D01*
X123025000Y-100574897D01*
X123690000Y-100574897D01*
X123782644Y-100557465D01*
X123867732Y-100502712D01*
X123924815Y-100419169D01*
X123944897Y-100320000D01*
X123944897Y-98320000D01*
X123975103Y-98320000D01*
X123975103Y-100320000D01*
X123992535Y-100412644D01*
X124047288Y-100497732D01*
X124130831Y-100554815D01*
X124230000Y-100574897D01*
X126230000Y-100574897D01*
X126322644Y-100557465D01*
X126407732Y-100502712D01*
X126464815Y-100419169D01*
X126484897Y-100320000D01*
X126484897Y-98320000D01*
X126467465Y-98227356D01*
X126412712Y-98142268D01*
X126329169Y-98085185D01*
X126230000Y-98065103D01*
X124230000Y-98065103D01*
X124137356Y-98082535D01*
X124052268Y-98137288D01*
X123995185Y-98220831D01*
X123975103Y-98320000D01*
X123944897Y-98320000D01*
X123927465Y-98227356D01*
X123872712Y-98142268D01*
X123789169Y-98085185D01*
X123690000Y-98065103D01*
X123025000Y-98065103D01*
X123025000Y-98034897D01*
X123690000Y-98034897D01*
X123782644Y-98017465D01*
X123867732Y-97962712D01*
X123924815Y-97879169D01*
X123944897Y-97780000D01*
X123944897Y-95780000D01*
X123975103Y-95780000D01*
X123975103Y-97780000D01*
X123992535Y-97872644D01*
X124047288Y-97957732D01*
X124130831Y-98014815D01*
X124230000Y-98034897D01*
X126230000Y-98034897D01*
X126322644Y-98017465D01*
X126407732Y-97962712D01*
X126464815Y-97879169D01*
X126484897Y-97780000D01*
X126484897Y-95780000D01*
X126467465Y-95687356D01*
X126412712Y-95602268D01*
X126329169Y-95545185D01*
X126230000Y-95525103D01*
X124230000Y-95525103D01*
X124137356Y-95542535D01*
X124052268Y-95597288D01*
X123995185Y-95680831D01*
X123975103Y-95780000D01*
X123944897Y-95780000D01*
X123927465Y-95687356D01*
X123872712Y-95602268D01*
X123789169Y-95545185D01*
X123690000Y-95525103D01*
X123025000Y-95525103D01*
X123025000Y-95490000D01*
X123739728Y-95490000D01*
X123831614Y-95451940D01*
X123901940Y-95381614D01*
X123940000Y-95289728D01*
X123940000Y-94352500D01*
X123980000Y-94352500D01*
X123980000Y-95289728D01*
X124018060Y-95381614D01*
X124088386Y-95451940D01*
X124180272Y-95490000D01*
X125117500Y-95490000D01*
X125180000Y-95427500D01*
X125180000Y-94290000D01*
X125280000Y-94290000D01*
X125280000Y-95427500D01*
X125342500Y-95490000D01*
X126279728Y-95490000D01*
X126371614Y-95451940D01*
X126441940Y-95381614D01*
X126480000Y-95289728D01*
X126480000Y-94352500D01*
X126417500Y-94290000D01*
X125280000Y-94290000D01*
X125180000Y-94290000D01*
X124042500Y-94290000D01*
X123980000Y-94352500D01*
X123940000Y-94352500D01*
X123877500Y-94290000D01*
X123025000Y-94290000D01*
X123025000Y-94190000D01*
X123877500Y-94190000D01*
X123940000Y-94127500D01*
X123940000Y-93190272D01*
X123980000Y-93190272D01*
X123980000Y-94127500D01*
X124042500Y-94190000D01*
X125180000Y-94190000D01*
X125180000Y-93052500D01*
X125280000Y-93052500D01*
X125280000Y-94190000D01*
X126417500Y-94190000D01*
X126480000Y-94127500D01*
X126480000Y-93190272D01*
X126441940Y-93098386D01*
X126371614Y-93028060D01*
X126279728Y-92990000D01*
X125342500Y-92990000D01*
X125280000Y-93052500D01*
X125180000Y-93052500D01*
X125117500Y-92990000D01*
X124180272Y-92990000D01*
X124088386Y-93028060D01*
X124018060Y-93098386D01*
X123980000Y-93190272D01*
X123940000Y-93190272D01*
X123901940Y-93098386D01*
X123831614Y-93028060D01*
X123739728Y-92990000D01*
X123025000Y-92990000D01*
X123025000Y-92954897D01*
X123690000Y-92954897D01*
X123782644Y-92937465D01*
X123867732Y-92882712D01*
X123924815Y-92799169D01*
X123944897Y-92700000D01*
X123944897Y-90700000D01*
X123975103Y-90700000D01*
X123975103Y-92700000D01*
X123992535Y-92792644D01*
X124047288Y-92877732D01*
X124130831Y-92934815D01*
X124230000Y-92954897D01*
X126230000Y-92954897D01*
X126322644Y-92937465D01*
X126407732Y-92882712D01*
X126464815Y-92799169D01*
X126484897Y-92700000D01*
X126484897Y-92100000D01*
X126604314Y-92100000D01*
X127977157Y-93472843D01*
X128106926Y-93559552D01*
X128260000Y-93590000D01*
X130422163Y-93590000D01*
X130488043Y-93655995D01*
X130690118Y-93739904D01*
X130834996Y-93740030D01*
X130427513Y-94147513D01*
X130389692Y-94204115D01*
X130351736Y-94260834D01*
X130351711Y-94260957D01*
X130351642Y-94261061D01*
X130338514Y-94327061D01*
X130325000Y-94394754D01*
X130320300Y-101091951D01*
X130204005Y-101208043D01*
X130120096Y-101410118D01*
X130119905Y-101628922D01*
X130203461Y-101831143D01*
X130358043Y-101985995D01*
X130560118Y-102069904D01*
X130778922Y-102070095D01*
X130981143Y-101986539D01*
X131135995Y-101831957D01*
X131219904Y-101629882D01*
X131220095Y-101411078D01*
X131136539Y-101208857D01*
X131020300Y-101092415D01*
X131024898Y-94540076D01*
X131647487Y-93917487D01*
X131723358Y-93803939D01*
X131742257Y-93708922D01*
X132949905Y-93708922D01*
X133033461Y-93911143D01*
X133070000Y-93947746D01*
X133070000Y-95302058D01*
X133064005Y-95308043D01*
X132980096Y-95510118D01*
X132979905Y-95728922D01*
X133063461Y-95931143D01*
X133218043Y-96085995D01*
X133420118Y-96169904D01*
X133638922Y-96170095D01*
X133841143Y-96086539D01*
X133995995Y-95931957D01*
X134079904Y-95729882D01*
X134080095Y-95511078D01*
X133996539Y-95308857D01*
X133870000Y-95182097D01*
X133870000Y-94007785D01*
X133965995Y-93911957D01*
X134049904Y-93709882D01*
X134050095Y-93491078D01*
X133966539Y-93288857D01*
X133811957Y-93134005D01*
X133609882Y-93050096D01*
X133391078Y-93049905D01*
X133188857Y-93133461D01*
X133034005Y-93288043D01*
X132950096Y-93490118D01*
X132949905Y-93708922D01*
X131742257Y-93708922D01*
X131750000Y-93670000D01*
X131750000Y-89444974D01*
X132989943Y-88205031D01*
X132989905Y-88248922D01*
X133073461Y-88451143D01*
X133228043Y-88605995D01*
X133430118Y-88689904D01*
X133648922Y-88690095D01*
X133742489Y-88651434D01*
X133742489Y-90338024D01*
X133700096Y-90440118D01*
X133699905Y-90658922D01*
X133783461Y-90861143D01*
X133938043Y-91015995D01*
X134140118Y-91099904D01*
X134358922Y-91100095D01*
X134561143Y-91016539D01*
X134662066Y-90915791D01*
X134754000Y-91007886D01*
X134754000Y-94004000D01*
X134774301Y-94106061D01*
X134780642Y-94137939D01*
X134856513Y-94251487D01*
X135872809Y-95267783D01*
X135713857Y-95333461D01*
X135607476Y-95439656D01*
X135531957Y-95364005D01*
X135329882Y-95280096D01*
X135111078Y-95279905D01*
X134908857Y-95363461D01*
X134754005Y-95518043D01*
X134670096Y-95720118D01*
X134669905Y-95938922D01*
X134753461Y-96141143D01*
X134870000Y-96257886D01*
X134870000Y-98760026D01*
X134855016Y-98775010D01*
X134855013Y-98775012D01*
X131405026Y-102225000D01*
X127144975Y-102225000D01*
X126532487Y-101612513D01*
X126484897Y-101580714D01*
X126484897Y-100860000D01*
X126467465Y-100767356D01*
X126412712Y-100682268D01*
X126329169Y-100625185D01*
X126230000Y-100605103D01*
X124230000Y-100605103D01*
X124137356Y-100622535D01*
X124052268Y-100677288D01*
X123995185Y-100760831D01*
X123975103Y-100860000D01*
X123975103Y-102860000D01*
X123992535Y-102952644D01*
X124047288Y-103037732D01*
X124130831Y-103094815D01*
X124230000Y-103114897D01*
X126230000Y-103114897D01*
X126322644Y-103097465D01*
X126407732Y-103042712D01*
X126464815Y-102959169D01*
X126484897Y-102860000D01*
X126484897Y-102554872D01*
X126752513Y-102822488D01*
X126866061Y-102898358D01*
X127000000Y-102925000D01*
X131455026Y-102925000D01*
X130330026Y-104050000D01*
X126484897Y-104050000D01*
X126484897Y-103400000D01*
X126467465Y-103307356D01*
X126412712Y-103222268D01*
X126329169Y-103165185D01*
X126230000Y-103145103D01*
X124230000Y-103145103D01*
X124137356Y-103162535D01*
X124052268Y-103217288D01*
X123995185Y-103300831D01*
X123975103Y-103400000D01*
X123975103Y-105400000D01*
X123992535Y-105492644D01*
X124047288Y-105577732D01*
X124130831Y-105634815D01*
X124230000Y-105654897D01*
X126230000Y-105654897D01*
X126322644Y-105637465D01*
X126407732Y-105582712D01*
X126464815Y-105499169D01*
X126484897Y-105400000D01*
X126484897Y-104750000D01*
X130475000Y-104750000D01*
X130608939Y-104723358D01*
X130722487Y-104647487D01*
X135210707Y-100159267D01*
X135273461Y-100311143D01*
X135390000Y-100427886D01*
X135390000Y-100730000D01*
X135416642Y-100863939D01*
X135492513Y-100977487D01*
X135552513Y-101037488D01*
X135552516Y-101037490D01*
X137562515Y-103047489D01*
X137676062Y-103123360D01*
X137698284Y-103127780D01*
X137810002Y-103150002D01*
X141605028Y-103150002D01*
X141790048Y-103335022D01*
X141789905Y-103498922D01*
X141873461Y-103701143D01*
X142028043Y-103855995D01*
X142230118Y-103939904D01*
X142448922Y-103940095D01*
X142651143Y-103856539D01*
X142805995Y-103701957D01*
X142889904Y-103499882D01*
X142889917Y-103484892D01*
X144052512Y-104647487D01*
X144166060Y-104723358D01*
X144188282Y-104727778D01*
X144300000Y-104750000D01*
X144305103Y-104750000D01*
X144305103Y-105400000D01*
X144322535Y-105492644D01*
X144377288Y-105577732D01*
X144460831Y-105634815D01*
X144560000Y-105654897D01*
X146560000Y-105654897D01*
X146652644Y-105637465D01*
X146737732Y-105582712D01*
X146794815Y-105499169D01*
X146814897Y-105400000D01*
X146814897Y-103400000D01*
X146797465Y-103307356D01*
X146742712Y-103222268D01*
X146659169Y-103165185D01*
X146560000Y-103145103D01*
X144560000Y-103145103D01*
X144467356Y-103162535D01*
X144382268Y-103217288D01*
X144325185Y-103300831D01*
X144305103Y-103400000D01*
X144305103Y-103910128D01*
X142604974Y-102210000D01*
X144305103Y-102210000D01*
X144305103Y-102860000D01*
X144322535Y-102952644D01*
X144377288Y-103037732D01*
X144460831Y-103094815D01*
X144560000Y-103114897D01*
X146560000Y-103114897D01*
X146652644Y-103097465D01*
X146737732Y-103042712D01*
X146794815Y-102959169D01*
X146814897Y-102860000D01*
X146814897Y-100860000D01*
X146797465Y-100767356D01*
X146742712Y-100682268D01*
X146659169Y-100625185D01*
X146560000Y-100605103D01*
X144560000Y-100605103D01*
X144467356Y-100622535D01*
X144382268Y-100677288D01*
X144325185Y-100760831D01*
X144305103Y-100860000D01*
X144305103Y-101510000D01*
X141697798Y-101510000D01*
X141785995Y-101421957D01*
X141869904Y-101219882D01*
X141870095Y-101001078D01*
X141786539Y-100798857D01*
X141670000Y-100682114D01*
X141670000Y-98320000D01*
X144305103Y-98320000D01*
X144305103Y-100320000D01*
X144322535Y-100412644D01*
X144377288Y-100497732D01*
X144460831Y-100554815D01*
X144560000Y-100574897D01*
X146560000Y-100574897D01*
X146652644Y-100557465D01*
X146737732Y-100502712D01*
X146794815Y-100419169D01*
X146814897Y-100320000D01*
X146814897Y-98320000D01*
X146797465Y-98227356D01*
X146742712Y-98142268D01*
X146659169Y-98085185D01*
X146560000Y-98065103D01*
X144560000Y-98065103D01*
X144467356Y-98082535D01*
X144382268Y-98137288D01*
X144325185Y-98220831D01*
X144305103Y-98320000D01*
X141670000Y-98320000D01*
X141670000Y-96094974D01*
X142602512Y-97027487D01*
X142716060Y-97103358D01*
X142738282Y-97107778D01*
X142850000Y-97130000D01*
X144305103Y-97130000D01*
X144305103Y-97780000D01*
X144322535Y-97872644D01*
X144377288Y-97957732D01*
X144460831Y-98014815D01*
X144560000Y-98034897D01*
X146560000Y-98034897D01*
X146652644Y-98017465D01*
X146737732Y-97962712D01*
X146794815Y-97879169D01*
X146814897Y-97780000D01*
X146814897Y-95780000D01*
X146797465Y-95687356D01*
X146742712Y-95602268D01*
X146659169Y-95545185D01*
X146560000Y-95525103D01*
X144560000Y-95525103D01*
X144467356Y-95542535D01*
X144382268Y-95597288D01*
X144325185Y-95680831D01*
X144305103Y-95780000D01*
X144305103Y-96430000D01*
X142994975Y-96430000D01*
X142080000Y-95515026D01*
X142080000Y-93614975D01*
X142952513Y-94487488D01*
X143066061Y-94563358D01*
X143200000Y-94590000D01*
X144305103Y-94590000D01*
X144305103Y-95240000D01*
X144322535Y-95332644D01*
X144377288Y-95417732D01*
X144460831Y-95474815D01*
X144560000Y-95494897D01*
X146560000Y-95494897D01*
X146652644Y-95477465D01*
X146737732Y-95422712D01*
X146794815Y-95339169D01*
X146814897Y-95240000D01*
X146814897Y-93240000D01*
X146797465Y-93147356D01*
X146742712Y-93062268D01*
X146659169Y-93005185D01*
X146560000Y-92985103D01*
X144560000Y-92985103D01*
X144467356Y-93002535D01*
X144382268Y-93057288D01*
X144325185Y-93140831D01*
X144305103Y-93240000D01*
X144305103Y-93890000D01*
X143344975Y-93890000D01*
X141504975Y-92050000D01*
X144305103Y-92050000D01*
X144305103Y-92700000D01*
X144322535Y-92792644D01*
X144377288Y-92877732D01*
X144460831Y-92934815D01*
X144560000Y-92954897D01*
X146560000Y-92954897D01*
X146652644Y-92937465D01*
X146737732Y-92882712D01*
X146794815Y-92799169D01*
X146814897Y-92700000D01*
X146814897Y-90700000D01*
X146797465Y-90607356D01*
X146742712Y-90522268D01*
X146659169Y-90465185D01*
X146560000Y-90445103D01*
X144560000Y-90445103D01*
X144467356Y-90462535D01*
X144382268Y-90517288D01*
X144325185Y-90600831D01*
X144305103Y-90700000D01*
X144305103Y-91350000D01*
X141544975Y-91350000D01*
X136904974Y-86710000D01*
X137190026Y-86710000D01*
X138450048Y-87970023D01*
X138449905Y-88133922D01*
X138533461Y-88336143D01*
X138688043Y-88490995D01*
X138890118Y-88574904D01*
X139108922Y-88575095D01*
X139311143Y-88491539D01*
X139465995Y-88336957D01*
X139549904Y-88134882D01*
X139550095Y-87916078D01*
X139466539Y-87713857D01*
X139311957Y-87559005D01*
X139109882Y-87475096D01*
X138944927Y-87474952D01*
X137582487Y-86112513D01*
X137468939Y-86036642D01*
X137335000Y-86010000D01*
X137070960Y-86010000D01*
X137149904Y-85819882D01*
X137150095Y-85601078D01*
X137066539Y-85398857D01*
X136911957Y-85244005D01*
X136709882Y-85160096D01*
X136491078Y-85159905D01*
X136288857Y-85243461D01*
X136222202Y-85310000D01*
X132187837Y-85310000D01*
X132121957Y-85244005D01*
X131919882Y-85160096D01*
X131701078Y-85159905D01*
X131498857Y-85243461D01*
X131344005Y-85398043D01*
X131260096Y-85600118D01*
X131259905Y-85818922D01*
X131343461Y-86021143D01*
X131498043Y-86175995D01*
X131700118Y-86259904D01*
X131918922Y-86260095D01*
X132121143Y-86176539D01*
X132187798Y-86110000D01*
X134096274Y-86110000D01*
X134092513Y-86112513D01*
X131152513Y-89052513D01*
X131076642Y-89166061D01*
X131050000Y-89300000D01*
X131050000Y-92698278D01*
X130909882Y-92640096D01*
X130691078Y-92639905D01*
X130488857Y-92723461D01*
X130422202Y-92790000D01*
X128425686Y-92790000D01*
X127052843Y-91417157D01*
X126923074Y-91330448D01*
X126770000Y-91300000D01*
X126484897Y-91300000D01*
X126484897Y-90700000D01*
X126467465Y-90607356D01*
X126412712Y-90522268D01*
X126329169Y-90465185D01*
X126230000Y-90445103D01*
X124230000Y-90445103D01*
X124137356Y-90462535D01*
X124052268Y-90517288D01*
X123995185Y-90600831D01*
X123975103Y-90700000D01*
X123944897Y-90700000D01*
X123927465Y-90607356D01*
X123872712Y-90522268D01*
X123789169Y-90465185D01*
X123690000Y-90445103D01*
X123025000Y-90445103D01*
X123025000Y-84425000D01*
X147775000Y-84425000D01*
X147775000Y-90445103D01*
G36*
X141380000Y-93644975D02*
X141380000Y-95305025D01*
X139339952Y-93264978D01*
X139340095Y-93101078D01*
X139256539Y-92898857D01*
X139101957Y-92744005D01*
X138899882Y-92660096D01*
X138681078Y-92659905D01*
X138478857Y-92743461D01*
X138324005Y-92898043D01*
X138240096Y-93100118D01*
X138239905Y-93318922D01*
X138323461Y-93521143D01*
X138478043Y-93675995D01*
X138680118Y-93759904D01*
X138845074Y-93760048D01*
X140970000Y-95884975D01*
X140970000Y-100682250D01*
X140854005Y-100798043D01*
X140770096Y-101000118D01*
X140769905Y-101218922D01*
X140853461Y-101421143D01*
X140942163Y-101510000D01*
X138829975Y-101510000D01*
X137524908Y-100204934D01*
X137525048Y-100044926D01*
X137597487Y-99972487D01*
X137673358Y-99858940D01*
X137687460Y-99788043D01*
X137700000Y-99725000D01*
X137700000Y-96484179D01*
X137810118Y-96529904D01*
X138028922Y-96530095D01*
X138231143Y-96446539D01*
X138385995Y-96291957D01*
X138469904Y-96089882D01*
X138470095Y-95871078D01*
X138386539Y-95668857D01*
X138320000Y-95602202D01*
X138320000Y-94397837D01*
X138385995Y-94331957D01*
X138469904Y-94129882D01*
X138470095Y-93911078D01*
X138386539Y-93708857D01*
X138231957Y-93554005D01*
X138029882Y-93470096D01*
X137811078Y-93469905D01*
X137608857Y-93553461D01*
X137454005Y-93708043D01*
X137370096Y-93910118D01*
X137369905Y-94128922D01*
X137453461Y-94331143D01*
X137520000Y-94397798D01*
X137520000Y-94695026D01*
X136820000Y-93995026D01*
X136820000Y-89084974D01*
X141380000Y-93644975D01*
X141380000Y-93644975D01*
G37*
X141380000Y-93644975D02*
X141380000Y-95305025D01*
X139339952Y-93264978D01*
X139340095Y-93101078D01*
X139256539Y-92898857D01*
X139101957Y-92744005D01*
X138899882Y-92660096D01*
X138681078Y-92659905D01*
X138478857Y-92743461D01*
X138324005Y-92898043D01*
X138240096Y-93100118D01*
X138239905Y-93318922D01*
X138323461Y-93521143D01*
X138478043Y-93675995D01*
X138680118Y-93759904D01*
X138845074Y-93760048D01*
X140970000Y-95884975D01*
X140970000Y-100682250D01*
X140854005Y-100798043D01*
X140770096Y-101000118D01*
X140769905Y-101218922D01*
X140853461Y-101421143D01*
X140942163Y-101510000D01*
X138829975Y-101510000D01*
X137524908Y-100204934D01*
X137525048Y-100044926D01*
X137597487Y-99972487D01*
X137673358Y-99858940D01*
X137687460Y-99788043D01*
X137700000Y-99725000D01*
X137700000Y-96484179D01*
X137810118Y-96529904D01*
X138028922Y-96530095D01*
X138231143Y-96446539D01*
X138385995Y-96291957D01*
X138469904Y-96089882D01*
X138470095Y-95871078D01*
X138386539Y-95668857D01*
X138320000Y-95602202D01*
X138320000Y-94397837D01*
X138385995Y-94331957D01*
X138469904Y-94129882D01*
X138470095Y-93911078D01*
X138386539Y-93708857D01*
X138231957Y-93554005D01*
X138029882Y-93470096D01*
X137811078Y-93469905D01*
X137608857Y-93553461D01*
X137454005Y-93708043D01*
X137370096Y-93910118D01*
X137369905Y-94128922D01*
X137453461Y-94331143D01*
X137520000Y-94397798D01*
X137520000Y-94695026D01*
X136820000Y-93995026D01*
X136820000Y-89084974D01*
X141380000Y-93644975D01*
M02*
