M48
METRIC,TZ
T1C0.300
T2C1.000
%
G90
G05
T1
X127500Y-96100
X128060Y-101760
X130000Y-85500
X130670Y-101520
X130800Y-93190
X131810Y-85710
X132270Y-98130
X132500Y-94300
X133500Y-93600
X133530Y-95620
X133540Y-88140
X134100Y-94300
X134250Y-90550
X134650Y-88090
X135000Y-100800
X135104Y-90580
X135220Y-95830
X135490Y-88040
X135740Y-100000
X135915Y-90605
X136025Y-95800
X136375Y-100575
X136600Y-85710
X136975Y-100100
X137900Y-93100
X137920Y-94020
X137920Y-95980
X138000Y-99600
X138790Y-93210
X139000Y-88025
X140200Y-85500
X140710Y-99600
X141320Y-101110
X142340Y-103390
X142500Y-98200
X142900Y-95300
X144570Y-89470
T2
X122690Y-91700
X122690Y-94240
X122690Y-96780
X122690Y-99320
X122690Y-101860
X122690Y-104400
X125230Y-91700
X125230Y-94240
X125230Y-96780
X125230Y-99320
X125230Y-101860
X125230Y-104400
X145560Y-91700
X145560Y-94240
X145560Y-96780
X145560Y-99320
X145560Y-101860
X145560Y-104400
X148100Y-91700
X148100Y-94240
X148100Y-96780
X148100Y-99320
X148100Y-101860
X148100Y-104400
T0
M30
