G04 #@! TF.FileFunction,Copper,L1,Top,Signal*
%FSLAX46Y46*%
G04 Gerber Fmt 4.6, Leading zero omitted, Abs format (unit mm)*
G04 Created by KiCad (PCBNEW 4.0.6) date 03/27/17 14:11:27*
%MOMM*%
%LPD*%
G01*
G04 APERTURE LIST*
%ADD10C,0.100000*%
%ADD11R,0.750000X0.800000*%
%ADD12R,0.800000X0.750000*%
%ADD13R,0.300000X1.300000*%
%ADD14R,1.700000X1.500000*%
%ADD15R,0.280000X0.410000*%
%ADD16R,0.410000X0.280000*%
%ADD17R,1.400000X3.700000*%
%ADD18R,2.000000X2.000000*%
%ADD19R,0.800000X0.500000*%
%ADD20R,0.800000X0.900000*%
%ADD21R,0.300000X0.950000*%
%ADD22C,0.600000*%
%ADD23C,0.300000*%
%ADD24C,0.200000*%
G04 APERTURE END LIST*
D10*
D11*
X133460000Y-96630000D03*
X133460000Y-98130000D03*
X137925000Y-98475000D03*
X137925000Y-96975000D03*
D12*
X141425000Y-98325000D03*
X139925000Y-98325000D03*
X131050000Y-98300000D03*
X129550000Y-98300000D03*
D11*
X141900000Y-94600000D03*
X141900000Y-96100000D03*
X140250000Y-94600000D03*
X140250000Y-96100000D03*
X131300000Y-94650000D03*
X131300000Y-96150000D03*
D12*
X136700000Y-94325000D03*
X135200000Y-94325000D03*
D11*
X129100000Y-94650000D03*
X129100000Y-96150000D03*
D13*
X141650000Y-89300000D03*
X141150000Y-89300000D03*
X140650000Y-89300000D03*
X140150000Y-89300000D03*
X139650000Y-89300000D03*
X139150000Y-89300000D03*
X138650000Y-89300000D03*
X138150000Y-89300000D03*
X137650000Y-89300000D03*
X137150000Y-89300000D03*
X136650000Y-89300000D03*
X136150000Y-89300000D03*
X135650000Y-89300000D03*
X135150000Y-89300000D03*
X134650000Y-89300000D03*
X134150000Y-89300000D03*
X133650000Y-89300000D03*
X133150000Y-89300000D03*
X132650000Y-89300000D03*
X132150000Y-89300000D03*
X131650000Y-89300000D03*
X131150000Y-89300000D03*
X130650000Y-89300000D03*
X130150000Y-89300000D03*
X129650000Y-89300000D03*
X129150000Y-89300000D03*
D14*
X143300000Y-85400000D03*
X127500000Y-85400000D03*
D15*
X135300000Y-96565000D03*
D16*
X136365000Y-98130000D03*
X136365000Y-97630000D03*
X136365000Y-97130000D03*
X136365000Y-96630000D03*
X134735000Y-96630000D03*
X134735000Y-97130000D03*
X134735000Y-97630000D03*
X134735000Y-98130000D03*
D15*
X135800000Y-96565000D03*
X135300000Y-98195000D03*
X135800000Y-98195000D03*
D17*
X137100000Y-103306000D03*
X133700000Y-103306000D03*
D18*
X125230000Y-91700000D03*
X125230000Y-94240000D03*
X125230000Y-96780000D03*
X125230000Y-99320000D03*
X125230000Y-101860000D03*
X125230000Y-104400000D03*
X145560000Y-104400000D03*
X145560000Y-101860000D03*
X145560000Y-99320000D03*
X145560000Y-96780000D03*
X145560000Y-94240000D03*
X145560000Y-91700000D03*
X148100000Y-104400000D03*
X148100000Y-101860000D03*
X148100000Y-99320000D03*
X148100000Y-96780000D03*
X148100000Y-94240000D03*
X148100000Y-91700000D03*
X122690000Y-91700000D03*
X122690000Y-94240000D03*
X122690000Y-96780000D03*
X122690000Y-99320000D03*
X122690000Y-101860000D03*
X122690000Y-104400000D03*
D19*
X141350000Y-100300000D03*
X139350000Y-100300000D03*
X131500000Y-100300000D03*
X129500000Y-100300000D03*
D20*
X141400000Y-102500000D03*
X139400000Y-102500000D03*
X140400000Y-104700000D03*
X131400000Y-102500000D03*
X129400000Y-102500000D03*
X130400000Y-104700000D03*
D21*
X142004000Y-86950000D03*
X141704000Y-91800000D03*
X141404000Y-86950000D03*
X141104000Y-91800000D03*
X140804000Y-86950000D03*
X140504000Y-91800000D03*
X140204000Y-86950000D03*
X139904000Y-91800000D03*
X139604000Y-86950000D03*
X139304000Y-91800000D03*
X139004000Y-86950000D03*
X138704000Y-91800000D03*
X138404000Y-86950000D03*
X138104000Y-91800000D03*
X137804000Y-86950000D03*
X137504000Y-91800000D03*
X137204000Y-86950000D03*
X136904000Y-91800000D03*
X136604000Y-86950000D03*
X136304000Y-91800000D03*
X136004000Y-86950000D03*
X135704000Y-91800000D03*
X135404000Y-86950000D03*
X135104000Y-91800000D03*
X134804000Y-86950000D03*
X134504000Y-91800000D03*
X134204000Y-86950000D03*
X133904000Y-91800000D03*
X133604000Y-86950000D03*
X133304000Y-91800000D03*
X133004000Y-86950000D03*
X132704000Y-91800000D03*
X132404000Y-86950000D03*
X132104000Y-91800000D03*
X131804000Y-86950000D03*
X131504000Y-91800000D03*
X131204000Y-86950000D03*
X130904000Y-91800000D03*
X130604000Y-86950000D03*
X130304000Y-91800000D03*
X130004000Y-86950000D03*
X129704000Y-91800000D03*
X129404000Y-86950000D03*
X129104000Y-91800000D03*
X128804000Y-86950000D03*
D22*
X133500000Y-93600000D03*
X133530000Y-95620000D03*
X136600000Y-85710000D03*
X131810000Y-85710000D03*
X137920000Y-94020000D03*
X137920000Y-95980000D03*
X130800000Y-93190000D03*
X137900000Y-93100000D03*
X140200000Y-85500000D03*
X144570000Y-89470000D03*
X140710000Y-99600000D03*
X128060000Y-101760000D03*
X132270000Y-98130000D03*
X130000000Y-85500000D03*
X127500000Y-96100000D03*
X132500000Y-94300000D03*
X142500000Y-98200000D03*
X142900000Y-95300000D03*
X135000000Y-100800000D03*
X134100000Y-94300000D03*
X138000000Y-99600000D03*
X135490000Y-88040000D03*
X136975000Y-100100000D03*
X136375000Y-100575000D03*
X135915000Y-90605000D03*
X135104000Y-90580000D03*
X142340000Y-103390000D03*
X135740000Y-100000000D03*
X134650000Y-88090000D03*
X134250000Y-90550000D03*
X133540000Y-88140000D03*
X135220000Y-95830000D03*
X136025000Y-95800000D03*
X141320000Y-101110000D03*
X138790000Y-93210000D03*
X139000000Y-88025000D03*
X130670000Y-101520000D03*
D23*
X133500000Y-93600000D02*
X134100000Y-93000000D01*
X136700000Y-93250000D02*
X136450000Y-93000000D01*
X136450000Y-93000000D02*
X134100000Y-93000000D01*
X133460000Y-96630000D02*
X133460000Y-95690000D01*
D24*
X133460000Y-95690000D02*
X133530000Y-95620000D01*
D23*
X140170000Y-100880000D02*
X139400000Y-101650000D01*
X140170000Y-100880000D02*
X140170000Y-99900000D01*
X140170000Y-99900000D02*
X139730000Y-99460000D01*
X139730000Y-99460000D02*
X139310000Y-99460000D01*
X139310000Y-99460000D02*
X138840000Y-98990000D01*
X138840000Y-98990000D02*
X138840000Y-97340000D01*
X138840000Y-97340000D02*
X138475000Y-96975000D01*
X137925000Y-96975000D02*
X138475000Y-96975000D01*
X139400000Y-101650000D02*
X139400000Y-102500000D01*
X131804000Y-87050000D02*
X131804000Y-85716000D01*
X136600000Y-85710000D02*
X136600000Y-87046000D01*
X131804000Y-85716000D02*
X131810000Y-85710000D01*
X131810000Y-87044000D02*
X131804000Y-87050000D01*
X137925000Y-96975000D02*
X137925000Y-95985000D01*
X137615000Y-94325000D02*
X136700000Y-94325000D01*
X137920000Y-94020000D02*
X137615000Y-94325000D01*
X137925000Y-95985000D02*
X137920000Y-95980000D01*
X131504000Y-91700000D02*
X131504000Y-92756000D01*
X131070000Y-93190000D02*
X130800000Y-93190000D01*
X131504000Y-92756000D02*
X131070000Y-93190000D01*
X136600000Y-87046000D02*
X136604000Y-87050000D01*
X136904000Y-93046000D02*
X136700000Y-93250000D01*
X136904000Y-91700000D02*
X136904000Y-93046000D01*
X136700000Y-93250000D02*
X136700000Y-94325000D01*
D24*
X136365000Y-97130000D02*
X137120000Y-97130000D01*
X137275000Y-96975000D02*
X137925000Y-96975000D01*
X137120000Y-97130000D02*
X137275000Y-96975000D01*
X134735000Y-96630000D02*
X133460000Y-96630000D01*
D23*
X122690000Y-91700000D02*
X125230000Y-91700000D01*
X137504000Y-91700000D02*
X137504000Y-90556000D01*
X137650000Y-90410000D02*
X137650000Y-89300000D01*
X137504000Y-90556000D02*
X137650000Y-90410000D01*
X137504000Y-91700000D02*
X136904000Y-91700000D01*
X137204000Y-87050000D02*
X137204000Y-88216000D01*
X137150000Y-88270000D02*
X137150000Y-89300000D01*
X137204000Y-88216000D02*
X137150000Y-88270000D01*
X137204000Y-87050000D02*
X136604000Y-87050000D01*
X137150000Y-89300000D02*
X137650000Y-89300000D01*
X130650000Y-89300000D02*
X130650000Y-88343602D01*
X131204000Y-87789602D02*
X131204000Y-87050000D01*
X130650000Y-88343602D02*
X131204000Y-87789602D01*
X131804000Y-87050000D02*
X131204000Y-87050000D01*
X131504000Y-91700000D02*
X131504000Y-91210398D01*
X130650000Y-90356398D02*
X130650000Y-89300000D01*
X131504000Y-91210398D02*
X130650000Y-90356398D01*
D24*
X138704000Y-91700000D02*
X138704000Y-92426000D01*
X138030000Y-93100000D02*
X137900000Y-93100000D01*
X138704000Y-92426000D02*
X138030000Y-93100000D01*
X138404000Y-86196000D02*
X139100000Y-85500000D01*
X139100000Y-85500000D02*
X140200000Y-85500000D01*
X138404000Y-87050000D02*
X138404000Y-86196000D01*
X139925000Y-98325000D02*
X139925000Y-98995000D01*
X140105000Y-98995000D02*
X140710000Y-99600000D01*
X139925000Y-98995000D02*
X140105000Y-98995000D01*
X129400000Y-102500000D02*
X128800000Y-102500000D01*
X128800000Y-102500000D02*
X128060000Y-101760000D01*
X129400000Y-102500000D02*
X128970000Y-102500000D01*
X133460000Y-98130000D02*
X132270000Y-98130000D01*
X130904000Y-91700000D02*
X130904000Y-91204000D01*
X130904000Y-91204000D02*
X130500000Y-90800000D01*
D23*
X130004000Y-87050000D02*
X130004000Y-85504000D01*
X130004000Y-85504000D02*
X130000000Y-85500000D01*
X129100000Y-96150000D02*
X127550000Y-96150000D01*
X127550000Y-96150000D02*
X127500000Y-96100000D01*
X131300000Y-96150000D02*
X131300000Y-95400000D01*
X132500000Y-94900000D02*
X132500000Y-94300000D01*
X132000000Y-95400000D02*
X132500000Y-94900000D01*
X131300000Y-95400000D02*
X132000000Y-95400000D01*
X141900000Y-96100000D02*
X141900000Y-96900000D01*
X141900000Y-96900000D02*
X142500000Y-98200000D01*
X141900000Y-96100000D02*
X142700000Y-96100000D01*
X142700000Y-96100000D02*
X142900000Y-95300000D01*
X135300000Y-98195000D02*
X135300000Y-99500000D01*
X135000000Y-99800000D02*
X135000000Y-100800000D01*
X135300000Y-99500000D02*
X135000000Y-99800000D01*
X135200000Y-94325000D02*
X134125000Y-94325000D01*
X134125000Y-94325000D02*
X134100000Y-94300000D01*
D24*
X137925000Y-98475000D02*
X137925000Y-99525000D01*
X137925000Y-99525000D02*
X138000000Y-99600000D01*
X139925000Y-98325000D02*
X139925000Y-98725000D01*
D23*
X122690000Y-94240000D02*
X125230000Y-94240000D01*
X140504000Y-91700000D02*
X140504000Y-93046000D01*
X141425000Y-97450000D02*
X141425000Y-98325000D01*
X140975000Y-97000000D02*
X141425000Y-97450000D01*
X139275000Y-97000000D02*
X140975000Y-97000000D01*
X138625000Y-96350000D02*
X139275000Y-97000000D01*
X138625000Y-94925000D02*
X138625000Y-96350000D01*
X140504000Y-93046000D02*
X138625000Y-94925000D01*
X141400000Y-100300000D02*
X141400000Y-98350000D01*
X141400000Y-98350000D02*
X141425000Y-98325000D01*
X140650000Y-89300000D02*
X140650000Y-88153602D01*
X140204000Y-87707602D02*
X140204000Y-87050000D01*
X140650000Y-88153602D02*
X140204000Y-87707602D01*
X140504000Y-91006000D02*
X140650000Y-90860000D01*
X140650000Y-90860000D02*
X140650000Y-89300000D01*
X140504000Y-91700000D02*
X140504000Y-91006000D01*
X129550000Y-98300000D02*
X129550000Y-100250000D01*
X129550000Y-100250000D02*
X129500000Y-100300000D01*
X132500000Y-95675000D02*
X132500000Y-96500000D01*
X133165000Y-95010000D02*
X132500000Y-95675000D01*
X137713602Y-95199988D02*
X137713602Y-95010000D01*
X137713602Y-95010000D02*
X133165000Y-95010000D01*
X139904000Y-93009590D02*
X137713602Y-95199988D01*
X139904000Y-91700000D02*
X139904000Y-93009590D01*
X129550000Y-97520000D02*
X129550000Y-98300000D01*
X129960000Y-97110000D02*
X129550000Y-97520000D01*
X131890000Y-97110000D02*
X129960000Y-97110000D01*
X132500000Y-96500000D02*
X131890000Y-97110000D01*
X139904000Y-91700000D02*
X139904000Y-90941012D01*
X140150000Y-90695012D02*
X140150000Y-89300000D01*
X139904000Y-90941012D02*
X140150000Y-90695012D01*
X140150000Y-89300000D02*
X140150000Y-88430000D01*
X140150000Y-88430000D02*
X139604000Y-87884000D01*
X139604000Y-87884000D02*
X139604000Y-87050000D01*
X141704000Y-91700000D02*
X141704000Y-92979000D01*
X141900000Y-93175000D02*
X141900000Y-94375000D01*
X141704000Y-92979000D02*
X141900000Y-93175000D01*
X141650000Y-89300000D02*
X141650000Y-87880806D01*
X141404000Y-87634806D02*
X141404000Y-87050000D01*
X141650000Y-87880806D02*
X141404000Y-87634806D01*
X141704000Y-90284000D02*
X141650000Y-90230000D01*
X141704000Y-91700000D02*
X141704000Y-90284000D01*
X141650000Y-90230000D02*
X141650000Y-89300000D01*
X141104000Y-91700000D02*
X141104000Y-93171000D01*
X140250000Y-94025000D02*
X140250000Y-94375000D01*
X141104000Y-93171000D02*
X140250000Y-94025000D01*
X141150000Y-89300000D02*
X141150000Y-88017204D01*
X140804000Y-87671204D02*
X140804000Y-87050000D01*
X141150000Y-88017204D02*
X140804000Y-87671204D01*
X141104000Y-90336000D02*
X141150000Y-90290000D01*
X141104000Y-91700000D02*
X141104000Y-90336000D01*
X141150000Y-90290000D02*
X141150000Y-89300000D01*
X137030000Y-84950000D02*
X137804000Y-85724000D01*
X137804000Y-85724000D02*
X137804000Y-87050000D01*
X133450000Y-84950000D02*
X137030000Y-84950000D01*
X132404000Y-85996000D02*
X133450000Y-84950000D01*
X132404000Y-87050000D02*
X132404000Y-85996000D01*
X132104000Y-91700000D02*
X132104000Y-92896000D01*
X131300000Y-93700000D02*
X131300000Y-94650000D01*
X132104000Y-92896000D02*
X131300000Y-93700000D01*
X132104000Y-91700000D02*
X132104000Y-91144000D01*
X131150000Y-90190000D02*
X131150000Y-89300000D01*
X132104000Y-91144000D02*
X131150000Y-90190000D01*
X132104000Y-91700000D02*
X132704000Y-91700000D01*
X131150000Y-89300000D02*
X131150000Y-88480000D01*
X131150000Y-88480000D02*
X131450000Y-88180000D01*
X131450000Y-88180000D02*
X132070000Y-88180000D01*
X132070000Y-88180000D02*
X132404000Y-87846000D01*
X132404000Y-87846000D02*
X132404000Y-87050000D01*
X138150000Y-89300000D02*
X138150000Y-88010000D01*
X137804000Y-87664000D02*
X137804000Y-87050000D01*
X138150000Y-88010000D02*
X137804000Y-87664000D01*
X138104000Y-90436000D02*
X138150000Y-90390000D01*
X138104000Y-91700000D02*
X138104000Y-90436000D01*
X138150000Y-90390000D02*
X138150000Y-89300000D01*
X129104000Y-91700000D02*
X129104000Y-94646000D01*
X129104000Y-94646000D02*
X129100000Y-94650000D01*
D24*
X129400000Y-90900000D02*
X129400000Y-90550000D01*
X129400000Y-90550000D02*
X129150000Y-90300000D01*
X129704000Y-91700000D02*
X129704000Y-91204000D01*
X129704000Y-91204000D02*
X129400000Y-90900000D01*
X129150000Y-90300000D02*
X129150000Y-89300000D01*
X129104000Y-91196000D02*
X129400000Y-90900000D01*
X129104000Y-91700000D02*
X129104000Y-91196000D01*
X129150000Y-89300000D02*
X129150000Y-87918400D01*
X129150000Y-87918400D02*
X129404000Y-87664400D01*
X129404000Y-87664400D02*
X129404000Y-87050000D01*
X139981000Y-103306000D02*
X140400000Y-103725000D01*
X137100000Y-103306000D02*
X139981000Y-103306000D01*
X140400000Y-103725000D02*
X140400000Y-104700000D01*
X139300000Y-100300000D02*
X137600000Y-100300000D01*
X137100000Y-100800000D02*
X137100000Y-103306000D01*
X137600000Y-100300000D02*
X137100000Y-100800000D01*
X130400000Y-104700000D02*
X131320000Y-104700000D01*
X132714000Y-103306000D02*
X133700000Y-103306000D01*
X131320000Y-104700000D02*
X132714000Y-103306000D01*
X133700000Y-101400000D02*
X132600000Y-100300000D01*
X133700000Y-103306000D02*
X133700000Y-101400000D01*
X132600000Y-100300000D02*
X131500000Y-100300000D01*
X136830000Y-97630000D02*
X136975000Y-97775000D01*
X136975000Y-97775000D02*
X136975000Y-100100000D01*
X136830000Y-97630000D02*
X136365000Y-97630000D01*
D23*
X145560000Y-101860000D02*
X148100000Y-101860000D01*
D24*
X135650000Y-89300000D02*
X135650000Y-88200000D01*
X135650000Y-88200000D02*
X135490000Y-88040000D01*
X135404000Y-87954000D02*
X135404000Y-87050000D01*
X135490000Y-88040000D02*
X135404000Y-87954000D01*
X136365000Y-98130000D02*
X136365000Y-100565000D01*
X136365000Y-100565000D02*
X136375000Y-100575000D01*
D23*
X145560000Y-104400000D02*
X148100000Y-104400000D01*
D24*
X135704000Y-91700000D02*
X135704000Y-90816000D01*
X136150000Y-90370000D02*
X136150000Y-89300000D01*
X135704000Y-90816000D02*
X135915000Y-90605000D01*
X135915000Y-90605000D02*
X136150000Y-90370000D01*
X135800000Y-99825000D02*
X135740000Y-99885000D01*
X135800000Y-98195000D02*
X135800000Y-99825000D01*
X143480000Y-99320000D02*
X142340000Y-100460000D01*
X142340000Y-100460000D02*
X142340000Y-103390000D01*
X143480000Y-99320000D02*
X145560000Y-99320000D01*
X135740000Y-99885000D02*
X135740000Y-100000000D01*
X135150000Y-89300000D02*
X135150000Y-90534000D01*
X135150000Y-90534000D02*
X135104000Y-90580000D01*
X135104000Y-91700000D02*
X135104000Y-90580000D01*
D23*
X145560000Y-99320000D02*
X148100000Y-99320000D01*
X145560000Y-96780000D02*
X148100000Y-96780000D01*
D24*
X134804000Y-87050000D02*
X134804000Y-87936000D01*
X134650000Y-88090000D02*
X134650000Y-89300000D01*
X134804000Y-87936000D02*
X134650000Y-88090000D01*
D23*
X145560000Y-94240000D02*
X148100000Y-94240000D01*
D24*
X134504000Y-91700000D02*
X134504000Y-90804000D01*
X134150000Y-90450000D02*
X134150000Y-89300000D01*
X134504000Y-90804000D02*
X134270000Y-90570000D01*
X134270000Y-90570000D02*
X134150000Y-90450000D01*
X133650000Y-89300000D02*
X133650000Y-88250000D01*
X133650000Y-88250000D02*
X133540000Y-88140000D01*
X134204000Y-87050000D02*
X134204000Y-87476000D01*
X134204000Y-87476000D02*
X133540000Y-88140000D01*
D23*
X145560000Y-91700000D02*
X148100000Y-91700000D01*
D24*
X125230000Y-99320000D02*
X126830000Y-99320000D01*
X134735000Y-98755000D02*
X134735000Y-98130000D01*
X134060000Y-99430000D02*
X134735000Y-98755000D01*
X131060000Y-99430000D02*
X134060000Y-99430000D01*
X130590000Y-99900000D02*
X131060000Y-99430000D01*
X130590000Y-100430000D02*
X130590000Y-99900000D01*
X130090000Y-100930000D02*
X130590000Y-100430000D01*
X128440000Y-100930000D02*
X130090000Y-100930000D01*
X126830000Y-99320000D02*
X128440000Y-100930000D01*
D23*
X122690000Y-99320000D02*
X125230000Y-99320000D01*
D24*
X135300000Y-96565000D02*
X135300000Y-95910000D01*
X135300000Y-95910000D02*
X135220000Y-95830000D01*
D23*
X122690000Y-101860000D02*
X125230000Y-101860000D01*
D24*
X135800000Y-96025000D02*
X136025000Y-95800000D01*
X135800000Y-96025000D02*
X135800000Y-96565000D01*
D23*
X122690000Y-104400000D02*
X125230000Y-104400000D01*
D24*
X139304000Y-91700000D02*
X139304000Y-92696000D01*
X141320000Y-101110000D02*
X141320000Y-102420000D01*
X139304000Y-92696000D02*
X138790000Y-93210000D01*
X141400000Y-102500000D02*
X141320000Y-102420000D01*
X139650000Y-89300000D02*
X139650000Y-90500000D01*
X139304000Y-90846000D02*
X139304000Y-91700000D01*
X139650000Y-90500000D02*
X139304000Y-90846000D01*
X131400000Y-102500000D02*
X131400000Y-101790000D01*
X131130000Y-101520000D02*
X130670000Y-101520000D01*
X131400000Y-101790000D02*
X131130000Y-101520000D01*
X139150000Y-89300000D02*
X139150000Y-88175000D01*
X139004000Y-88021000D02*
X139000000Y-88025000D01*
X139004000Y-88021000D02*
X139004000Y-87050000D01*
X139150000Y-88175000D02*
X139000000Y-88025000D01*
G36*
X139275000Y-97400001D02*
X139275005Y-97400000D01*
X140809314Y-97400000D01*
X141025000Y-97615686D01*
X141025000Y-97695103D01*
X140932356Y-97712535D01*
X140847268Y-97767288D01*
X140790185Y-97850831D01*
X140770103Y-97950000D01*
X140770103Y-98700000D01*
X140787535Y-98792644D01*
X140842288Y-98877732D01*
X140925831Y-98934815D01*
X141000000Y-98949834D01*
X141000000Y-99795103D01*
X140950000Y-99795103D01*
X140857356Y-99812535D01*
X140772268Y-99867288D01*
X140715185Y-99950831D01*
X140695103Y-100050000D01*
X140695103Y-100550000D01*
X140712535Y-100642644D01*
X140767288Y-100727732D01*
X140850831Y-100784815D01*
X140864486Y-100787580D01*
X140854005Y-100798043D01*
X140770096Y-101000118D01*
X140769905Y-101218922D01*
X140853461Y-101421143D01*
X140970000Y-101537886D01*
X140970000Y-101800748D01*
X140907356Y-101812535D01*
X140822268Y-101867288D01*
X140765185Y-101950831D01*
X140745103Y-102050000D01*
X140745103Y-102950000D01*
X140762535Y-103042644D01*
X140817288Y-103127732D01*
X140900831Y-103184815D01*
X141000000Y-103204897D01*
X141800000Y-103204897D01*
X141823138Y-103200543D01*
X141790096Y-103280118D01*
X141789905Y-103498922D01*
X141873461Y-103701143D01*
X142028043Y-103855995D01*
X142230118Y-103939904D01*
X142448922Y-103940095D01*
X142651143Y-103856539D01*
X142805995Y-103701957D01*
X142889904Y-103499882D01*
X142890095Y-103281078D01*
X142806539Y-103078857D01*
X142690000Y-102962114D01*
X142690000Y-100604974D01*
X143624975Y-99670000D01*
X144305103Y-99670000D01*
X144305103Y-100320000D01*
X144322535Y-100412644D01*
X144377288Y-100497732D01*
X144460831Y-100554815D01*
X144560000Y-100574897D01*
X146560000Y-100574897D01*
X146652644Y-100557465D01*
X146737732Y-100502712D01*
X146794815Y-100419169D01*
X146814897Y-100320000D01*
X146814897Y-99720000D01*
X146845103Y-99720000D01*
X146845103Y-100320000D01*
X146862535Y-100412644D01*
X146917288Y-100497732D01*
X147000831Y-100554815D01*
X147100000Y-100574897D01*
X147775000Y-100574897D01*
X147775000Y-100605103D01*
X147100000Y-100605103D01*
X147007356Y-100622535D01*
X146922268Y-100677288D01*
X146865185Y-100760831D01*
X146845103Y-100860000D01*
X146845103Y-101460000D01*
X146814897Y-101460000D01*
X146814897Y-100860000D01*
X146797465Y-100767356D01*
X146742712Y-100682268D01*
X146659169Y-100625185D01*
X146560000Y-100605103D01*
X144560000Y-100605103D01*
X144467356Y-100622535D01*
X144382268Y-100677288D01*
X144325185Y-100760831D01*
X144305103Y-100860000D01*
X144305103Y-102860000D01*
X144322535Y-102952644D01*
X144377288Y-103037732D01*
X144460831Y-103094815D01*
X144560000Y-103114897D01*
X146560000Y-103114897D01*
X146652644Y-103097465D01*
X146737732Y-103042712D01*
X146794815Y-102959169D01*
X146814897Y-102860000D01*
X146814897Y-102260000D01*
X146845103Y-102260000D01*
X146845103Y-102860000D01*
X146862535Y-102952644D01*
X146917288Y-103037732D01*
X147000831Y-103094815D01*
X147100000Y-103114897D01*
X147775000Y-103114897D01*
X147775000Y-103145103D01*
X147100000Y-103145103D01*
X147007356Y-103162535D01*
X146922268Y-103217288D01*
X146865185Y-103300831D01*
X146845103Y-103400000D01*
X146845103Y-104000000D01*
X146814897Y-104000000D01*
X146814897Y-103400000D01*
X146797465Y-103307356D01*
X146742712Y-103222268D01*
X146659169Y-103165185D01*
X146560000Y-103145103D01*
X144560000Y-103145103D01*
X144467356Y-103162535D01*
X144382268Y-103217288D01*
X144325185Y-103300831D01*
X144305103Y-103400000D01*
X144305103Y-105400000D01*
X144322535Y-105492644D01*
X144377288Y-105577732D01*
X144460831Y-105634815D01*
X144560000Y-105654897D01*
X146560000Y-105654897D01*
X146652644Y-105637465D01*
X146737732Y-105582712D01*
X146794815Y-105499169D01*
X146814897Y-105400000D01*
X146814897Y-104800000D01*
X146845103Y-104800000D01*
X146845103Y-105400000D01*
X146862535Y-105492644D01*
X146917288Y-105577732D01*
X147000831Y-105634815D01*
X147100000Y-105654897D01*
X147775000Y-105654897D01*
X147775000Y-105775000D01*
X123025000Y-105775000D01*
X123025000Y-105654897D01*
X123690000Y-105654897D01*
X123782644Y-105637465D01*
X123867732Y-105582712D01*
X123924815Y-105499169D01*
X123944897Y-105400000D01*
X123944897Y-104800000D01*
X123975103Y-104800000D01*
X123975103Y-105400000D01*
X123992535Y-105492644D01*
X124047288Y-105577732D01*
X124130831Y-105634815D01*
X124230000Y-105654897D01*
X126230000Y-105654897D01*
X126322644Y-105637465D01*
X126407732Y-105582712D01*
X126464815Y-105499169D01*
X126484897Y-105400000D01*
X126484897Y-103400000D01*
X126467465Y-103307356D01*
X126412712Y-103222268D01*
X126329169Y-103165185D01*
X126230000Y-103145103D01*
X124230000Y-103145103D01*
X124137356Y-103162535D01*
X124052268Y-103217288D01*
X123995185Y-103300831D01*
X123975103Y-103400000D01*
X123975103Y-104000000D01*
X123944897Y-104000000D01*
X123944897Y-103400000D01*
X123927465Y-103307356D01*
X123872712Y-103222268D01*
X123789169Y-103165185D01*
X123690000Y-103145103D01*
X123025000Y-103145103D01*
X123025000Y-103114897D01*
X123690000Y-103114897D01*
X123782644Y-103097465D01*
X123867732Y-103042712D01*
X123924815Y-102959169D01*
X123944897Y-102860000D01*
X123944897Y-102260000D01*
X123975103Y-102260000D01*
X123975103Y-102860000D01*
X123992535Y-102952644D01*
X124047288Y-103037732D01*
X124130831Y-103094815D01*
X124230000Y-103114897D01*
X126230000Y-103114897D01*
X126322644Y-103097465D01*
X126407732Y-103042712D01*
X126464815Y-102959169D01*
X126484897Y-102860000D01*
X126484897Y-102587500D01*
X128750000Y-102587500D01*
X128750000Y-102999728D01*
X128788060Y-103091614D01*
X128858386Y-103161940D01*
X128950272Y-103200000D01*
X129312500Y-103200000D01*
X129375000Y-103137500D01*
X129375000Y-102525000D01*
X129425000Y-102525000D01*
X129425000Y-103137500D01*
X129487500Y-103200000D01*
X129849728Y-103200000D01*
X129941614Y-103161940D01*
X130011940Y-103091614D01*
X130050000Y-102999728D01*
X130050000Y-102587500D01*
X129987500Y-102525000D01*
X129425000Y-102525000D01*
X129375000Y-102525000D01*
X128812500Y-102525000D01*
X128750000Y-102587500D01*
X126484897Y-102587500D01*
X126484897Y-102000272D01*
X128750000Y-102000272D01*
X128750000Y-102412500D01*
X128812500Y-102475000D01*
X129375000Y-102475000D01*
X129375000Y-101862500D01*
X129425000Y-101862500D01*
X129425000Y-102475000D01*
X129987500Y-102475000D01*
X130050000Y-102412500D01*
X130050000Y-102000272D01*
X130011940Y-101908386D01*
X129941614Y-101838060D01*
X129849728Y-101800000D01*
X129487500Y-101800000D01*
X129425000Y-101862500D01*
X129375000Y-101862500D01*
X129312500Y-101800000D01*
X128950272Y-101800000D01*
X128858386Y-101838060D01*
X128788060Y-101908386D01*
X128750000Y-102000272D01*
X126484897Y-102000272D01*
X126484897Y-100860000D01*
X126467465Y-100767356D01*
X126412712Y-100682268D01*
X126329169Y-100625185D01*
X126230000Y-100605103D01*
X124230000Y-100605103D01*
X124137356Y-100622535D01*
X124052268Y-100677288D01*
X123995185Y-100760831D01*
X123975103Y-100860000D01*
X123975103Y-101460000D01*
X123944897Y-101460000D01*
X123944897Y-100860000D01*
X123927465Y-100767356D01*
X123872712Y-100682268D01*
X123789169Y-100625185D01*
X123690000Y-100605103D01*
X123025000Y-100605103D01*
X123025000Y-100574897D01*
X123690000Y-100574897D01*
X123782644Y-100557465D01*
X123867732Y-100502712D01*
X123924815Y-100419169D01*
X123944897Y-100320000D01*
X123944897Y-99720000D01*
X123975103Y-99720000D01*
X123975103Y-100320000D01*
X123992535Y-100412644D01*
X124047288Y-100497732D01*
X124130831Y-100554815D01*
X124230000Y-100574897D01*
X126230000Y-100574897D01*
X126322644Y-100557465D01*
X126407732Y-100502712D01*
X126464815Y-100419169D01*
X126484897Y-100320000D01*
X126484897Y-99670000D01*
X126685026Y-99670000D01*
X128192513Y-101177487D01*
X128306061Y-101253358D01*
X128440000Y-101280000D01*
X130090000Y-101280000D01*
X130181700Y-101261760D01*
X130120096Y-101410118D01*
X130119905Y-101628922D01*
X130203461Y-101831143D01*
X130358043Y-101985995D01*
X130560118Y-102069904D01*
X130745103Y-102070065D01*
X130745103Y-102950000D01*
X130762535Y-103042644D01*
X130817288Y-103127732D01*
X130900831Y-103184815D01*
X131000000Y-103204897D01*
X131800000Y-103204897D01*
X131892644Y-103187465D01*
X131977732Y-103132712D01*
X132034815Y-103049169D01*
X132054897Y-102950000D01*
X132054897Y-102050000D01*
X132037465Y-101957356D01*
X131982712Y-101872268D01*
X131899169Y-101815185D01*
X131800000Y-101795103D01*
X131750000Y-101795103D01*
X131750000Y-101790000D01*
X131723358Y-101656061D01*
X131670223Y-101576539D01*
X131647488Y-101542513D01*
X131377487Y-101272513D01*
X131263939Y-101196642D01*
X131130000Y-101170000D01*
X131097750Y-101170000D01*
X130981957Y-101054005D01*
X130779882Y-100970096D01*
X130561078Y-100969905D01*
X130533797Y-100981177D01*
X130837488Y-100677487D01*
X130862147Y-100640582D01*
X130862535Y-100642644D01*
X130917288Y-100727732D01*
X131000831Y-100784815D01*
X131100000Y-100804897D01*
X131900000Y-100804897D01*
X131992644Y-100787465D01*
X132077732Y-100732712D01*
X132134247Y-100650000D01*
X132455026Y-100650000D01*
X133006129Y-101201103D01*
X133000000Y-101201103D01*
X132907356Y-101218535D01*
X132822268Y-101273288D01*
X132765185Y-101356831D01*
X132745103Y-101456000D01*
X132745103Y-102956000D01*
X132714000Y-102956000D01*
X132580061Y-102982642D01*
X132466513Y-103058512D01*
X131175026Y-104350000D01*
X131054897Y-104350000D01*
X131054897Y-104250000D01*
X131037465Y-104157356D01*
X130982712Y-104072268D01*
X130899169Y-104015185D01*
X130800000Y-103995103D01*
X130000000Y-103995103D01*
X129907356Y-104012535D01*
X129822268Y-104067288D01*
X129765185Y-104150831D01*
X129745103Y-104250000D01*
X129745103Y-105150000D01*
X129762535Y-105242644D01*
X129817288Y-105327732D01*
X129900831Y-105384815D01*
X130000000Y-105404897D01*
X130800000Y-105404897D01*
X130892644Y-105387465D01*
X130977732Y-105332712D01*
X131034815Y-105249169D01*
X131054897Y-105150000D01*
X131054897Y-105050000D01*
X131320000Y-105050000D01*
X131453939Y-105023358D01*
X131567487Y-104947487D01*
X132745103Y-103769872D01*
X132745103Y-105156000D01*
X132762535Y-105248644D01*
X132817288Y-105333732D01*
X132900831Y-105390815D01*
X133000000Y-105410897D01*
X134400000Y-105410897D01*
X134479964Y-105395851D01*
X134511094Y-105417121D01*
X134550000Y-105425000D01*
X136250000Y-105425000D01*
X136286346Y-105418161D01*
X136319727Y-105396681D01*
X136320951Y-105394889D01*
X136400000Y-105410897D01*
X137800000Y-105410897D01*
X137892644Y-105393465D01*
X137977732Y-105338712D01*
X138034815Y-105255169D01*
X138054897Y-105156000D01*
X138054897Y-103656000D01*
X139836026Y-103656000D01*
X140050000Y-103869975D01*
X140050000Y-103995103D01*
X140000000Y-103995103D01*
X139907356Y-104012535D01*
X139822268Y-104067288D01*
X139765185Y-104150831D01*
X139745103Y-104250000D01*
X139745103Y-105150000D01*
X139762535Y-105242644D01*
X139817288Y-105327732D01*
X139900831Y-105384815D01*
X140000000Y-105404897D01*
X140800000Y-105404897D01*
X140892644Y-105387465D01*
X140977732Y-105332712D01*
X141034815Y-105249169D01*
X141054897Y-105150000D01*
X141054897Y-104250000D01*
X141037465Y-104157356D01*
X140982712Y-104072268D01*
X140899169Y-104015185D01*
X140800000Y-103995103D01*
X140750000Y-103995103D01*
X140750000Y-103725000D01*
X140723358Y-103591061D01*
X140662434Y-103499882D01*
X140647487Y-103477512D01*
X140228487Y-103058513D01*
X140114939Y-102982642D01*
X140050868Y-102969897D01*
X140054897Y-102950000D01*
X140054897Y-102050000D01*
X140037465Y-101957356D01*
X139982712Y-101872268D01*
X139899169Y-101815185D01*
X139817117Y-101798569D01*
X140452840Y-101162845D01*
X140452843Y-101162843D01*
X140539552Y-101033073D01*
X140570000Y-100880000D01*
X140570000Y-99900000D01*
X140549135Y-99795103D01*
X140539552Y-99746926D01*
X140452843Y-99617157D01*
X140012843Y-99177157D01*
X139883074Y-99090448D01*
X139730000Y-99060000D01*
X139475685Y-99060000D01*
X139240000Y-98824314D01*
X139240000Y-98412500D01*
X139275000Y-98412500D01*
X139275000Y-98749728D01*
X139313060Y-98841614D01*
X139383386Y-98911940D01*
X139475272Y-98950000D01*
X139837500Y-98950000D01*
X139900000Y-98887500D01*
X139900000Y-98350000D01*
X139950000Y-98350000D01*
X139950000Y-98887500D01*
X140012500Y-98950000D01*
X140374728Y-98950000D01*
X140466614Y-98911940D01*
X140536940Y-98841614D01*
X140575000Y-98749728D01*
X140575000Y-98412500D01*
X140512500Y-98350000D01*
X139950000Y-98350000D01*
X139900000Y-98350000D01*
X139337500Y-98350000D01*
X139275000Y-98412500D01*
X139240000Y-98412500D01*
X139240000Y-97900272D01*
X139275000Y-97900272D01*
X139275000Y-98237500D01*
X139337500Y-98300000D01*
X139900000Y-98300000D01*
X139900000Y-97762500D01*
X139950000Y-97762500D01*
X139950000Y-98300000D01*
X140512500Y-98300000D01*
X140575000Y-98237500D01*
X140575000Y-97900272D01*
X140536940Y-97808386D01*
X140466614Y-97738060D01*
X140374728Y-97700000D01*
X140012500Y-97700000D01*
X139950000Y-97762500D01*
X139900000Y-97762500D01*
X139837500Y-97700000D01*
X139475272Y-97700000D01*
X139383386Y-97738060D01*
X139313060Y-97808386D01*
X139275000Y-97900272D01*
X139240000Y-97900272D01*
X139240000Y-97393039D01*
X139275000Y-97400001D01*
X139275000Y-97400001D01*
G37*
X139275000Y-97400001D02*
X139275005Y-97400000D01*
X140809314Y-97400000D01*
X141025000Y-97615686D01*
X141025000Y-97695103D01*
X140932356Y-97712535D01*
X140847268Y-97767288D01*
X140790185Y-97850831D01*
X140770103Y-97950000D01*
X140770103Y-98700000D01*
X140787535Y-98792644D01*
X140842288Y-98877732D01*
X140925831Y-98934815D01*
X141000000Y-98949834D01*
X141000000Y-99795103D01*
X140950000Y-99795103D01*
X140857356Y-99812535D01*
X140772268Y-99867288D01*
X140715185Y-99950831D01*
X140695103Y-100050000D01*
X140695103Y-100550000D01*
X140712535Y-100642644D01*
X140767288Y-100727732D01*
X140850831Y-100784815D01*
X140864486Y-100787580D01*
X140854005Y-100798043D01*
X140770096Y-101000118D01*
X140769905Y-101218922D01*
X140853461Y-101421143D01*
X140970000Y-101537886D01*
X140970000Y-101800748D01*
X140907356Y-101812535D01*
X140822268Y-101867288D01*
X140765185Y-101950831D01*
X140745103Y-102050000D01*
X140745103Y-102950000D01*
X140762535Y-103042644D01*
X140817288Y-103127732D01*
X140900831Y-103184815D01*
X141000000Y-103204897D01*
X141800000Y-103204897D01*
X141823138Y-103200543D01*
X141790096Y-103280118D01*
X141789905Y-103498922D01*
X141873461Y-103701143D01*
X142028043Y-103855995D01*
X142230118Y-103939904D01*
X142448922Y-103940095D01*
X142651143Y-103856539D01*
X142805995Y-103701957D01*
X142889904Y-103499882D01*
X142890095Y-103281078D01*
X142806539Y-103078857D01*
X142690000Y-102962114D01*
X142690000Y-100604974D01*
X143624975Y-99670000D01*
X144305103Y-99670000D01*
X144305103Y-100320000D01*
X144322535Y-100412644D01*
X144377288Y-100497732D01*
X144460831Y-100554815D01*
X144560000Y-100574897D01*
X146560000Y-100574897D01*
X146652644Y-100557465D01*
X146737732Y-100502712D01*
X146794815Y-100419169D01*
X146814897Y-100320000D01*
X146814897Y-99720000D01*
X146845103Y-99720000D01*
X146845103Y-100320000D01*
X146862535Y-100412644D01*
X146917288Y-100497732D01*
X147000831Y-100554815D01*
X147100000Y-100574897D01*
X147775000Y-100574897D01*
X147775000Y-100605103D01*
X147100000Y-100605103D01*
X147007356Y-100622535D01*
X146922268Y-100677288D01*
X146865185Y-100760831D01*
X146845103Y-100860000D01*
X146845103Y-101460000D01*
X146814897Y-101460000D01*
X146814897Y-100860000D01*
X146797465Y-100767356D01*
X146742712Y-100682268D01*
X146659169Y-100625185D01*
X146560000Y-100605103D01*
X144560000Y-100605103D01*
X144467356Y-100622535D01*
X144382268Y-100677288D01*
X144325185Y-100760831D01*
X144305103Y-100860000D01*
X144305103Y-102860000D01*
X144322535Y-102952644D01*
X144377288Y-103037732D01*
X144460831Y-103094815D01*
X144560000Y-103114897D01*
X146560000Y-103114897D01*
X146652644Y-103097465D01*
X146737732Y-103042712D01*
X146794815Y-102959169D01*
X146814897Y-102860000D01*
X146814897Y-102260000D01*
X146845103Y-102260000D01*
X146845103Y-102860000D01*
X146862535Y-102952644D01*
X146917288Y-103037732D01*
X147000831Y-103094815D01*
X147100000Y-103114897D01*
X147775000Y-103114897D01*
X147775000Y-103145103D01*
X147100000Y-103145103D01*
X147007356Y-103162535D01*
X146922268Y-103217288D01*
X146865185Y-103300831D01*
X146845103Y-103400000D01*
X146845103Y-104000000D01*
X146814897Y-104000000D01*
X146814897Y-103400000D01*
X146797465Y-103307356D01*
X146742712Y-103222268D01*
X146659169Y-103165185D01*
X146560000Y-103145103D01*
X144560000Y-103145103D01*
X144467356Y-103162535D01*
X144382268Y-103217288D01*
X144325185Y-103300831D01*
X144305103Y-103400000D01*
X144305103Y-105400000D01*
X144322535Y-105492644D01*
X144377288Y-105577732D01*
X144460831Y-105634815D01*
X144560000Y-105654897D01*
X146560000Y-105654897D01*
X146652644Y-105637465D01*
X146737732Y-105582712D01*
X146794815Y-105499169D01*
X146814897Y-105400000D01*
X146814897Y-104800000D01*
X146845103Y-104800000D01*
X146845103Y-105400000D01*
X146862535Y-105492644D01*
X146917288Y-105577732D01*
X147000831Y-105634815D01*
X147100000Y-105654897D01*
X147775000Y-105654897D01*
X147775000Y-105775000D01*
X123025000Y-105775000D01*
X123025000Y-105654897D01*
X123690000Y-105654897D01*
X123782644Y-105637465D01*
X123867732Y-105582712D01*
X123924815Y-105499169D01*
X123944897Y-105400000D01*
X123944897Y-104800000D01*
X123975103Y-104800000D01*
X123975103Y-105400000D01*
X123992535Y-105492644D01*
X124047288Y-105577732D01*
X124130831Y-105634815D01*
X124230000Y-105654897D01*
X126230000Y-105654897D01*
X126322644Y-105637465D01*
X126407732Y-105582712D01*
X126464815Y-105499169D01*
X126484897Y-105400000D01*
X126484897Y-103400000D01*
X126467465Y-103307356D01*
X126412712Y-103222268D01*
X126329169Y-103165185D01*
X126230000Y-103145103D01*
X124230000Y-103145103D01*
X124137356Y-103162535D01*
X124052268Y-103217288D01*
X123995185Y-103300831D01*
X123975103Y-103400000D01*
X123975103Y-104000000D01*
X123944897Y-104000000D01*
X123944897Y-103400000D01*
X123927465Y-103307356D01*
X123872712Y-103222268D01*
X123789169Y-103165185D01*
X123690000Y-103145103D01*
X123025000Y-103145103D01*
X123025000Y-103114897D01*
X123690000Y-103114897D01*
X123782644Y-103097465D01*
X123867732Y-103042712D01*
X123924815Y-102959169D01*
X123944897Y-102860000D01*
X123944897Y-102260000D01*
X123975103Y-102260000D01*
X123975103Y-102860000D01*
X123992535Y-102952644D01*
X124047288Y-103037732D01*
X124130831Y-103094815D01*
X124230000Y-103114897D01*
X126230000Y-103114897D01*
X126322644Y-103097465D01*
X126407732Y-103042712D01*
X126464815Y-102959169D01*
X126484897Y-102860000D01*
X126484897Y-102587500D01*
X128750000Y-102587500D01*
X128750000Y-102999728D01*
X128788060Y-103091614D01*
X128858386Y-103161940D01*
X128950272Y-103200000D01*
X129312500Y-103200000D01*
X129375000Y-103137500D01*
X129375000Y-102525000D01*
X129425000Y-102525000D01*
X129425000Y-103137500D01*
X129487500Y-103200000D01*
X129849728Y-103200000D01*
X129941614Y-103161940D01*
X130011940Y-103091614D01*
X130050000Y-102999728D01*
X130050000Y-102587500D01*
X129987500Y-102525000D01*
X129425000Y-102525000D01*
X129375000Y-102525000D01*
X128812500Y-102525000D01*
X128750000Y-102587500D01*
X126484897Y-102587500D01*
X126484897Y-102000272D01*
X128750000Y-102000272D01*
X128750000Y-102412500D01*
X128812500Y-102475000D01*
X129375000Y-102475000D01*
X129375000Y-101862500D01*
X129425000Y-101862500D01*
X129425000Y-102475000D01*
X129987500Y-102475000D01*
X130050000Y-102412500D01*
X130050000Y-102000272D01*
X130011940Y-101908386D01*
X129941614Y-101838060D01*
X129849728Y-101800000D01*
X129487500Y-101800000D01*
X129425000Y-101862500D01*
X129375000Y-101862500D01*
X129312500Y-101800000D01*
X128950272Y-101800000D01*
X128858386Y-101838060D01*
X128788060Y-101908386D01*
X128750000Y-102000272D01*
X126484897Y-102000272D01*
X126484897Y-100860000D01*
X126467465Y-100767356D01*
X126412712Y-100682268D01*
X126329169Y-100625185D01*
X126230000Y-100605103D01*
X124230000Y-100605103D01*
X124137356Y-100622535D01*
X124052268Y-100677288D01*
X123995185Y-100760831D01*
X123975103Y-100860000D01*
X123975103Y-101460000D01*
X123944897Y-101460000D01*
X123944897Y-100860000D01*
X123927465Y-100767356D01*
X123872712Y-100682268D01*
X123789169Y-100625185D01*
X123690000Y-100605103D01*
X123025000Y-100605103D01*
X123025000Y-100574897D01*
X123690000Y-100574897D01*
X123782644Y-100557465D01*
X123867732Y-100502712D01*
X123924815Y-100419169D01*
X123944897Y-100320000D01*
X123944897Y-99720000D01*
X123975103Y-99720000D01*
X123975103Y-100320000D01*
X123992535Y-100412644D01*
X124047288Y-100497732D01*
X124130831Y-100554815D01*
X124230000Y-100574897D01*
X126230000Y-100574897D01*
X126322644Y-100557465D01*
X126407732Y-100502712D01*
X126464815Y-100419169D01*
X126484897Y-100320000D01*
X126484897Y-99670000D01*
X126685026Y-99670000D01*
X128192513Y-101177487D01*
X128306061Y-101253358D01*
X128440000Y-101280000D01*
X130090000Y-101280000D01*
X130181700Y-101261760D01*
X130120096Y-101410118D01*
X130119905Y-101628922D01*
X130203461Y-101831143D01*
X130358043Y-101985995D01*
X130560118Y-102069904D01*
X130745103Y-102070065D01*
X130745103Y-102950000D01*
X130762535Y-103042644D01*
X130817288Y-103127732D01*
X130900831Y-103184815D01*
X131000000Y-103204897D01*
X131800000Y-103204897D01*
X131892644Y-103187465D01*
X131977732Y-103132712D01*
X132034815Y-103049169D01*
X132054897Y-102950000D01*
X132054897Y-102050000D01*
X132037465Y-101957356D01*
X131982712Y-101872268D01*
X131899169Y-101815185D01*
X131800000Y-101795103D01*
X131750000Y-101795103D01*
X131750000Y-101790000D01*
X131723358Y-101656061D01*
X131670223Y-101576539D01*
X131647488Y-101542513D01*
X131377487Y-101272513D01*
X131263939Y-101196642D01*
X131130000Y-101170000D01*
X131097750Y-101170000D01*
X130981957Y-101054005D01*
X130779882Y-100970096D01*
X130561078Y-100969905D01*
X130533797Y-100981177D01*
X130837488Y-100677487D01*
X130862147Y-100640582D01*
X130862535Y-100642644D01*
X130917288Y-100727732D01*
X131000831Y-100784815D01*
X131100000Y-100804897D01*
X131900000Y-100804897D01*
X131992644Y-100787465D01*
X132077732Y-100732712D01*
X132134247Y-100650000D01*
X132455026Y-100650000D01*
X133006129Y-101201103D01*
X133000000Y-101201103D01*
X132907356Y-101218535D01*
X132822268Y-101273288D01*
X132765185Y-101356831D01*
X132745103Y-101456000D01*
X132745103Y-102956000D01*
X132714000Y-102956000D01*
X132580061Y-102982642D01*
X132466513Y-103058512D01*
X131175026Y-104350000D01*
X131054897Y-104350000D01*
X131054897Y-104250000D01*
X131037465Y-104157356D01*
X130982712Y-104072268D01*
X130899169Y-104015185D01*
X130800000Y-103995103D01*
X130000000Y-103995103D01*
X129907356Y-104012535D01*
X129822268Y-104067288D01*
X129765185Y-104150831D01*
X129745103Y-104250000D01*
X129745103Y-105150000D01*
X129762535Y-105242644D01*
X129817288Y-105327732D01*
X129900831Y-105384815D01*
X130000000Y-105404897D01*
X130800000Y-105404897D01*
X130892644Y-105387465D01*
X130977732Y-105332712D01*
X131034815Y-105249169D01*
X131054897Y-105150000D01*
X131054897Y-105050000D01*
X131320000Y-105050000D01*
X131453939Y-105023358D01*
X131567487Y-104947487D01*
X132745103Y-103769872D01*
X132745103Y-105156000D01*
X132762535Y-105248644D01*
X132817288Y-105333732D01*
X132900831Y-105390815D01*
X133000000Y-105410897D01*
X134400000Y-105410897D01*
X134479964Y-105395851D01*
X134511094Y-105417121D01*
X134550000Y-105425000D01*
X136250000Y-105425000D01*
X136286346Y-105418161D01*
X136319727Y-105396681D01*
X136320951Y-105394889D01*
X136400000Y-105410897D01*
X137800000Y-105410897D01*
X137892644Y-105393465D01*
X137977732Y-105338712D01*
X138034815Y-105255169D01*
X138054897Y-105156000D01*
X138054897Y-103656000D01*
X139836026Y-103656000D01*
X140050000Y-103869975D01*
X140050000Y-103995103D01*
X140000000Y-103995103D01*
X139907356Y-104012535D01*
X139822268Y-104067288D01*
X139765185Y-104150831D01*
X139745103Y-104250000D01*
X139745103Y-105150000D01*
X139762535Y-105242644D01*
X139817288Y-105327732D01*
X139900831Y-105384815D01*
X140000000Y-105404897D01*
X140800000Y-105404897D01*
X140892644Y-105387465D01*
X140977732Y-105332712D01*
X141034815Y-105249169D01*
X141054897Y-105150000D01*
X141054897Y-104250000D01*
X141037465Y-104157356D01*
X140982712Y-104072268D01*
X140899169Y-104015185D01*
X140800000Y-103995103D01*
X140750000Y-103995103D01*
X140750000Y-103725000D01*
X140723358Y-103591061D01*
X140662434Y-103499882D01*
X140647487Y-103477512D01*
X140228487Y-103058513D01*
X140114939Y-102982642D01*
X140050868Y-102969897D01*
X140054897Y-102950000D01*
X140054897Y-102050000D01*
X140037465Y-101957356D01*
X139982712Y-101872268D01*
X139899169Y-101815185D01*
X139817117Y-101798569D01*
X140452840Y-101162845D01*
X140452843Y-101162843D01*
X140539552Y-101033073D01*
X140570000Y-100880000D01*
X140570000Y-99900000D01*
X140549135Y-99795103D01*
X140539552Y-99746926D01*
X140452843Y-99617157D01*
X140012843Y-99177157D01*
X139883074Y-99090448D01*
X139730000Y-99060000D01*
X139475685Y-99060000D01*
X139240000Y-98824314D01*
X139240000Y-98412500D01*
X139275000Y-98412500D01*
X139275000Y-98749728D01*
X139313060Y-98841614D01*
X139383386Y-98911940D01*
X139475272Y-98950000D01*
X139837500Y-98950000D01*
X139900000Y-98887500D01*
X139900000Y-98350000D01*
X139950000Y-98350000D01*
X139950000Y-98887500D01*
X140012500Y-98950000D01*
X140374728Y-98950000D01*
X140466614Y-98911940D01*
X140536940Y-98841614D01*
X140575000Y-98749728D01*
X140575000Y-98412500D01*
X140512500Y-98350000D01*
X139950000Y-98350000D01*
X139900000Y-98350000D01*
X139337500Y-98350000D01*
X139275000Y-98412500D01*
X139240000Y-98412500D01*
X139240000Y-97900272D01*
X139275000Y-97900272D01*
X139275000Y-98237500D01*
X139337500Y-98300000D01*
X139900000Y-98300000D01*
X139900000Y-97762500D01*
X139950000Y-97762500D01*
X139950000Y-98300000D01*
X140512500Y-98300000D01*
X140575000Y-98237500D01*
X140575000Y-97900272D01*
X140536940Y-97808386D01*
X140466614Y-97738060D01*
X140374728Y-97700000D01*
X140012500Y-97700000D01*
X139950000Y-97762500D01*
X139900000Y-97762500D01*
X139837500Y-97700000D01*
X139475272Y-97700000D01*
X139383386Y-97738060D01*
X139313060Y-97808386D01*
X139275000Y-97900272D01*
X139240000Y-97900272D01*
X139240000Y-97393039D01*
X139275000Y-97400001D01*
G36*
X135325000Y-98170000D02*
X135345000Y-98170000D01*
X135345000Y-98220000D01*
X135325000Y-98220000D01*
X135325000Y-98587500D01*
X135387500Y-98650000D01*
X135450000Y-98650000D01*
X135450000Y-99524725D01*
X135428857Y-99533461D01*
X135274005Y-99688043D01*
X135190096Y-99890118D01*
X135189905Y-100108922D01*
X135273461Y-100311143D01*
X135428043Y-100465995D01*
X135630118Y-100549904D01*
X135825022Y-100550074D01*
X135824905Y-100683922D01*
X135908461Y-100886143D01*
X136063043Y-101040995D01*
X136265118Y-101124904D01*
X136483922Y-101125095D01*
X136686143Y-101041539D01*
X136750000Y-100977793D01*
X136750000Y-101201103D01*
X136400000Y-101201103D01*
X136307356Y-101218535D01*
X136305886Y-101219481D01*
X136288906Y-101207879D01*
X136250000Y-101200000D01*
X134550000Y-101200000D01*
X134513654Y-101206839D01*
X134493229Y-101219982D01*
X134400000Y-101201103D01*
X133979954Y-101201103D01*
X133947487Y-101152513D01*
X132847487Y-100052513D01*
X132733939Y-99976642D01*
X132600000Y-99950000D01*
X132132732Y-99950000D01*
X132082712Y-99872268D01*
X131999169Y-99815185D01*
X131900000Y-99795103D01*
X131189872Y-99795103D01*
X131204975Y-99780000D01*
X134060000Y-99780000D01*
X134193939Y-99753358D01*
X134307487Y-99677487D01*
X134982487Y-99002487D01*
X135058358Y-98888940D01*
X135077512Y-98792644D01*
X135085000Y-98755000D01*
X135085000Y-98639532D01*
X135110272Y-98650000D01*
X135212500Y-98650000D01*
X135275000Y-98587500D01*
X135275000Y-98220000D01*
X135255000Y-98220000D01*
X135255000Y-98170000D01*
X135275000Y-98170000D01*
X135275000Y-98150000D01*
X135325000Y-98150000D01*
X135325000Y-98170000D01*
X135325000Y-98170000D01*
G37*
X135325000Y-98170000D02*
X135345000Y-98170000D01*
X135345000Y-98220000D01*
X135325000Y-98220000D01*
X135325000Y-98587500D01*
X135387500Y-98650000D01*
X135450000Y-98650000D01*
X135450000Y-99524725D01*
X135428857Y-99533461D01*
X135274005Y-99688043D01*
X135190096Y-99890118D01*
X135189905Y-100108922D01*
X135273461Y-100311143D01*
X135428043Y-100465995D01*
X135630118Y-100549904D01*
X135825022Y-100550074D01*
X135824905Y-100683922D01*
X135908461Y-100886143D01*
X136063043Y-101040995D01*
X136265118Y-101124904D01*
X136483922Y-101125095D01*
X136686143Y-101041539D01*
X136750000Y-100977793D01*
X136750000Y-101201103D01*
X136400000Y-101201103D01*
X136307356Y-101218535D01*
X136305886Y-101219481D01*
X136288906Y-101207879D01*
X136250000Y-101200000D01*
X134550000Y-101200000D01*
X134513654Y-101206839D01*
X134493229Y-101219982D01*
X134400000Y-101201103D01*
X133979954Y-101201103D01*
X133947487Y-101152513D01*
X132847487Y-100052513D01*
X132733939Y-99976642D01*
X132600000Y-99950000D01*
X132132732Y-99950000D01*
X132082712Y-99872268D01*
X131999169Y-99815185D01*
X131900000Y-99795103D01*
X131189872Y-99795103D01*
X131204975Y-99780000D01*
X134060000Y-99780000D01*
X134193939Y-99753358D01*
X134307487Y-99677487D01*
X134982487Y-99002487D01*
X135058358Y-98888940D01*
X135077512Y-98792644D01*
X135085000Y-98755000D01*
X135085000Y-98639532D01*
X135110272Y-98650000D01*
X135212500Y-98650000D01*
X135275000Y-98587500D01*
X135275000Y-98220000D01*
X135255000Y-98220000D01*
X135255000Y-98170000D01*
X135275000Y-98170000D01*
X135275000Y-98150000D01*
X135325000Y-98150000D01*
X135325000Y-98170000D01*
G36*
X126472268Y-84467288D02*
X126415185Y-84550831D01*
X126395103Y-84650000D01*
X126395103Y-86150000D01*
X126412535Y-86242644D01*
X126467288Y-86327732D01*
X126550831Y-86384815D01*
X126650000Y-86404897D01*
X128350000Y-86404897D01*
X128415806Y-86392515D01*
X128399103Y-86475000D01*
X128399103Y-87425000D01*
X128416535Y-87517644D01*
X128471288Y-87602732D01*
X128554831Y-87659815D01*
X128654000Y-87679897D01*
X128896510Y-87679897D01*
X128826642Y-87784461D01*
X128800000Y-87918400D01*
X128800000Y-88499878D01*
X128765185Y-88550831D01*
X128745103Y-88650000D01*
X128745103Y-89950000D01*
X128762535Y-90042644D01*
X128800000Y-90100866D01*
X128800000Y-90300000D01*
X128821880Y-90410000D01*
X128826642Y-90433939D01*
X128902513Y-90547487D01*
X129050000Y-90694975D01*
X129050000Y-90755025D01*
X128856513Y-90948513D01*
X128780642Y-91062061D01*
X128759927Y-91166204D01*
X128719185Y-91225831D01*
X128699103Y-91325000D01*
X128699103Y-92275000D01*
X128704000Y-92301026D01*
X128704000Y-93999054D01*
X128632356Y-94012535D01*
X128547268Y-94067288D01*
X128490185Y-94150831D01*
X128470103Y-94250000D01*
X128470103Y-95050000D01*
X128487535Y-95142644D01*
X128542288Y-95227732D01*
X128625831Y-95284815D01*
X128725000Y-95304897D01*
X129475000Y-95304897D01*
X129567644Y-95287465D01*
X129652732Y-95232712D01*
X129709815Y-95149169D01*
X129729897Y-95050000D01*
X129729897Y-94250000D01*
X129712465Y-94157356D01*
X129657712Y-94072268D01*
X129574169Y-94015185D01*
X129504000Y-94000976D01*
X129504000Y-92519772D01*
X129554000Y-92529897D01*
X129854000Y-92529897D01*
X129946644Y-92512465D01*
X130002177Y-92476731D01*
X130012386Y-92486940D01*
X130104272Y-92525000D01*
X130216500Y-92525000D01*
X130279000Y-92462500D01*
X130279000Y-91825000D01*
X130329000Y-91825000D01*
X130329000Y-92462500D01*
X130391500Y-92525000D01*
X130503728Y-92525000D01*
X130595614Y-92486940D01*
X130604000Y-92478554D01*
X130612386Y-92486940D01*
X130704272Y-92525000D01*
X130816500Y-92525000D01*
X130879000Y-92462500D01*
X130879000Y-91825000D01*
X130329000Y-91825000D01*
X130279000Y-91825000D01*
X130259000Y-91825000D01*
X130259000Y-91775000D01*
X130279000Y-91775000D01*
X130279000Y-91137500D01*
X130216500Y-91075000D01*
X130104272Y-91075000D01*
X130034120Y-91104057D01*
X130027358Y-91070061D01*
X129951487Y-90956513D01*
X129750000Y-90755026D01*
X129750000Y-90550000D01*
X129723358Y-90416061D01*
X129723358Y-90416060D01*
X129647487Y-90302512D01*
X129544975Y-90200000D01*
X129562500Y-90200000D01*
X129625000Y-90137500D01*
X129625000Y-89325000D01*
X129675000Y-89325000D01*
X129675000Y-90137500D01*
X129737500Y-90200000D01*
X129849728Y-90200000D01*
X129900000Y-90179177D01*
X129950272Y-90200000D01*
X130062500Y-90200000D01*
X130125000Y-90137500D01*
X130125000Y-89325000D01*
X129675000Y-89325000D01*
X129625000Y-89325000D01*
X129605000Y-89325000D01*
X129605000Y-89275000D01*
X129625000Y-89275000D01*
X129625000Y-88462500D01*
X129675000Y-88462500D01*
X129675000Y-89275000D01*
X130125000Y-89275000D01*
X130125000Y-88462500D01*
X130062500Y-88400000D01*
X129950272Y-88400000D01*
X129900000Y-88420823D01*
X129849728Y-88400000D01*
X129737500Y-88400000D01*
X129675000Y-88462500D01*
X129625000Y-88462500D01*
X129562500Y-88400000D01*
X129500000Y-88400000D01*
X129500000Y-88063374D01*
X129651487Y-87911888D01*
X129727358Y-87798340D01*
X129733663Y-87766642D01*
X129754000Y-87664400D01*
X129754000Y-87654177D01*
X129804272Y-87675000D01*
X129916500Y-87675000D01*
X129979000Y-87612500D01*
X129979000Y-86975000D01*
X130029000Y-86975000D01*
X130029000Y-87612500D01*
X130091500Y-87675000D01*
X130203728Y-87675000D01*
X130295614Y-87636940D01*
X130304000Y-87628554D01*
X130312386Y-87636940D01*
X130404272Y-87675000D01*
X130516500Y-87675000D01*
X130579000Y-87612500D01*
X130579000Y-86975000D01*
X130029000Y-86975000D01*
X129979000Y-86975000D01*
X129959000Y-86975000D01*
X129959000Y-86925000D01*
X129979000Y-86925000D01*
X129979000Y-86287500D01*
X130029000Y-86287500D01*
X130029000Y-86925000D01*
X130579000Y-86925000D01*
X130579000Y-86287500D01*
X130516500Y-86225000D01*
X130404272Y-86225000D01*
X130312386Y-86263060D01*
X130304000Y-86271446D01*
X130295614Y-86263060D01*
X130203728Y-86225000D01*
X130091500Y-86225000D01*
X130029000Y-86287500D01*
X129979000Y-86287500D01*
X129916500Y-86225000D01*
X129804272Y-86225000D01*
X129712386Y-86263060D01*
X129701938Y-86273508D01*
X129653169Y-86240185D01*
X129554000Y-86220103D01*
X129254000Y-86220103D01*
X129161356Y-86237535D01*
X129103643Y-86274673D01*
X129053169Y-86240185D01*
X128954000Y-86220103D01*
X128654000Y-86220103D01*
X128588194Y-86232485D01*
X128604897Y-86150000D01*
X128604897Y-84650000D01*
X128587465Y-84557356D01*
X128532712Y-84472268D01*
X128463534Y-84425000D01*
X142337985Y-84425000D01*
X142272268Y-84467288D01*
X142215185Y-84550831D01*
X142195103Y-84650000D01*
X142195103Y-86150000D01*
X142210444Y-86231533D01*
X142154000Y-86220103D01*
X141854000Y-86220103D01*
X141761356Y-86237535D01*
X141703643Y-86274673D01*
X141653169Y-86240185D01*
X141554000Y-86220103D01*
X141254000Y-86220103D01*
X141161356Y-86237535D01*
X141103643Y-86274673D01*
X141053169Y-86240185D01*
X140954000Y-86220103D01*
X140654000Y-86220103D01*
X140561356Y-86237535D01*
X140503643Y-86274673D01*
X140453169Y-86240185D01*
X140354000Y-86220103D01*
X140054000Y-86220103D01*
X139961356Y-86237535D01*
X139903643Y-86274673D01*
X139853169Y-86240185D01*
X139754000Y-86220103D01*
X139454000Y-86220103D01*
X139361356Y-86237535D01*
X139303643Y-86274673D01*
X139253169Y-86240185D01*
X139154000Y-86220103D01*
X138854000Y-86220103D01*
X138761356Y-86237535D01*
X138705823Y-86273269D01*
X138695614Y-86263060D01*
X138603728Y-86225000D01*
X138491500Y-86225000D01*
X138429000Y-86287500D01*
X138429000Y-86925000D01*
X138449000Y-86925000D01*
X138449000Y-86975000D01*
X138429000Y-86975000D01*
X138429000Y-87612500D01*
X138491500Y-87675000D01*
X138572114Y-87675000D01*
X138534005Y-87713043D01*
X138491619Y-87815121D01*
X138432843Y-87727157D01*
X138348593Y-87642907D01*
X138379000Y-87612500D01*
X138379000Y-86975000D01*
X138359000Y-86975000D01*
X138359000Y-86925000D01*
X138379000Y-86925000D01*
X138379000Y-86287500D01*
X138316500Y-86225000D01*
X138204272Y-86225000D01*
X138204000Y-86225113D01*
X138204000Y-85724000D01*
X138173552Y-85570927D01*
X138086843Y-85441157D01*
X137312843Y-84667157D01*
X137183074Y-84580448D01*
X137030000Y-84550000D01*
X133450000Y-84550000D01*
X133296927Y-84580448D01*
X133167157Y-84667157D01*
X133167155Y-84667160D01*
X132323004Y-85511310D01*
X132276539Y-85398857D01*
X132121957Y-85244005D01*
X131919882Y-85160096D01*
X131701078Y-85159905D01*
X131498857Y-85243461D01*
X131344005Y-85398043D01*
X131260096Y-85600118D01*
X131259905Y-85818922D01*
X131343461Y-86021143D01*
X131404000Y-86081788D01*
X131404000Y-86230228D01*
X131354000Y-86220103D01*
X131054000Y-86220103D01*
X130961356Y-86237535D01*
X130905823Y-86273269D01*
X130895614Y-86263060D01*
X130803728Y-86225000D01*
X130691500Y-86225000D01*
X130629000Y-86287500D01*
X130629000Y-86925000D01*
X130649000Y-86925000D01*
X130649000Y-86975000D01*
X130629000Y-86975000D01*
X130629000Y-87612500D01*
X130691500Y-87675000D01*
X130752917Y-87675000D01*
X130367157Y-88060759D01*
X130280448Y-88190528D01*
X130258664Y-88300047D01*
X130250000Y-88343602D01*
X130250000Y-88400000D01*
X130237500Y-88400000D01*
X130175000Y-88462500D01*
X130175000Y-89275000D01*
X130195000Y-89275000D01*
X130195000Y-89325000D01*
X130175000Y-89325000D01*
X130175000Y-90137500D01*
X130237500Y-90200000D01*
X130250000Y-90200000D01*
X130250000Y-90356398D01*
X130280448Y-90509472D01*
X130367157Y-90639241D01*
X130802917Y-91075000D01*
X130704272Y-91075000D01*
X130612386Y-91113060D01*
X130604000Y-91121446D01*
X130595614Y-91113060D01*
X130503728Y-91075000D01*
X130391500Y-91075000D01*
X130329000Y-91137500D01*
X130329000Y-91775000D01*
X130879000Y-91775000D01*
X130879000Y-91755000D01*
X130929000Y-91755000D01*
X130929000Y-91775000D01*
X130949000Y-91775000D01*
X130949000Y-91825000D01*
X130929000Y-91825000D01*
X130929000Y-92462500D01*
X130991500Y-92525000D01*
X131103728Y-92525000D01*
X131104000Y-92524887D01*
X131104000Y-92590315D01*
X131011870Y-92682445D01*
X130909882Y-92640096D01*
X130691078Y-92639905D01*
X130488857Y-92723461D01*
X130334005Y-92878043D01*
X130250096Y-93080118D01*
X130249905Y-93298922D01*
X130333461Y-93501143D01*
X130488043Y-93655995D01*
X130690118Y-93739904D01*
X130900000Y-93740087D01*
X130900000Y-93999807D01*
X130832356Y-94012535D01*
X130747268Y-94067288D01*
X130690185Y-94150831D01*
X130670103Y-94250000D01*
X130670103Y-95050000D01*
X130687535Y-95142644D01*
X130742288Y-95227732D01*
X130825831Y-95284815D01*
X130925000Y-95304897D01*
X131675000Y-95304897D01*
X131767644Y-95287465D01*
X131852732Y-95232712D01*
X131909815Y-95149169D01*
X131929897Y-95050000D01*
X131929897Y-94250000D01*
X131912465Y-94157356D01*
X131857712Y-94072268D01*
X131774169Y-94015185D01*
X131700000Y-94000166D01*
X131700000Y-93865686D01*
X132386843Y-93178843D01*
X132473552Y-93049074D01*
X132504001Y-92896000D01*
X132504000Y-92895995D01*
X132504000Y-92519772D01*
X132554000Y-92529897D01*
X132854000Y-92529897D01*
X132946644Y-92512465D01*
X133004357Y-92475327D01*
X133054831Y-92509815D01*
X133154000Y-92529897D01*
X133454000Y-92529897D01*
X133546644Y-92512465D01*
X133604357Y-92475327D01*
X133654831Y-92509815D01*
X133754000Y-92529897D01*
X134054000Y-92529897D01*
X134146644Y-92512465D01*
X134204357Y-92475327D01*
X134254831Y-92509815D01*
X134354000Y-92529897D01*
X134654000Y-92529897D01*
X134746644Y-92512465D01*
X134804357Y-92475327D01*
X134854831Y-92509815D01*
X134954000Y-92529897D01*
X135254000Y-92529897D01*
X135346644Y-92512465D01*
X135404357Y-92475327D01*
X135454831Y-92509815D01*
X135554000Y-92529897D01*
X135854000Y-92529897D01*
X135946644Y-92512465D01*
X136004357Y-92475327D01*
X136054831Y-92509815D01*
X136154000Y-92529897D01*
X136454000Y-92529897D01*
X136504000Y-92520489D01*
X136504000Y-92610741D01*
X136450000Y-92600000D01*
X134100000Y-92600000D01*
X133946926Y-92630448D01*
X133817157Y-92717157D01*
X133484328Y-93049986D01*
X133391078Y-93049905D01*
X133188857Y-93133461D01*
X133034005Y-93288043D01*
X132950096Y-93490118D01*
X132949905Y-93708922D01*
X133033461Y-93911143D01*
X133188043Y-94065995D01*
X133390118Y-94149904D01*
X133608922Y-94150095D01*
X133811143Y-94066539D01*
X133965995Y-93911957D01*
X133970847Y-93900272D01*
X134550000Y-93900272D01*
X134550000Y-94237500D01*
X134612500Y-94300000D01*
X135175000Y-94300000D01*
X135175000Y-93762500D01*
X135225000Y-93762500D01*
X135225000Y-94300000D01*
X135787500Y-94300000D01*
X135850000Y-94237500D01*
X135850000Y-93900272D01*
X135811940Y-93808386D01*
X135741614Y-93738060D01*
X135649728Y-93700000D01*
X135287500Y-93700000D01*
X135225000Y-93762500D01*
X135175000Y-93762500D01*
X135112500Y-93700000D01*
X134750272Y-93700000D01*
X134658386Y-93738060D01*
X134588060Y-93808386D01*
X134550000Y-93900272D01*
X133970847Y-93900272D01*
X134049904Y-93709882D01*
X134049986Y-93615700D01*
X134265686Y-93400000D01*
X136284314Y-93400000D01*
X136300000Y-93415685D01*
X136300000Y-93695103D01*
X136207356Y-93712535D01*
X136122268Y-93767288D01*
X136065185Y-93850831D01*
X136045103Y-93950000D01*
X136045103Y-94610000D01*
X135850000Y-94610000D01*
X135850000Y-94412500D01*
X135787500Y-94350000D01*
X135225000Y-94350000D01*
X135225000Y-94370000D01*
X135175000Y-94370000D01*
X135175000Y-94350000D01*
X134612500Y-94350000D01*
X134550000Y-94412500D01*
X134550000Y-94610000D01*
X133165000Y-94610000D01*
X133011926Y-94640448D01*
X132882157Y-94727157D01*
X132217157Y-95392157D01*
X132130448Y-95521926D01*
X132118397Y-95582513D01*
X132100000Y-95675000D01*
X132100000Y-96334314D01*
X131925000Y-96509314D01*
X131925000Y-96237500D01*
X131862500Y-96175000D01*
X131325000Y-96175000D01*
X131325000Y-96195000D01*
X131275000Y-96195000D01*
X131275000Y-96175000D01*
X130737500Y-96175000D01*
X130675000Y-96237500D01*
X130675000Y-96599728D01*
X130713060Y-96691614D01*
X130731446Y-96710000D01*
X129960005Y-96710000D01*
X129960000Y-96709999D01*
X129809179Y-96740000D01*
X129806927Y-96740448D01*
X129677157Y-96827157D01*
X129677155Y-96827160D01*
X129267157Y-97237157D01*
X129180448Y-97366926D01*
X129165859Y-97440272D01*
X129150000Y-97520000D01*
X129150000Y-97670103D01*
X129057356Y-97687535D01*
X128972268Y-97742288D01*
X128915185Y-97825831D01*
X128895103Y-97925000D01*
X128895103Y-98675000D01*
X128912535Y-98767644D01*
X128967288Y-98852732D01*
X129050831Y-98909815D01*
X129150000Y-98929897D01*
X129150000Y-99795103D01*
X129100000Y-99795103D01*
X129007356Y-99812535D01*
X128922268Y-99867288D01*
X128865185Y-99950831D01*
X128845103Y-100050000D01*
X128845103Y-100550000D01*
X128850748Y-100580000D01*
X128584974Y-100580000D01*
X127077487Y-99072513D01*
X126963939Y-98996642D01*
X126830000Y-98970000D01*
X126484897Y-98970000D01*
X126484897Y-98320000D01*
X126467465Y-98227356D01*
X126412712Y-98142268D01*
X126329169Y-98085185D01*
X126230000Y-98065103D01*
X124230000Y-98065103D01*
X124137356Y-98082535D01*
X124052268Y-98137288D01*
X123995185Y-98220831D01*
X123975103Y-98320000D01*
X123975103Y-98920000D01*
X123944897Y-98920000D01*
X123944897Y-98320000D01*
X123927465Y-98227356D01*
X123872712Y-98142268D01*
X123789169Y-98085185D01*
X123690000Y-98065103D01*
X123025000Y-98065103D01*
X123025000Y-98034897D01*
X123690000Y-98034897D01*
X123782644Y-98017465D01*
X123867732Y-97962712D01*
X123924815Y-97879169D01*
X123944897Y-97780000D01*
X123944897Y-95780000D01*
X123975103Y-95780000D01*
X123975103Y-97780000D01*
X123992535Y-97872644D01*
X124047288Y-97957732D01*
X124130831Y-98014815D01*
X124230000Y-98034897D01*
X126230000Y-98034897D01*
X126322644Y-98017465D01*
X126407732Y-97962712D01*
X126464815Y-97879169D01*
X126484897Y-97780000D01*
X126484897Y-96237500D01*
X128475000Y-96237500D01*
X128475000Y-96599728D01*
X128513060Y-96691614D01*
X128583386Y-96761940D01*
X128675272Y-96800000D01*
X129012500Y-96800000D01*
X129075000Y-96737500D01*
X129075000Y-96175000D01*
X129125000Y-96175000D01*
X129125000Y-96737500D01*
X129187500Y-96800000D01*
X129524728Y-96800000D01*
X129616614Y-96761940D01*
X129686940Y-96691614D01*
X129725000Y-96599728D01*
X129725000Y-96237500D01*
X129662500Y-96175000D01*
X129125000Y-96175000D01*
X129075000Y-96175000D01*
X128537500Y-96175000D01*
X128475000Y-96237500D01*
X126484897Y-96237500D01*
X126484897Y-95780000D01*
X126469896Y-95700272D01*
X128475000Y-95700272D01*
X128475000Y-96062500D01*
X128537500Y-96125000D01*
X129075000Y-96125000D01*
X129075000Y-95562500D01*
X129125000Y-95562500D01*
X129125000Y-96125000D01*
X129662500Y-96125000D01*
X129725000Y-96062500D01*
X129725000Y-95700272D01*
X130675000Y-95700272D01*
X130675000Y-96062500D01*
X130737500Y-96125000D01*
X131275000Y-96125000D01*
X131275000Y-95562500D01*
X131325000Y-95562500D01*
X131325000Y-96125000D01*
X131862500Y-96125000D01*
X131925000Y-96062500D01*
X131925000Y-95700272D01*
X131886940Y-95608386D01*
X131816614Y-95538060D01*
X131724728Y-95500000D01*
X131387500Y-95500000D01*
X131325000Y-95562500D01*
X131275000Y-95562500D01*
X131212500Y-95500000D01*
X130875272Y-95500000D01*
X130783386Y-95538060D01*
X130713060Y-95608386D01*
X130675000Y-95700272D01*
X129725000Y-95700272D01*
X129686940Y-95608386D01*
X129616614Y-95538060D01*
X129524728Y-95500000D01*
X129187500Y-95500000D01*
X129125000Y-95562500D01*
X129075000Y-95562500D01*
X129012500Y-95500000D01*
X128675272Y-95500000D01*
X128583386Y-95538060D01*
X128513060Y-95608386D01*
X128475000Y-95700272D01*
X126469896Y-95700272D01*
X126467465Y-95687356D01*
X126412712Y-95602268D01*
X126329169Y-95545185D01*
X126230000Y-95525103D01*
X124230000Y-95525103D01*
X124137356Y-95542535D01*
X124052268Y-95597288D01*
X123995185Y-95680831D01*
X123975103Y-95780000D01*
X123944897Y-95780000D01*
X123927465Y-95687356D01*
X123872712Y-95602268D01*
X123789169Y-95545185D01*
X123690000Y-95525103D01*
X123025000Y-95525103D01*
X123025000Y-95490000D01*
X123739728Y-95490000D01*
X123831614Y-95451940D01*
X123901940Y-95381614D01*
X123940000Y-95289728D01*
X123940000Y-94327500D01*
X123980000Y-94327500D01*
X123980000Y-95289728D01*
X124018060Y-95381614D01*
X124088386Y-95451940D01*
X124180272Y-95490000D01*
X125142500Y-95490000D01*
X125205000Y-95427500D01*
X125205000Y-94265000D01*
X125255000Y-94265000D01*
X125255000Y-95427500D01*
X125317500Y-95490000D01*
X126279728Y-95490000D01*
X126371614Y-95451940D01*
X126441940Y-95381614D01*
X126480000Y-95289728D01*
X126480000Y-94327500D01*
X126417500Y-94265000D01*
X125255000Y-94265000D01*
X125205000Y-94265000D01*
X124042500Y-94265000D01*
X123980000Y-94327500D01*
X123940000Y-94327500D01*
X123877500Y-94265000D01*
X123025000Y-94265000D01*
X123025000Y-94215000D01*
X123877500Y-94215000D01*
X123940000Y-94152500D01*
X123940000Y-93190272D01*
X123980000Y-93190272D01*
X123980000Y-94152500D01*
X124042500Y-94215000D01*
X125205000Y-94215000D01*
X125205000Y-93052500D01*
X125255000Y-93052500D01*
X125255000Y-94215000D01*
X126417500Y-94215000D01*
X126480000Y-94152500D01*
X126480000Y-93190272D01*
X126441940Y-93098386D01*
X126371614Y-93028060D01*
X126279728Y-92990000D01*
X125317500Y-92990000D01*
X125255000Y-93052500D01*
X125205000Y-93052500D01*
X125142500Y-92990000D01*
X124180272Y-92990000D01*
X124088386Y-93028060D01*
X124018060Y-93098386D01*
X123980000Y-93190272D01*
X123940000Y-93190272D01*
X123901940Y-93098386D01*
X123831614Y-93028060D01*
X123739728Y-92990000D01*
X123025000Y-92990000D01*
X123025000Y-92954897D01*
X123690000Y-92954897D01*
X123782644Y-92937465D01*
X123867732Y-92882712D01*
X123924815Y-92799169D01*
X123944897Y-92700000D01*
X123944897Y-92100000D01*
X123975103Y-92100000D01*
X123975103Y-92700000D01*
X123992535Y-92792644D01*
X124047288Y-92877732D01*
X124130831Y-92934815D01*
X124230000Y-92954897D01*
X126230000Y-92954897D01*
X126322644Y-92937465D01*
X126407732Y-92882712D01*
X126464815Y-92799169D01*
X126484897Y-92700000D01*
X126484897Y-90700000D01*
X126467465Y-90607356D01*
X126412712Y-90522268D01*
X126329169Y-90465185D01*
X126230000Y-90445103D01*
X124230000Y-90445103D01*
X124137356Y-90462535D01*
X124052268Y-90517288D01*
X123995185Y-90600831D01*
X123975103Y-90700000D01*
X123975103Y-91300000D01*
X123944897Y-91300000D01*
X123944897Y-90700000D01*
X123927465Y-90607356D01*
X123872712Y-90522268D01*
X123789169Y-90465185D01*
X123690000Y-90445103D01*
X123025000Y-90445103D01*
X123025000Y-84425000D01*
X126537985Y-84425000D01*
X126472268Y-84467288D01*
X126472268Y-84467288D01*
G37*
X126472268Y-84467288D02*
X126415185Y-84550831D01*
X126395103Y-84650000D01*
X126395103Y-86150000D01*
X126412535Y-86242644D01*
X126467288Y-86327732D01*
X126550831Y-86384815D01*
X126650000Y-86404897D01*
X128350000Y-86404897D01*
X128415806Y-86392515D01*
X128399103Y-86475000D01*
X128399103Y-87425000D01*
X128416535Y-87517644D01*
X128471288Y-87602732D01*
X128554831Y-87659815D01*
X128654000Y-87679897D01*
X128896510Y-87679897D01*
X128826642Y-87784461D01*
X128800000Y-87918400D01*
X128800000Y-88499878D01*
X128765185Y-88550831D01*
X128745103Y-88650000D01*
X128745103Y-89950000D01*
X128762535Y-90042644D01*
X128800000Y-90100866D01*
X128800000Y-90300000D01*
X128821880Y-90410000D01*
X128826642Y-90433939D01*
X128902513Y-90547487D01*
X129050000Y-90694975D01*
X129050000Y-90755025D01*
X128856513Y-90948513D01*
X128780642Y-91062061D01*
X128759927Y-91166204D01*
X128719185Y-91225831D01*
X128699103Y-91325000D01*
X128699103Y-92275000D01*
X128704000Y-92301026D01*
X128704000Y-93999054D01*
X128632356Y-94012535D01*
X128547268Y-94067288D01*
X128490185Y-94150831D01*
X128470103Y-94250000D01*
X128470103Y-95050000D01*
X128487535Y-95142644D01*
X128542288Y-95227732D01*
X128625831Y-95284815D01*
X128725000Y-95304897D01*
X129475000Y-95304897D01*
X129567644Y-95287465D01*
X129652732Y-95232712D01*
X129709815Y-95149169D01*
X129729897Y-95050000D01*
X129729897Y-94250000D01*
X129712465Y-94157356D01*
X129657712Y-94072268D01*
X129574169Y-94015185D01*
X129504000Y-94000976D01*
X129504000Y-92519772D01*
X129554000Y-92529897D01*
X129854000Y-92529897D01*
X129946644Y-92512465D01*
X130002177Y-92476731D01*
X130012386Y-92486940D01*
X130104272Y-92525000D01*
X130216500Y-92525000D01*
X130279000Y-92462500D01*
X130279000Y-91825000D01*
X130329000Y-91825000D01*
X130329000Y-92462500D01*
X130391500Y-92525000D01*
X130503728Y-92525000D01*
X130595614Y-92486940D01*
X130604000Y-92478554D01*
X130612386Y-92486940D01*
X130704272Y-92525000D01*
X130816500Y-92525000D01*
X130879000Y-92462500D01*
X130879000Y-91825000D01*
X130329000Y-91825000D01*
X130279000Y-91825000D01*
X130259000Y-91825000D01*
X130259000Y-91775000D01*
X130279000Y-91775000D01*
X130279000Y-91137500D01*
X130216500Y-91075000D01*
X130104272Y-91075000D01*
X130034120Y-91104057D01*
X130027358Y-91070061D01*
X129951487Y-90956513D01*
X129750000Y-90755026D01*
X129750000Y-90550000D01*
X129723358Y-90416061D01*
X129723358Y-90416060D01*
X129647487Y-90302512D01*
X129544975Y-90200000D01*
X129562500Y-90200000D01*
X129625000Y-90137500D01*
X129625000Y-89325000D01*
X129675000Y-89325000D01*
X129675000Y-90137500D01*
X129737500Y-90200000D01*
X129849728Y-90200000D01*
X129900000Y-90179177D01*
X129950272Y-90200000D01*
X130062500Y-90200000D01*
X130125000Y-90137500D01*
X130125000Y-89325000D01*
X129675000Y-89325000D01*
X129625000Y-89325000D01*
X129605000Y-89325000D01*
X129605000Y-89275000D01*
X129625000Y-89275000D01*
X129625000Y-88462500D01*
X129675000Y-88462500D01*
X129675000Y-89275000D01*
X130125000Y-89275000D01*
X130125000Y-88462500D01*
X130062500Y-88400000D01*
X129950272Y-88400000D01*
X129900000Y-88420823D01*
X129849728Y-88400000D01*
X129737500Y-88400000D01*
X129675000Y-88462500D01*
X129625000Y-88462500D01*
X129562500Y-88400000D01*
X129500000Y-88400000D01*
X129500000Y-88063374D01*
X129651487Y-87911888D01*
X129727358Y-87798340D01*
X129733663Y-87766642D01*
X129754000Y-87664400D01*
X129754000Y-87654177D01*
X129804272Y-87675000D01*
X129916500Y-87675000D01*
X129979000Y-87612500D01*
X129979000Y-86975000D01*
X130029000Y-86975000D01*
X130029000Y-87612500D01*
X130091500Y-87675000D01*
X130203728Y-87675000D01*
X130295614Y-87636940D01*
X130304000Y-87628554D01*
X130312386Y-87636940D01*
X130404272Y-87675000D01*
X130516500Y-87675000D01*
X130579000Y-87612500D01*
X130579000Y-86975000D01*
X130029000Y-86975000D01*
X129979000Y-86975000D01*
X129959000Y-86975000D01*
X129959000Y-86925000D01*
X129979000Y-86925000D01*
X129979000Y-86287500D01*
X130029000Y-86287500D01*
X130029000Y-86925000D01*
X130579000Y-86925000D01*
X130579000Y-86287500D01*
X130516500Y-86225000D01*
X130404272Y-86225000D01*
X130312386Y-86263060D01*
X130304000Y-86271446D01*
X130295614Y-86263060D01*
X130203728Y-86225000D01*
X130091500Y-86225000D01*
X130029000Y-86287500D01*
X129979000Y-86287500D01*
X129916500Y-86225000D01*
X129804272Y-86225000D01*
X129712386Y-86263060D01*
X129701938Y-86273508D01*
X129653169Y-86240185D01*
X129554000Y-86220103D01*
X129254000Y-86220103D01*
X129161356Y-86237535D01*
X129103643Y-86274673D01*
X129053169Y-86240185D01*
X128954000Y-86220103D01*
X128654000Y-86220103D01*
X128588194Y-86232485D01*
X128604897Y-86150000D01*
X128604897Y-84650000D01*
X128587465Y-84557356D01*
X128532712Y-84472268D01*
X128463534Y-84425000D01*
X142337985Y-84425000D01*
X142272268Y-84467288D01*
X142215185Y-84550831D01*
X142195103Y-84650000D01*
X142195103Y-86150000D01*
X142210444Y-86231533D01*
X142154000Y-86220103D01*
X141854000Y-86220103D01*
X141761356Y-86237535D01*
X141703643Y-86274673D01*
X141653169Y-86240185D01*
X141554000Y-86220103D01*
X141254000Y-86220103D01*
X141161356Y-86237535D01*
X141103643Y-86274673D01*
X141053169Y-86240185D01*
X140954000Y-86220103D01*
X140654000Y-86220103D01*
X140561356Y-86237535D01*
X140503643Y-86274673D01*
X140453169Y-86240185D01*
X140354000Y-86220103D01*
X140054000Y-86220103D01*
X139961356Y-86237535D01*
X139903643Y-86274673D01*
X139853169Y-86240185D01*
X139754000Y-86220103D01*
X139454000Y-86220103D01*
X139361356Y-86237535D01*
X139303643Y-86274673D01*
X139253169Y-86240185D01*
X139154000Y-86220103D01*
X138854000Y-86220103D01*
X138761356Y-86237535D01*
X138705823Y-86273269D01*
X138695614Y-86263060D01*
X138603728Y-86225000D01*
X138491500Y-86225000D01*
X138429000Y-86287500D01*
X138429000Y-86925000D01*
X138449000Y-86925000D01*
X138449000Y-86975000D01*
X138429000Y-86975000D01*
X138429000Y-87612500D01*
X138491500Y-87675000D01*
X138572114Y-87675000D01*
X138534005Y-87713043D01*
X138491619Y-87815121D01*
X138432843Y-87727157D01*
X138348593Y-87642907D01*
X138379000Y-87612500D01*
X138379000Y-86975000D01*
X138359000Y-86975000D01*
X138359000Y-86925000D01*
X138379000Y-86925000D01*
X138379000Y-86287500D01*
X138316500Y-86225000D01*
X138204272Y-86225000D01*
X138204000Y-86225113D01*
X138204000Y-85724000D01*
X138173552Y-85570927D01*
X138086843Y-85441157D01*
X137312843Y-84667157D01*
X137183074Y-84580448D01*
X137030000Y-84550000D01*
X133450000Y-84550000D01*
X133296927Y-84580448D01*
X133167157Y-84667157D01*
X133167155Y-84667160D01*
X132323004Y-85511310D01*
X132276539Y-85398857D01*
X132121957Y-85244005D01*
X131919882Y-85160096D01*
X131701078Y-85159905D01*
X131498857Y-85243461D01*
X131344005Y-85398043D01*
X131260096Y-85600118D01*
X131259905Y-85818922D01*
X131343461Y-86021143D01*
X131404000Y-86081788D01*
X131404000Y-86230228D01*
X131354000Y-86220103D01*
X131054000Y-86220103D01*
X130961356Y-86237535D01*
X130905823Y-86273269D01*
X130895614Y-86263060D01*
X130803728Y-86225000D01*
X130691500Y-86225000D01*
X130629000Y-86287500D01*
X130629000Y-86925000D01*
X130649000Y-86925000D01*
X130649000Y-86975000D01*
X130629000Y-86975000D01*
X130629000Y-87612500D01*
X130691500Y-87675000D01*
X130752917Y-87675000D01*
X130367157Y-88060759D01*
X130280448Y-88190528D01*
X130258664Y-88300047D01*
X130250000Y-88343602D01*
X130250000Y-88400000D01*
X130237500Y-88400000D01*
X130175000Y-88462500D01*
X130175000Y-89275000D01*
X130195000Y-89275000D01*
X130195000Y-89325000D01*
X130175000Y-89325000D01*
X130175000Y-90137500D01*
X130237500Y-90200000D01*
X130250000Y-90200000D01*
X130250000Y-90356398D01*
X130280448Y-90509472D01*
X130367157Y-90639241D01*
X130802917Y-91075000D01*
X130704272Y-91075000D01*
X130612386Y-91113060D01*
X130604000Y-91121446D01*
X130595614Y-91113060D01*
X130503728Y-91075000D01*
X130391500Y-91075000D01*
X130329000Y-91137500D01*
X130329000Y-91775000D01*
X130879000Y-91775000D01*
X130879000Y-91755000D01*
X130929000Y-91755000D01*
X130929000Y-91775000D01*
X130949000Y-91775000D01*
X130949000Y-91825000D01*
X130929000Y-91825000D01*
X130929000Y-92462500D01*
X130991500Y-92525000D01*
X131103728Y-92525000D01*
X131104000Y-92524887D01*
X131104000Y-92590315D01*
X131011870Y-92682445D01*
X130909882Y-92640096D01*
X130691078Y-92639905D01*
X130488857Y-92723461D01*
X130334005Y-92878043D01*
X130250096Y-93080118D01*
X130249905Y-93298922D01*
X130333461Y-93501143D01*
X130488043Y-93655995D01*
X130690118Y-93739904D01*
X130900000Y-93740087D01*
X130900000Y-93999807D01*
X130832356Y-94012535D01*
X130747268Y-94067288D01*
X130690185Y-94150831D01*
X130670103Y-94250000D01*
X130670103Y-95050000D01*
X130687535Y-95142644D01*
X130742288Y-95227732D01*
X130825831Y-95284815D01*
X130925000Y-95304897D01*
X131675000Y-95304897D01*
X131767644Y-95287465D01*
X131852732Y-95232712D01*
X131909815Y-95149169D01*
X131929897Y-95050000D01*
X131929897Y-94250000D01*
X131912465Y-94157356D01*
X131857712Y-94072268D01*
X131774169Y-94015185D01*
X131700000Y-94000166D01*
X131700000Y-93865686D01*
X132386843Y-93178843D01*
X132473552Y-93049074D01*
X132504001Y-92896000D01*
X132504000Y-92895995D01*
X132504000Y-92519772D01*
X132554000Y-92529897D01*
X132854000Y-92529897D01*
X132946644Y-92512465D01*
X133004357Y-92475327D01*
X133054831Y-92509815D01*
X133154000Y-92529897D01*
X133454000Y-92529897D01*
X133546644Y-92512465D01*
X133604357Y-92475327D01*
X133654831Y-92509815D01*
X133754000Y-92529897D01*
X134054000Y-92529897D01*
X134146644Y-92512465D01*
X134204357Y-92475327D01*
X134254831Y-92509815D01*
X134354000Y-92529897D01*
X134654000Y-92529897D01*
X134746644Y-92512465D01*
X134804357Y-92475327D01*
X134854831Y-92509815D01*
X134954000Y-92529897D01*
X135254000Y-92529897D01*
X135346644Y-92512465D01*
X135404357Y-92475327D01*
X135454831Y-92509815D01*
X135554000Y-92529897D01*
X135854000Y-92529897D01*
X135946644Y-92512465D01*
X136004357Y-92475327D01*
X136054831Y-92509815D01*
X136154000Y-92529897D01*
X136454000Y-92529897D01*
X136504000Y-92520489D01*
X136504000Y-92610741D01*
X136450000Y-92600000D01*
X134100000Y-92600000D01*
X133946926Y-92630448D01*
X133817157Y-92717157D01*
X133484328Y-93049986D01*
X133391078Y-93049905D01*
X133188857Y-93133461D01*
X133034005Y-93288043D01*
X132950096Y-93490118D01*
X132949905Y-93708922D01*
X133033461Y-93911143D01*
X133188043Y-94065995D01*
X133390118Y-94149904D01*
X133608922Y-94150095D01*
X133811143Y-94066539D01*
X133965995Y-93911957D01*
X133970847Y-93900272D01*
X134550000Y-93900272D01*
X134550000Y-94237500D01*
X134612500Y-94300000D01*
X135175000Y-94300000D01*
X135175000Y-93762500D01*
X135225000Y-93762500D01*
X135225000Y-94300000D01*
X135787500Y-94300000D01*
X135850000Y-94237500D01*
X135850000Y-93900272D01*
X135811940Y-93808386D01*
X135741614Y-93738060D01*
X135649728Y-93700000D01*
X135287500Y-93700000D01*
X135225000Y-93762500D01*
X135175000Y-93762500D01*
X135112500Y-93700000D01*
X134750272Y-93700000D01*
X134658386Y-93738060D01*
X134588060Y-93808386D01*
X134550000Y-93900272D01*
X133970847Y-93900272D01*
X134049904Y-93709882D01*
X134049986Y-93615700D01*
X134265686Y-93400000D01*
X136284314Y-93400000D01*
X136300000Y-93415685D01*
X136300000Y-93695103D01*
X136207356Y-93712535D01*
X136122268Y-93767288D01*
X136065185Y-93850831D01*
X136045103Y-93950000D01*
X136045103Y-94610000D01*
X135850000Y-94610000D01*
X135850000Y-94412500D01*
X135787500Y-94350000D01*
X135225000Y-94350000D01*
X135225000Y-94370000D01*
X135175000Y-94370000D01*
X135175000Y-94350000D01*
X134612500Y-94350000D01*
X134550000Y-94412500D01*
X134550000Y-94610000D01*
X133165000Y-94610000D01*
X133011926Y-94640448D01*
X132882157Y-94727157D01*
X132217157Y-95392157D01*
X132130448Y-95521926D01*
X132118397Y-95582513D01*
X132100000Y-95675000D01*
X132100000Y-96334314D01*
X131925000Y-96509314D01*
X131925000Y-96237500D01*
X131862500Y-96175000D01*
X131325000Y-96175000D01*
X131325000Y-96195000D01*
X131275000Y-96195000D01*
X131275000Y-96175000D01*
X130737500Y-96175000D01*
X130675000Y-96237500D01*
X130675000Y-96599728D01*
X130713060Y-96691614D01*
X130731446Y-96710000D01*
X129960005Y-96710000D01*
X129960000Y-96709999D01*
X129809179Y-96740000D01*
X129806927Y-96740448D01*
X129677157Y-96827157D01*
X129677155Y-96827160D01*
X129267157Y-97237157D01*
X129180448Y-97366926D01*
X129165859Y-97440272D01*
X129150000Y-97520000D01*
X129150000Y-97670103D01*
X129057356Y-97687535D01*
X128972268Y-97742288D01*
X128915185Y-97825831D01*
X128895103Y-97925000D01*
X128895103Y-98675000D01*
X128912535Y-98767644D01*
X128967288Y-98852732D01*
X129050831Y-98909815D01*
X129150000Y-98929897D01*
X129150000Y-99795103D01*
X129100000Y-99795103D01*
X129007356Y-99812535D01*
X128922268Y-99867288D01*
X128865185Y-99950831D01*
X128845103Y-100050000D01*
X128845103Y-100550000D01*
X128850748Y-100580000D01*
X128584974Y-100580000D01*
X127077487Y-99072513D01*
X126963939Y-98996642D01*
X126830000Y-98970000D01*
X126484897Y-98970000D01*
X126484897Y-98320000D01*
X126467465Y-98227356D01*
X126412712Y-98142268D01*
X126329169Y-98085185D01*
X126230000Y-98065103D01*
X124230000Y-98065103D01*
X124137356Y-98082535D01*
X124052268Y-98137288D01*
X123995185Y-98220831D01*
X123975103Y-98320000D01*
X123975103Y-98920000D01*
X123944897Y-98920000D01*
X123944897Y-98320000D01*
X123927465Y-98227356D01*
X123872712Y-98142268D01*
X123789169Y-98085185D01*
X123690000Y-98065103D01*
X123025000Y-98065103D01*
X123025000Y-98034897D01*
X123690000Y-98034897D01*
X123782644Y-98017465D01*
X123867732Y-97962712D01*
X123924815Y-97879169D01*
X123944897Y-97780000D01*
X123944897Y-95780000D01*
X123975103Y-95780000D01*
X123975103Y-97780000D01*
X123992535Y-97872644D01*
X124047288Y-97957732D01*
X124130831Y-98014815D01*
X124230000Y-98034897D01*
X126230000Y-98034897D01*
X126322644Y-98017465D01*
X126407732Y-97962712D01*
X126464815Y-97879169D01*
X126484897Y-97780000D01*
X126484897Y-96237500D01*
X128475000Y-96237500D01*
X128475000Y-96599728D01*
X128513060Y-96691614D01*
X128583386Y-96761940D01*
X128675272Y-96800000D01*
X129012500Y-96800000D01*
X129075000Y-96737500D01*
X129075000Y-96175000D01*
X129125000Y-96175000D01*
X129125000Y-96737500D01*
X129187500Y-96800000D01*
X129524728Y-96800000D01*
X129616614Y-96761940D01*
X129686940Y-96691614D01*
X129725000Y-96599728D01*
X129725000Y-96237500D01*
X129662500Y-96175000D01*
X129125000Y-96175000D01*
X129075000Y-96175000D01*
X128537500Y-96175000D01*
X128475000Y-96237500D01*
X126484897Y-96237500D01*
X126484897Y-95780000D01*
X126469896Y-95700272D01*
X128475000Y-95700272D01*
X128475000Y-96062500D01*
X128537500Y-96125000D01*
X129075000Y-96125000D01*
X129075000Y-95562500D01*
X129125000Y-95562500D01*
X129125000Y-96125000D01*
X129662500Y-96125000D01*
X129725000Y-96062500D01*
X129725000Y-95700272D01*
X130675000Y-95700272D01*
X130675000Y-96062500D01*
X130737500Y-96125000D01*
X131275000Y-96125000D01*
X131275000Y-95562500D01*
X131325000Y-95562500D01*
X131325000Y-96125000D01*
X131862500Y-96125000D01*
X131925000Y-96062500D01*
X131925000Y-95700272D01*
X131886940Y-95608386D01*
X131816614Y-95538060D01*
X131724728Y-95500000D01*
X131387500Y-95500000D01*
X131325000Y-95562500D01*
X131275000Y-95562500D01*
X131212500Y-95500000D01*
X130875272Y-95500000D01*
X130783386Y-95538060D01*
X130713060Y-95608386D01*
X130675000Y-95700272D01*
X129725000Y-95700272D01*
X129686940Y-95608386D01*
X129616614Y-95538060D01*
X129524728Y-95500000D01*
X129187500Y-95500000D01*
X129125000Y-95562500D01*
X129075000Y-95562500D01*
X129012500Y-95500000D01*
X128675272Y-95500000D01*
X128583386Y-95538060D01*
X128513060Y-95608386D01*
X128475000Y-95700272D01*
X126469896Y-95700272D01*
X126467465Y-95687356D01*
X126412712Y-95602268D01*
X126329169Y-95545185D01*
X126230000Y-95525103D01*
X124230000Y-95525103D01*
X124137356Y-95542535D01*
X124052268Y-95597288D01*
X123995185Y-95680831D01*
X123975103Y-95780000D01*
X123944897Y-95780000D01*
X123927465Y-95687356D01*
X123872712Y-95602268D01*
X123789169Y-95545185D01*
X123690000Y-95525103D01*
X123025000Y-95525103D01*
X123025000Y-95490000D01*
X123739728Y-95490000D01*
X123831614Y-95451940D01*
X123901940Y-95381614D01*
X123940000Y-95289728D01*
X123940000Y-94327500D01*
X123980000Y-94327500D01*
X123980000Y-95289728D01*
X124018060Y-95381614D01*
X124088386Y-95451940D01*
X124180272Y-95490000D01*
X125142500Y-95490000D01*
X125205000Y-95427500D01*
X125205000Y-94265000D01*
X125255000Y-94265000D01*
X125255000Y-95427500D01*
X125317500Y-95490000D01*
X126279728Y-95490000D01*
X126371614Y-95451940D01*
X126441940Y-95381614D01*
X126480000Y-95289728D01*
X126480000Y-94327500D01*
X126417500Y-94265000D01*
X125255000Y-94265000D01*
X125205000Y-94265000D01*
X124042500Y-94265000D01*
X123980000Y-94327500D01*
X123940000Y-94327500D01*
X123877500Y-94265000D01*
X123025000Y-94265000D01*
X123025000Y-94215000D01*
X123877500Y-94215000D01*
X123940000Y-94152500D01*
X123940000Y-93190272D01*
X123980000Y-93190272D01*
X123980000Y-94152500D01*
X124042500Y-94215000D01*
X125205000Y-94215000D01*
X125205000Y-93052500D01*
X125255000Y-93052500D01*
X125255000Y-94215000D01*
X126417500Y-94215000D01*
X126480000Y-94152500D01*
X126480000Y-93190272D01*
X126441940Y-93098386D01*
X126371614Y-93028060D01*
X126279728Y-92990000D01*
X125317500Y-92990000D01*
X125255000Y-93052500D01*
X125205000Y-93052500D01*
X125142500Y-92990000D01*
X124180272Y-92990000D01*
X124088386Y-93028060D01*
X124018060Y-93098386D01*
X123980000Y-93190272D01*
X123940000Y-93190272D01*
X123901940Y-93098386D01*
X123831614Y-93028060D01*
X123739728Y-92990000D01*
X123025000Y-92990000D01*
X123025000Y-92954897D01*
X123690000Y-92954897D01*
X123782644Y-92937465D01*
X123867732Y-92882712D01*
X123924815Y-92799169D01*
X123944897Y-92700000D01*
X123944897Y-92100000D01*
X123975103Y-92100000D01*
X123975103Y-92700000D01*
X123992535Y-92792644D01*
X124047288Y-92877732D01*
X124130831Y-92934815D01*
X124230000Y-92954897D01*
X126230000Y-92954897D01*
X126322644Y-92937465D01*
X126407732Y-92882712D01*
X126464815Y-92799169D01*
X126484897Y-92700000D01*
X126484897Y-90700000D01*
X126467465Y-90607356D01*
X126412712Y-90522268D01*
X126329169Y-90465185D01*
X126230000Y-90445103D01*
X124230000Y-90445103D01*
X124137356Y-90462535D01*
X124052268Y-90517288D01*
X123995185Y-90600831D01*
X123975103Y-90700000D01*
X123975103Y-91300000D01*
X123944897Y-91300000D01*
X123944897Y-90700000D01*
X123927465Y-90607356D01*
X123872712Y-90522268D01*
X123789169Y-90465185D01*
X123690000Y-90445103D01*
X123025000Y-90445103D01*
X123025000Y-84425000D01*
X126537985Y-84425000D01*
X126472268Y-84467288D01*
G36*
X147775000Y-90445103D02*
X147100000Y-90445103D01*
X147007356Y-90462535D01*
X146922268Y-90517288D01*
X146865185Y-90600831D01*
X146845103Y-90700000D01*
X146845103Y-91300000D01*
X146814897Y-91300000D01*
X146814897Y-90700000D01*
X146797465Y-90607356D01*
X146742712Y-90522268D01*
X146659169Y-90465185D01*
X146560000Y-90445103D01*
X144560000Y-90445103D01*
X144467356Y-90462535D01*
X144382268Y-90517288D01*
X144325185Y-90600831D01*
X144305103Y-90700000D01*
X144305103Y-92700000D01*
X144322535Y-92792644D01*
X144377288Y-92877732D01*
X144460831Y-92934815D01*
X144560000Y-92954897D01*
X146560000Y-92954897D01*
X146652644Y-92937465D01*
X146737732Y-92882712D01*
X146794815Y-92799169D01*
X146814897Y-92700000D01*
X146814897Y-92100000D01*
X146845103Y-92100000D01*
X146845103Y-92700000D01*
X146862535Y-92792644D01*
X146917288Y-92877732D01*
X147000831Y-92934815D01*
X147100000Y-92954897D01*
X147775000Y-92954897D01*
X147775000Y-92985103D01*
X147100000Y-92985103D01*
X147007356Y-93002535D01*
X146922268Y-93057288D01*
X146865185Y-93140831D01*
X146845103Y-93240000D01*
X146845103Y-93840000D01*
X146814897Y-93840000D01*
X146814897Y-93240000D01*
X146797465Y-93147356D01*
X146742712Y-93062268D01*
X146659169Y-93005185D01*
X146560000Y-92985103D01*
X144560000Y-92985103D01*
X144467356Y-93002535D01*
X144382268Y-93057288D01*
X144325185Y-93140831D01*
X144305103Y-93240000D01*
X144305103Y-95240000D01*
X144322535Y-95332644D01*
X144377288Y-95417732D01*
X144460831Y-95474815D01*
X144560000Y-95494897D01*
X146560000Y-95494897D01*
X146652644Y-95477465D01*
X146737732Y-95422712D01*
X146794815Y-95339169D01*
X146814897Y-95240000D01*
X146814897Y-94640000D01*
X146845103Y-94640000D01*
X146845103Y-95240000D01*
X146862535Y-95332644D01*
X146917288Y-95417732D01*
X147000831Y-95474815D01*
X147100000Y-95494897D01*
X147775000Y-95494897D01*
X147775000Y-95525103D01*
X147100000Y-95525103D01*
X147007356Y-95542535D01*
X146922268Y-95597288D01*
X146865185Y-95680831D01*
X146845103Y-95780000D01*
X146845103Y-96380000D01*
X146814897Y-96380000D01*
X146814897Y-95780000D01*
X146797465Y-95687356D01*
X146742712Y-95602268D01*
X146659169Y-95545185D01*
X146560000Y-95525103D01*
X144560000Y-95525103D01*
X144467356Y-95542535D01*
X144382268Y-95597288D01*
X144325185Y-95680831D01*
X144305103Y-95780000D01*
X144305103Y-97780000D01*
X144322535Y-97872644D01*
X144377288Y-97957732D01*
X144460831Y-98014815D01*
X144560000Y-98034897D01*
X146560000Y-98034897D01*
X146652644Y-98017465D01*
X146737732Y-97962712D01*
X146794815Y-97879169D01*
X146814897Y-97780000D01*
X146814897Y-97180000D01*
X146845103Y-97180000D01*
X146845103Y-97780000D01*
X146862535Y-97872644D01*
X146917288Y-97957732D01*
X147000831Y-98014815D01*
X147100000Y-98034897D01*
X147775000Y-98034897D01*
X147775000Y-98065103D01*
X147100000Y-98065103D01*
X147007356Y-98082535D01*
X146922268Y-98137288D01*
X146865185Y-98220831D01*
X146845103Y-98320000D01*
X146845103Y-98920000D01*
X146814897Y-98920000D01*
X146814897Y-98320000D01*
X146797465Y-98227356D01*
X146742712Y-98142268D01*
X146659169Y-98085185D01*
X146560000Y-98065103D01*
X144560000Y-98065103D01*
X144467356Y-98082535D01*
X144382268Y-98137288D01*
X144325185Y-98220831D01*
X144305103Y-98320000D01*
X144305103Y-98970000D01*
X143480000Y-98970000D01*
X143346061Y-98996642D01*
X143316171Y-99016614D01*
X143232512Y-99072513D01*
X142092513Y-100212513D01*
X142016642Y-100326061D01*
X142004897Y-100385107D01*
X142004897Y-100050000D01*
X141987465Y-99957356D01*
X141932712Y-99872268D01*
X141849169Y-99815185D01*
X141800000Y-99805228D01*
X141800000Y-98954897D01*
X141825000Y-98954897D01*
X141917644Y-98937465D01*
X142002732Y-98882712D01*
X142059815Y-98799169D01*
X142079897Y-98700000D01*
X142079897Y-97950000D01*
X142062465Y-97857356D01*
X142007712Y-97772268D01*
X141924169Y-97715185D01*
X141825000Y-97695103D01*
X141825000Y-97450000D01*
X141815054Y-97400000D01*
X141794552Y-97296926D01*
X141707843Y-97167157D01*
X141257843Y-96717157D01*
X141128074Y-96630448D01*
X140975000Y-96600000D01*
X140854177Y-96600000D01*
X140875000Y-96549728D01*
X140875000Y-96187500D01*
X141275000Y-96187500D01*
X141275000Y-96549728D01*
X141313060Y-96641614D01*
X141383386Y-96711940D01*
X141475272Y-96750000D01*
X141812500Y-96750000D01*
X141875000Y-96687500D01*
X141875000Y-96125000D01*
X141925000Y-96125000D01*
X141925000Y-96687500D01*
X141987500Y-96750000D01*
X142324728Y-96750000D01*
X142416614Y-96711940D01*
X142486940Y-96641614D01*
X142525000Y-96549728D01*
X142525000Y-96187500D01*
X142462500Y-96125000D01*
X141925000Y-96125000D01*
X141875000Y-96125000D01*
X141337500Y-96125000D01*
X141275000Y-96187500D01*
X140875000Y-96187500D01*
X140812500Y-96125000D01*
X140275000Y-96125000D01*
X140275000Y-96145000D01*
X140225000Y-96145000D01*
X140225000Y-96125000D01*
X139687500Y-96125000D01*
X139625000Y-96187500D01*
X139625000Y-96549728D01*
X139645823Y-96600000D01*
X139440686Y-96600000D01*
X139025000Y-96184314D01*
X139025000Y-95650272D01*
X139625000Y-95650272D01*
X139625000Y-96012500D01*
X139687500Y-96075000D01*
X140225000Y-96075000D01*
X140225000Y-95512500D01*
X140275000Y-95512500D01*
X140275000Y-96075000D01*
X140812500Y-96075000D01*
X140875000Y-96012500D01*
X140875000Y-95650272D01*
X141275000Y-95650272D01*
X141275000Y-96012500D01*
X141337500Y-96075000D01*
X141875000Y-96075000D01*
X141875000Y-95512500D01*
X141925000Y-95512500D01*
X141925000Y-96075000D01*
X142462500Y-96075000D01*
X142525000Y-96012500D01*
X142525000Y-95650272D01*
X142486940Y-95558386D01*
X142416614Y-95488060D01*
X142324728Y-95450000D01*
X141987500Y-95450000D01*
X141925000Y-95512500D01*
X141875000Y-95512500D01*
X141812500Y-95450000D01*
X141475272Y-95450000D01*
X141383386Y-95488060D01*
X141313060Y-95558386D01*
X141275000Y-95650272D01*
X140875000Y-95650272D01*
X140836940Y-95558386D01*
X140766614Y-95488060D01*
X140674728Y-95450000D01*
X140337500Y-95450000D01*
X140275000Y-95512500D01*
X140225000Y-95512500D01*
X140162500Y-95450000D01*
X139825272Y-95450000D01*
X139733386Y-95488060D01*
X139663060Y-95558386D01*
X139625000Y-95650272D01*
X139025000Y-95650272D01*
X139025000Y-95090686D01*
X139620103Y-94495583D01*
X139620103Y-95000000D01*
X139637535Y-95092644D01*
X139692288Y-95177732D01*
X139775831Y-95234815D01*
X139875000Y-95254897D01*
X140625000Y-95254897D01*
X140717644Y-95237465D01*
X140802732Y-95182712D01*
X140859815Y-95099169D01*
X140879897Y-95000000D01*
X140879897Y-94200000D01*
X140862465Y-94107356D01*
X140811904Y-94028782D01*
X141386840Y-93453845D01*
X141386843Y-93453843D01*
X141473552Y-93324073D01*
X141475184Y-93315870D01*
X141500000Y-93340686D01*
X141500000Y-93949807D01*
X141432356Y-93962535D01*
X141347268Y-94017288D01*
X141290185Y-94100831D01*
X141270103Y-94200000D01*
X141270103Y-95000000D01*
X141287535Y-95092644D01*
X141342288Y-95177732D01*
X141425831Y-95234815D01*
X141525000Y-95254897D01*
X142275000Y-95254897D01*
X142367644Y-95237465D01*
X142452732Y-95182712D01*
X142509815Y-95099169D01*
X142529897Y-95000000D01*
X142529897Y-94200000D01*
X142512465Y-94107356D01*
X142457712Y-94022268D01*
X142374169Y-93965185D01*
X142300000Y-93950166D01*
X142300000Y-93175005D01*
X142300001Y-93175000D01*
X142269552Y-93021926D01*
X142182843Y-92892157D01*
X142104000Y-92813314D01*
X142104000Y-92299182D01*
X142108897Y-92275000D01*
X142108897Y-91325000D01*
X142104000Y-91298974D01*
X142104000Y-90284005D01*
X142104001Y-90284000D01*
X142073552Y-90130927D01*
X142050000Y-90095679D01*
X142050000Y-89974182D01*
X142054897Y-89950000D01*
X142054897Y-88650000D01*
X142050000Y-88623974D01*
X142050000Y-87880811D01*
X142050001Y-87880806D01*
X142019552Y-87727733D01*
X142010280Y-87713857D01*
X141987589Y-87679897D01*
X142154000Y-87679897D01*
X142246644Y-87662465D01*
X142331732Y-87607712D01*
X142388815Y-87524169D01*
X142408897Y-87425000D01*
X142408897Y-86475000D01*
X142393556Y-86393467D01*
X142450000Y-86404897D01*
X144150000Y-86404897D01*
X144242644Y-86387465D01*
X144327732Y-86332712D01*
X144384815Y-86249169D01*
X144404897Y-86150000D01*
X144404897Y-84650000D01*
X144387465Y-84557356D01*
X144332712Y-84472268D01*
X144263534Y-84425000D01*
X147775000Y-84425000D01*
X147775000Y-90445103D01*
X147775000Y-90445103D01*
G37*
X147775000Y-90445103D02*
X147100000Y-90445103D01*
X147007356Y-90462535D01*
X146922268Y-90517288D01*
X146865185Y-90600831D01*
X146845103Y-90700000D01*
X146845103Y-91300000D01*
X146814897Y-91300000D01*
X146814897Y-90700000D01*
X146797465Y-90607356D01*
X146742712Y-90522268D01*
X146659169Y-90465185D01*
X146560000Y-90445103D01*
X144560000Y-90445103D01*
X144467356Y-90462535D01*
X144382268Y-90517288D01*
X144325185Y-90600831D01*
X144305103Y-90700000D01*
X144305103Y-92700000D01*
X144322535Y-92792644D01*
X144377288Y-92877732D01*
X144460831Y-92934815D01*
X144560000Y-92954897D01*
X146560000Y-92954897D01*
X146652644Y-92937465D01*
X146737732Y-92882712D01*
X146794815Y-92799169D01*
X146814897Y-92700000D01*
X146814897Y-92100000D01*
X146845103Y-92100000D01*
X146845103Y-92700000D01*
X146862535Y-92792644D01*
X146917288Y-92877732D01*
X147000831Y-92934815D01*
X147100000Y-92954897D01*
X147775000Y-92954897D01*
X147775000Y-92985103D01*
X147100000Y-92985103D01*
X147007356Y-93002535D01*
X146922268Y-93057288D01*
X146865185Y-93140831D01*
X146845103Y-93240000D01*
X146845103Y-93840000D01*
X146814897Y-93840000D01*
X146814897Y-93240000D01*
X146797465Y-93147356D01*
X146742712Y-93062268D01*
X146659169Y-93005185D01*
X146560000Y-92985103D01*
X144560000Y-92985103D01*
X144467356Y-93002535D01*
X144382268Y-93057288D01*
X144325185Y-93140831D01*
X144305103Y-93240000D01*
X144305103Y-95240000D01*
X144322535Y-95332644D01*
X144377288Y-95417732D01*
X144460831Y-95474815D01*
X144560000Y-95494897D01*
X146560000Y-95494897D01*
X146652644Y-95477465D01*
X146737732Y-95422712D01*
X146794815Y-95339169D01*
X146814897Y-95240000D01*
X146814897Y-94640000D01*
X146845103Y-94640000D01*
X146845103Y-95240000D01*
X146862535Y-95332644D01*
X146917288Y-95417732D01*
X147000831Y-95474815D01*
X147100000Y-95494897D01*
X147775000Y-95494897D01*
X147775000Y-95525103D01*
X147100000Y-95525103D01*
X147007356Y-95542535D01*
X146922268Y-95597288D01*
X146865185Y-95680831D01*
X146845103Y-95780000D01*
X146845103Y-96380000D01*
X146814897Y-96380000D01*
X146814897Y-95780000D01*
X146797465Y-95687356D01*
X146742712Y-95602268D01*
X146659169Y-95545185D01*
X146560000Y-95525103D01*
X144560000Y-95525103D01*
X144467356Y-95542535D01*
X144382268Y-95597288D01*
X144325185Y-95680831D01*
X144305103Y-95780000D01*
X144305103Y-97780000D01*
X144322535Y-97872644D01*
X144377288Y-97957732D01*
X144460831Y-98014815D01*
X144560000Y-98034897D01*
X146560000Y-98034897D01*
X146652644Y-98017465D01*
X146737732Y-97962712D01*
X146794815Y-97879169D01*
X146814897Y-97780000D01*
X146814897Y-97180000D01*
X146845103Y-97180000D01*
X146845103Y-97780000D01*
X146862535Y-97872644D01*
X146917288Y-97957732D01*
X147000831Y-98014815D01*
X147100000Y-98034897D01*
X147775000Y-98034897D01*
X147775000Y-98065103D01*
X147100000Y-98065103D01*
X147007356Y-98082535D01*
X146922268Y-98137288D01*
X146865185Y-98220831D01*
X146845103Y-98320000D01*
X146845103Y-98920000D01*
X146814897Y-98920000D01*
X146814897Y-98320000D01*
X146797465Y-98227356D01*
X146742712Y-98142268D01*
X146659169Y-98085185D01*
X146560000Y-98065103D01*
X144560000Y-98065103D01*
X144467356Y-98082535D01*
X144382268Y-98137288D01*
X144325185Y-98220831D01*
X144305103Y-98320000D01*
X144305103Y-98970000D01*
X143480000Y-98970000D01*
X143346061Y-98996642D01*
X143316171Y-99016614D01*
X143232512Y-99072513D01*
X142092513Y-100212513D01*
X142016642Y-100326061D01*
X142004897Y-100385107D01*
X142004897Y-100050000D01*
X141987465Y-99957356D01*
X141932712Y-99872268D01*
X141849169Y-99815185D01*
X141800000Y-99805228D01*
X141800000Y-98954897D01*
X141825000Y-98954897D01*
X141917644Y-98937465D01*
X142002732Y-98882712D01*
X142059815Y-98799169D01*
X142079897Y-98700000D01*
X142079897Y-97950000D01*
X142062465Y-97857356D01*
X142007712Y-97772268D01*
X141924169Y-97715185D01*
X141825000Y-97695103D01*
X141825000Y-97450000D01*
X141815054Y-97400000D01*
X141794552Y-97296926D01*
X141707843Y-97167157D01*
X141257843Y-96717157D01*
X141128074Y-96630448D01*
X140975000Y-96600000D01*
X140854177Y-96600000D01*
X140875000Y-96549728D01*
X140875000Y-96187500D01*
X141275000Y-96187500D01*
X141275000Y-96549728D01*
X141313060Y-96641614D01*
X141383386Y-96711940D01*
X141475272Y-96750000D01*
X141812500Y-96750000D01*
X141875000Y-96687500D01*
X141875000Y-96125000D01*
X141925000Y-96125000D01*
X141925000Y-96687500D01*
X141987500Y-96750000D01*
X142324728Y-96750000D01*
X142416614Y-96711940D01*
X142486940Y-96641614D01*
X142525000Y-96549728D01*
X142525000Y-96187500D01*
X142462500Y-96125000D01*
X141925000Y-96125000D01*
X141875000Y-96125000D01*
X141337500Y-96125000D01*
X141275000Y-96187500D01*
X140875000Y-96187500D01*
X140812500Y-96125000D01*
X140275000Y-96125000D01*
X140275000Y-96145000D01*
X140225000Y-96145000D01*
X140225000Y-96125000D01*
X139687500Y-96125000D01*
X139625000Y-96187500D01*
X139625000Y-96549728D01*
X139645823Y-96600000D01*
X139440686Y-96600000D01*
X139025000Y-96184314D01*
X139025000Y-95650272D01*
X139625000Y-95650272D01*
X139625000Y-96012500D01*
X139687500Y-96075000D01*
X140225000Y-96075000D01*
X140225000Y-95512500D01*
X140275000Y-95512500D01*
X140275000Y-96075000D01*
X140812500Y-96075000D01*
X140875000Y-96012500D01*
X140875000Y-95650272D01*
X141275000Y-95650272D01*
X141275000Y-96012500D01*
X141337500Y-96075000D01*
X141875000Y-96075000D01*
X141875000Y-95512500D01*
X141925000Y-95512500D01*
X141925000Y-96075000D01*
X142462500Y-96075000D01*
X142525000Y-96012500D01*
X142525000Y-95650272D01*
X142486940Y-95558386D01*
X142416614Y-95488060D01*
X142324728Y-95450000D01*
X141987500Y-95450000D01*
X141925000Y-95512500D01*
X141875000Y-95512500D01*
X141812500Y-95450000D01*
X141475272Y-95450000D01*
X141383386Y-95488060D01*
X141313060Y-95558386D01*
X141275000Y-95650272D01*
X140875000Y-95650272D01*
X140836940Y-95558386D01*
X140766614Y-95488060D01*
X140674728Y-95450000D01*
X140337500Y-95450000D01*
X140275000Y-95512500D01*
X140225000Y-95512500D01*
X140162500Y-95450000D01*
X139825272Y-95450000D01*
X139733386Y-95488060D01*
X139663060Y-95558386D01*
X139625000Y-95650272D01*
X139025000Y-95650272D01*
X139025000Y-95090686D01*
X139620103Y-94495583D01*
X139620103Y-95000000D01*
X139637535Y-95092644D01*
X139692288Y-95177732D01*
X139775831Y-95234815D01*
X139875000Y-95254897D01*
X140625000Y-95254897D01*
X140717644Y-95237465D01*
X140802732Y-95182712D01*
X140859815Y-95099169D01*
X140879897Y-95000000D01*
X140879897Y-94200000D01*
X140862465Y-94107356D01*
X140811904Y-94028782D01*
X141386840Y-93453845D01*
X141386843Y-93453843D01*
X141473552Y-93324073D01*
X141475184Y-93315870D01*
X141500000Y-93340686D01*
X141500000Y-93949807D01*
X141432356Y-93962535D01*
X141347268Y-94017288D01*
X141290185Y-94100831D01*
X141270103Y-94200000D01*
X141270103Y-95000000D01*
X141287535Y-95092644D01*
X141342288Y-95177732D01*
X141425831Y-95234815D01*
X141525000Y-95254897D01*
X142275000Y-95254897D01*
X142367644Y-95237465D01*
X142452732Y-95182712D01*
X142509815Y-95099169D01*
X142529897Y-95000000D01*
X142529897Y-94200000D01*
X142512465Y-94107356D01*
X142457712Y-94022268D01*
X142374169Y-93965185D01*
X142300000Y-93950166D01*
X142300000Y-93175005D01*
X142300001Y-93175000D01*
X142269552Y-93021926D01*
X142182843Y-92892157D01*
X142104000Y-92813314D01*
X142104000Y-92299182D01*
X142108897Y-92275000D01*
X142108897Y-91325000D01*
X142104000Y-91298974D01*
X142104000Y-90284005D01*
X142104001Y-90284000D01*
X142073552Y-90130927D01*
X142050000Y-90095679D01*
X142050000Y-89974182D01*
X142054897Y-89950000D01*
X142054897Y-88650000D01*
X142050000Y-88623974D01*
X142050000Y-87880811D01*
X142050001Y-87880806D01*
X142019552Y-87727733D01*
X142010280Y-87713857D01*
X141987589Y-87679897D01*
X142154000Y-87679897D01*
X142246644Y-87662465D01*
X142331732Y-87607712D01*
X142388815Y-87524169D01*
X142408897Y-87425000D01*
X142408897Y-86475000D01*
X142393556Y-86393467D01*
X142450000Y-86404897D01*
X144150000Y-86404897D01*
X144242644Y-86387465D01*
X144327732Y-86332712D01*
X144384815Y-86249169D01*
X144404897Y-86150000D01*
X144404897Y-84650000D01*
X144387465Y-84557356D01*
X144332712Y-84472268D01*
X144263534Y-84425000D01*
X147775000Y-84425000D01*
X147775000Y-90445103D01*
G36*
X132830103Y-97030000D02*
X132847535Y-97122644D01*
X132902288Y-97207732D01*
X132985831Y-97264815D01*
X133085000Y-97284897D01*
X133835000Y-97284897D01*
X133927644Y-97267465D01*
X134005291Y-97217500D01*
X134280000Y-97217500D01*
X134280000Y-97319728D01*
X134304965Y-97380000D01*
X134280000Y-97440272D01*
X134280000Y-97542500D01*
X134342500Y-97605000D01*
X134710000Y-97605000D01*
X134710000Y-97155000D01*
X134342500Y-97155000D01*
X134280000Y-97217500D01*
X134005291Y-97217500D01*
X134012732Y-97212712D01*
X134069815Y-97129169D01*
X134089897Y-97030000D01*
X134089897Y-96980000D01*
X134280000Y-96980000D01*
X134280000Y-97042500D01*
X134342500Y-97105000D01*
X134710000Y-97105000D01*
X134710000Y-97085000D01*
X134760000Y-97085000D01*
X134760000Y-97105000D01*
X134780000Y-97105000D01*
X134780000Y-97155000D01*
X134760000Y-97155000D01*
X134760000Y-97605000D01*
X134780000Y-97605000D01*
X134780000Y-97655000D01*
X134760000Y-97655000D01*
X134760000Y-97675000D01*
X134710000Y-97675000D01*
X134710000Y-97655000D01*
X134342500Y-97655000D01*
X134280000Y-97717500D01*
X134280000Y-97819728D01*
X134304067Y-97877832D01*
X134295185Y-97890831D01*
X134275103Y-97990000D01*
X134275103Y-98270000D01*
X134292535Y-98362644D01*
X134347288Y-98447732D01*
X134385000Y-98473500D01*
X134385000Y-98610026D01*
X133915026Y-99080000D01*
X131060000Y-99080000D01*
X130948282Y-99102222D01*
X130926060Y-99106642D01*
X130812512Y-99182513D01*
X130342513Y-99652513D01*
X130266642Y-99766061D01*
X130240000Y-99900000D01*
X130240000Y-100285025D01*
X130154897Y-100370128D01*
X130154897Y-100050000D01*
X130137465Y-99957356D01*
X130082712Y-99872268D01*
X129999169Y-99815185D01*
X129950000Y-99805228D01*
X129950000Y-98929897D01*
X130042644Y-98912465D01*
X130127732Y-98857712D01*
X130184815Y-98774169D01*
X130204897Y-98675000D01*
X130204897Y-98387500D01*
X130400000Y-98387500D01*
X130400000Y-98724728D01*
X130438060Y-98816614D01*
X130508386Y-98886940D01*
X130600272Y-98925000D01*
X130962500Y-98925000D01*
X131025000Y-98862500D01*
X131025000Y-98325000D01*
X131075000Y-98325000D01*
X131075000Y-98862500D01*
X131137500Y-98925000D01*
X131499728Y-98925000D01*
X131591614Y-98886940D01*
X131661940Y-98816614D01*
X131700000Y-98724728D01*
X131700000Y-98387500D01*
X131637500Y-98325000D01*
X131075000Y-98325000D01*
X131025000Y-98325000D01*
X130462500Y-98325000D01*
X130400000Y-98387500D01*
X130204897Y-98387500D01*
X130204897Y-97925000D01*
X130195541Y-97875272D01*
X130400000Y-97875272D01*
X130400000Y-98212500D01*
X130462500Y-98275000D01*
X131025000Y-98275000D01*
X131025000Y-97737500D01*
X131075000Y-97737500D01*
X131075000Y-98275000D01*
X131637500Y-98275000D01*
X131695000Y-98217500D01*
X132835000Y-98217500D01*
X132835000Y-98579728D01*
X132873060Y-98671614D01*
X132943386Y-98741940D01*
X133035272Y-98780000D01*
X133372500Y-98780000D01*
X133435000Y-98717500D01*
X133435000Y-98155000D01*
X133485000Y-98155000D01*
X133485000Y-98717500D01*
X133547500Y-98780000D01*
X133884728Y-98780000D01*
X133976614Y-98741940D01*
X134046940Y-98671614D01*
X134085000Y-98579728D01*
X134085000Y-98217500D01*
X134022500Y-98155000D01*
X133485000Y-98155000D01*
X133435000Y-98155000D01*
X132897500Y-98155000D01*
X132835000Y-98217500D01*
X131695000Y-98217500D01*
X131700000Y-98212500D01*
X131700000Y-97875272D01*
X131661940Y-97783386D01*
X131591614Y-97713060D01*
X131512456Y-97680272D01*
X132835000Y-97680272D01*
X132835000Y-98042500D01*
X132897500Y-98105000D01*
X133435000Y-98105000D01*
X133435000Y-97542500D01*
X133485000Y-97542500D01*
X133485000Y-98105000D01*
X134022500Y-98105000D01*
X134085000Y-98042500D01*
X134085000Y-97680272D01*
X134046940Y-97588386D01*
X133976614Y-97518060D01*
X133884728Y-97480000D01*
X133547500Y-97480000D01*
X133485000Y-97542500D01*
X133435000Y-97542500D01*
X133372500Y-97480000D01*
X133035272Y-97480000D01*
X132943386Y-97518060D01*
X132873060Y-97588386D01*
X132835000Y-97680272D01*
X131512456Y-97680272D01*
X131499728Y-97675000D01*
X131137500Y-97675000D01*
X131075000Y-97737500D01*
X131025000Y-97737500D01*
X130962500Y-97675000D01*
X130600272Y-97675000D01*
X130508386Y-97713060D01*
X130438060Y-97783386D01*
X130400000Y-97875272D01*
X130195541Y-97875272D01*
X130187465Y-97832356D01*
X130132712Y-97747268D01*
X130049169Y-97690185D01*
X129962959Y-97672727D01*
X130125685Y-97510000D01*
X131890000Y-97510000D01*
X132043074Y-97479552D01*
X132172843Y-97392843D01*
X132782843Y-96782843D01*
X132811170Y-96740448D01*
X132830103Y-96712113D01*
X132830103Y-97030000D01*
X132830103Y-97030000D01*
G37*
X132830103Y-97030000D02*
X132847535Y-97122644D01*
X132902288Y-97207732D01*
X132985831Y-97264815D01*
X133085000Y-97284897D01*
X133835000Y-97284897D01*
X133927644Y-97267465D01*
X134005291Y-97217500D01*
X134280000Y-97217500D01*
X134280000Y-97319728D01*
X134304965Y-97380000D01*
X134280000Y-97440272D01*
X134280000Y-97542500D01*
X134342500Y-97605000D01*
X134710000Y-97605000D01*
X134710000Y-97155000D01*
X134342500Y-97155000D01*
X134280000Y-97217500D01*
X134005291Y-97217500D01*
X134012732Y-97212712D01*
X134069815Y-97129169D01*
X134089897Y-97030000D01*
X134089897Y-96980000D01*
X134280000Y-96980000D01*
X134280000Y-97042500D01*
X134342500Y-97105000D01*
X134710000Y-97105000D01*
X134710000Y-97085000D01*
X134760000Y-97085000D01*
X134760000Y-97105000D01*
X134780000Y-97105000D01*
X134780000Y-97155000D01*
X134760000Y-97155000D01*
X134760000Y-97605000D01*
X134780000Y-97605000D01*
X134780000Y-97655000D01*
X134760000Y-97655000D01*
X134760000Y-97675000D01*
X134710000Y-97675000D01*
X134710000Y-97655000D01*
X134342500Y-97655000D01*
X134280000Y-97717500D01*
X134280000Y-97819728D01*
X134304067Y-97877832D01*
X134295185Y-97890831D01*
X134275103Y-97990000D01*
X134275103Y-98270000D01*
X134292535Y-98362644D01*
X134347288Y-98447732D01*
X134385000Y-98473500D01*
X134385000Y-98610026D01*
X133915026Y-99080000D01*
X131060000Y-99080000D01*
X130948282Y-99102222D01*
X130926060Y-99106642D01*
X130812512Y-99182513D01*
X130342513Y-99652513D01*
X130266642Y-99766061D01*
X130240000Y-99900000D01*
X130240000Y-100285025D01*
X130154897Y-100370128D01*
X130154897Y-100050000D01*
X130137465Y-99957356D01*
X130082712Y-99872268D01*
X129999169Y-99815185D01*
X129950000Y-99805228D01*
X129950000Y-98929897D01*
X130042644Y-98912465D01*
X130127732Y-98857712D01*
X130184815Y-98774169D01*
X130204897Y-98675000D01*
X130204897Y-98387500D01*
X130400000Y-98387500D01*
X130400000Y-98724728D01*
X130438060Y-98816614D01*
X130508386Y-98886940D01*
X130600272Y-98925000D01*
X130962500Y-98925000D01*
X131025000Y-98862500D01*
X131025000Y-98325000D01*
X131075000Y-98325000D01*
X131075000Y-98862500D01*
X131137500Y-98925000D01*
X131499728Y-98925000D01*
X131591614Y-98886940D01*
X131661940Y-98816614D01*
X131700000Y-98724728D01*
X131700000Y-98387500D01*
X131637500Y-98325000D01*
X131075000Y-98325000D01*
X131025000Y-98325000D01*
X130462500Y-98325000D01*
X130400000Y-98387500D01*
X130204897Y-98387500D01*
X130204897Y-97925000D01*
X130195541Y-97875272D01*
X130400000Y-97875272D01*
X130400000Y-98212500D01*
X130462500Y-98275000D01*
X131025000Y-98275000D01*
X131025000Y-97737500D01*
X131075000Y-97737500D01*
X131075000Y-98275000D01*
X131637500Y-98275000D01*
X131695000Y-98217500D01*
X132835000Y-98217500D01*
X132835000Y-98579728D01*
X132873060Y-98671614D01*
X132943386Y-98741940D01*
X133035272Y-98780000D01*
X133372500Y-98780000D01*
X133435000Y-98717500D01*
X133435000Y-98155000D01*
X133485000Y-98155000D01*
X133485000Y-98717500D01*
X133547500Y-98780000D01*
X133884728Y-98780000D01*
X133976614Y-98741940D01*
X134046940Y-98671614D01*
X134085000Y-98579728D01*
X134085000Y-98217500D01*
X134022500Y-98155000D01*
X133485000Y-98155000D01*
X133435000Y-98155000D01*
X132897500Y-98155000D01*
X132835000Y-98217500D01*
X131695000Y-98217500D01*
X131700000Y-98212500D01*
X131700000Y-97875272D01*
X131661940Y-97783386D01*
X131591614Y-97713060D01*
X131512456Y-97680272D01*
X132835000Y-97680272D01*
X132835000Y-98042500D01*
X132897500Y-98105000D01*
X133435000Y-98105000D01*
X133435000Y-97542500D01*
X133485000Y-97542500D01*
X133485000Y-98105000D01*
X134022500Y-98105000D01*
X134085000Y-98042500D01*
X134085000Y-97680272D01*
X134046940Y-97588386D01*
X133976614Y-97518060D01*
X133884728Y-97480000D01*
X133547500Y-97480000D01*
X133485000Y-97542500D01*
X133435000Y-97542500D01*
X133372500Y-97480000D01*
X133035272Y-97480000D01*
X132943386Y-97518060D01*
X132873060Y-97588386D01*
X132835000Y-97680272D01*
X131512456Y-97680272D01*
X131499728Y-97675000D01*
X131137500Y-97675000D01*
X131075000Y-97737500D01*
X131025000Y-97737500D01*
X130962500Y-97675000D01*
X130600272Y-97675000D01*
X130508386Y-97713060D01*
X130438060Y-97783386D01*
X130400000Y-97875272D01*
X130195541Y-97875272D01*
X130187465Y-97832356D01*
X130132712Y-97747268D01*
X130049169Y-97690185D01*
X129962959Y-97672727D01*
X130125685Y-97510000D01*
X131890000Y-97510000D01*
X132043074Y-97479552D01*
X132172843Y-97392843D01*
X132782843Y-96782843D01*
X132811170Y-96740448D01*
X132830103Y-96712113D01*
X132830103Y-97030000D01*
G36*
X137312535Y-97467644D02*
X137367288Y-97552732D01*
X137450831Y-97609815D01*
X137550000Y-97629897D01*
X138300000Y-97629897D01*
X138392644Y-97612465D01*
X138440000Y-97581992D01*
X138440000Y-97862391D01*
X138349728Y-97825000D01*
X138012500Y-97825000D01*
X137950000Y-97887500D01*
X137950000Y-98450000D01*
X137970000Y-98450000D01*
X137970000Y-98500000D01*
X137950000Y-98500000D01*
X137950000Y-99062500D01*
X138012500Y-99125000D01*
X138349728Y-99125000D01*
X138441614Y-99086940D01*
X138456351Y-99072203D01*
X138470448Y-99143074D01*
X138557157Y-99272843D01*
X139027155Y-99742840D01*
X139027157Y-99742843D01*
X139105370Y-99795103D01*
X138950000Y-99795103D01*
X138857356Y-99812535D01*
X138772268Y-99867288D01*
X138715753Y-99950000D01*
X137600000Y-99950000D01*
X137515100Y-99966888D01*
X137441539Y-99788857D01*
X137325000Y-99672114D01*
X137325000Y-98985084D01*
X137338060Y-99016614D01*
X137408386Y-99086940D01*
X137500272Y-99125000D01*
X137837500Y-99125000D01*
X137900000Y-99062500D01*
X137900000Y-98500000D01*
X137880000Y-98500000D01*
X137880000Y-98450000D01*
X137900000Y-98450000D01*
X137900000Y-97887500D01*
X137837500Y-97825000D01*
X137500272Y-97825000D01*
X137408386Y-97863060D01*
X137338060Y-97933386D01*
X137325000Y-97964916D01*
X137325000Y-97775000D01*
X137298358Y-97641061D01*
X137222487Y-97527513D01*
X137165853Y-97470879D01*
X137253939Y-97453358D01*
X137303603Y-97420173D01*
X137312535Y-97467644D01*
X137312535Y-97467644D01*
G37*
X137312535Y-97467644D02*
X137367288Y-97552732D01*
X137450831Y-97609815D01*
X137550000Y-97629897D01*
X138300000Y-97629897D01*
X138392644Y-97612465D01*
X138440000Y-97581992D01*
X138440000Y-97862391D01*
X138349728Y-97825000D01*
X138012500Y-97825000D01*
X137950000Y-97887500D01*
X137950000Y-98450000D01*
X137970000Y-98450000D01*
X137970000Y-98500000D01*
X137950000Y-98500000D01*
X137950000Y-99062500D01*
X138012500Y-99125000D01*
X138349728Y-99125000D01*
X138441614Y-99086940D01*
X138456351Y-99072203D01*
X138470448Y-99143074D01*
X138557157Y-99272843D01*
X139027155Y-99742840D01*
X139027157Y-99742843D01*
X139105370Y-99795103D01*
X138950000Y-99795103D01*
X138857356Y-99812535D01*
X138772268Y-99867288D01*
X138715753Y-99950000D01*
X137600000Y-99950000D01*
X137515100Y-99966888D01*
X137441539Y-99788857D01*
X137325000Y-99672114D01*
X137325000Y-98985084D01*
X137338060Y-99016614D01*
X137408386Y-99086940D01*
X137500272Y-99125000D01*
X137837500Y-99125000D01*
X137900000Y-99062500D01*
X137900000Y-98500000D01*
X137880000Y-98500000D01*
X137880000Y-98450000D01*
X137900000Y-98450000D01*
X137900000Y-97887500D01*
X137837500Y-97825000D01*
X137500272Y-97825000D01*
X137408386Y-97863060D01*
X137338060Y-97933386D01*
X137325000Y-97964916D01*
X137325000Y-97775000D01*
X137298358Y-97641061D01*
X137222487Y-97527513D01*
X137165853Y-97470879D01*
X137253939Y-97453358D01*
X137303603Y-97420173D01*
X137312535Y-97467644D01*
G36*
X138675000Y-89275000D02*
X138695000Y-89275000D01*
X138695000Y-89325000D01*
X138675000Y-89325000D01*
X138675000Y-90137500D01*
X138737500Y-90200000D01*
X138849728Y-90200000D01*
X138895380Y-90181091D01*
X138900831Y-90184815D01*
X139000000Y-90204897D01*
X139300000Y-90204897D01*
X139300000Y-90355026D01*
X139056513Y-90598513D01*
X138980642Y-90712061D01*
X138954000Y-90846000D01*
X138954000Y-91095823D01*
X138903728Y-91075000D01*
X138791500Y-91075000D01*
X138729000Y-91137500D01*
X138729000Y-91775000D01*
X138749000Y-91775000D01*
X138749000Y-91825000D01*
X138729000Y-91825000D01*
X138729000Y-92462500D01*
X138791500Y-92525000D01*
X138903728Y-92525000D01*
X138954000Y-92504177D01*
X138954000Y-92551025D01*
X138844977Y-92660048D01*
X138681078Y-92659905D01*
X138478857Y-92743461D01*
X138324005Y-92898043D01*
X138240096Y-93100118D01*
X138239905Y-93318922D01*
X138323461Y-93521143D01*
X138478043Y-93675995D01*
X138615028Y-93732876D01*
X138460368Y-93887537D01*
X138386539Y-93708857D01*
X138231957Y-93554005D01*
X138029882Y-93470096D01*
X137811078Y-93469905D01*
X137608857Y-93553461D01*
X137454005Y-93708043D01*
X137370096Y-93910118D01*
X137370083Y-93925000D01*
X137350193Y-93925000D01*
X137337465Y-93857356D01*
X137282712Y-93772268D01*
X137199169Y-93715185D01*
X137100000Y-93695103D01*
X137100000Y-93415685D01*
X137186840Y-93328845D01*
X137186843Y-93328843D01*
X137273552Y-93199073D01*
X137277576Y-93178843D01*
X137304001Y-93046000D01*
X137304000Y-93045995D01*
X137304000Y-92519772D01*
X137354000Y-92529897D01*
X137654000Y-92529897D01*
X137746644Y-92512465D01*
X137804357Y-92475327D01*
X137854831Y-92509815D01*
X137954000Y-92529897D01*
X138254000Y-92529897D01*
X138346644Y-92512465D01*
X138402177Y-92476731D01*
X138412386Y-92486940D01*
X138504272Y-92525000D01*
X138616500Y-92525000D01*
X138679000Y-92462500D01*
X138679000Y-91825000D01*
X138659000Y-91825000D01*
X138659000Y-91775000D01*
X138679000Y-91775000D01*
X138679000Y-91137500D01*
X138616500Y-91075000D01*
X138504272Y-91075000D01*
X138504000Y-91075113D01*
X138504000Y-90566349D01*
X138519552Y-90543074D01*
X138550001Y-90390000D01*
X138550000Y-90389995D01*
X138550000Y-90200000D01*
X138562500Y-90200000D01*
X138625000Y-90137500D01*
X138625000Y-89325000D01*
X138605000Y-89325000D01*
X138605000Y-89275000D01*
X138625000Y-89275000D01*
X138625000Y-89255000D01*
X138675000Y-89255000D01*
X138675000Y-89275000D01*
X138675000Y-89275000D01*
G37*
X138675000Y-89275000D02*
X138695000Y-89275000D01*
X138695000Y-89325000D01*
X138675000Y-89325000D01*
X138675000Y-90137500D01*
X138737500Y-90200000D01*
X138849728Y-90200000D01*
X138895380Y-90181091D01*
X138900831Y-90184815D01*
X139000000Y-90204897D01*
X139300000Y-90204897D01*
X139300000Y-90355026D01*
X139056513Y-90598513D01*
X138980642Y-90712061D01*
X138954000Y-90846000D01*
X138954000Y-91095823D01*
X138903728Y-91075000D01*
X138791500Y-91075000D01*
X138729000Y-91137500D01*
X138729000Y-91775000D01*
X138749000Y-91775000D01*
X138749000Y-91825000D01*
X138729000Y-91825000D01*
X138729000Y-92462500D01*
X138791500Y-92525000D01*
X138903728Y-92525000D01*
X138954000Y-92504177D01*
X138954000Y-92551025D01*
X138844977Y-92660048D01*
X138681078Y-92659905D01*
X138478857Y-92743461D01*
X138324005Y-92898043D01*
X138240096Y-93100118D01*
X138239905Y-93318922D01*
X138323461Y-93521143D01*
X138478043Y-93675995D01*
X138615028Y-93732876D01*
X138460368Y-93887537D01*
X138386539Y-93708857D01*
X138231957Y-93554005D01*
X138029882Y-93470096D01*
X137811078Y-93469905D01*
X137608857Y-93553461D01*
X137454005Y-93708043D01*
X137370096Y-93910118D01*
X137370083Y-93925000D01*
X137350193Y-93925000D01*
X137337465Y-93857356D01*
X137282712Y-93772268D01*
X137199169Y-93715185D01*
X137100000Y-93695103D01*
X137100000Y-93415685D01*
X137186840Y-93328845D01*
X137186843Y-93328843D01*
X137273552Y-93199073D01*
X137277576Y-93178843D01*
X137304001Y-93046000D01*
X137304000Y-93045995D01*
X137304000Y-92519772D01*
X137354000Y-92529897D01*
X137654000Y-92529897D01*
X137746644Y-92512465D01*
X137804357Y-92475327D01*
X137854831Y-92509815D01*
X137954000Y-92529897D01*
X138254000Y-92529897D01*
X138346644Y-92512465D01*
X138402177Y-92476731D01*
X138412386Y-92486940D01*
X138504272Y-92525000D01*
X138616500Y-92525000D01*
X138679000Y-92462500D01*
X138679000Y-91825000D01*
X138659000Y-91825000D01*
X138659000Y-91775000D01*
X138679000Y-91775000D01*
X138679000Y-91137500D01*
X138616500Y-91075000D01*
X138504272Y-91075000D01*
X138504000Y-91075113D01*
X138504000Y-90566349D01*
X138519552Y-90543074D01*
X138550001Y-90390000D01*
X138550000Y-90389995D01*
X138550000Y-90200000D01*
X138562500Y-90200000D01*
X138625000Y-90137500D01*
X138625000Y-89325000D01*
X138605000Y-89325000D01*
X138605000Y-89275000D01*
X138625000Y-89275000D01*
X138625000Y-89255000D01*
X138675000Y-89255000D01*
X138675000Y-89275000D01*
M02*
