G04 #@! TF.FileFunction,Soldermask,Top*
%FSLAX46Y46*%
G04 Gerber Fmt 4.6, Leading zero omitted, Abs format (unit mm)*
G04 Created by KiCad (PCBNEW 4.0.6) date 03/27/17 14:11:27*
%MOMM*%
%LPD*%
G01*
G04 APERTURE LIST*
%ADD10C,0.100000*%
%ADD11R,0.890000X0.940000*%
%ADD12R,0.940000X0.890000*%
%ADD13R,0.440000X1.440000*%
%ADD14R,1.840000X1.640000*%
%ADD15R,0.420000X0.550000*%
%ADD16R,0.550000X0.420000*%
%ADD17R,1.540000X3.840000*%
%ADD18R,2.140000X2.140000*%
%ADD19R,0.940000X0.640000*%
%ADD20R,0.940000X1.040000*%
%ADD21R,0.440000X1.090000*%
G04 APERTURE END LIST*
D10*
D11*
X133460000Y-96630000D03*
X133460000Y-98130000D03*
X137925000Y-98475000D03*
X137925000Y-96975000D03*
D12*
X141425000Y-98325000D03*
X139925000Y-98325000D03*
X131050000Y-98300000D03*
X129550000Y-98300000D03*
D11*
X141900000Y-94600000D03*
X141900000Y-96100000D03*
X140250000Y-94600000D03*
X140250000Y-96100000D03*
X131300000Y-94650000D03*
X131300000Y-96150000D03*
D12*
X136700000Y-94325000D03*
X135200000Y-94325000D03*
D11*
X129100000Y-94650000D03*
X129100000Y-96150000D03*
D13*
X141650000Y-89300000D03*
X141150000Y-89300000D03*
X140650000Y-89300000D03*
X140150000Y-89300000D03*
X139650000Y-89300000D03*
X139150000Y-89300000D03*
X138650000Y-89300000D03*
X138150000Y-89300000D03*
X137650000Y-89300000D03*
X137150000Y-89300000D03*
X136650000Y-89300000D03*
X136150000Y-89300000D03*
X135650000Y-89300000D03*
X135150000Y-89300000D03*
X134650000Y-89300000D03*
X134150000Y-89300000D03*
X133650000Y-89300000D03*
X133150000Y-89300000D03*
X132650000Y-89300000D03*
X132150000Y-89300000D03*
X131650000Y-89300000D03*
X131150000Y-89300000D03*
X130650000Y-89300000D03*
X130150000Y-89300000D03*
X129650000Y-89300000D03*
X129150000Y-89300000D03*
D14*
X143300000Y-85400000D03*
X127500000Y-85400000D03*
D15*
X135300000Y-96565000D03*
D16*
X136365000Y-98130000D03*
X136365000Y-97630000D03*
X136365000Y-97130000D03*
X136365000Y-96630000D03*
X134735000Y-96630000D03*
X134735000Y-97130000D03*
X134735000Y-97630000D03*
X134735000Y-98130000D03*
D15*
X135800000Y-96565000D03*
X135300000Y-98195000D03*
X135800000Y-98195000D03*
D17*
X137100000Y-103306000D03*
X133700000Y-103306000D03*
D18*
X125230000Y-91700000D03*
X125230000Y-94240000D03*
X125230000Y-96780000D03*
X125230000Y-99320000D03*
X125230000Y-101860000D03*
X125230000Y-104400000D03*
X145560000Y-104400000D03*
X145560000Y-101860000D03*
X145560000Y-99320000D03*
X145560000Y-96780000D03*
X145560000Y-94240000D03*
X145560000Y-91700000D03*
X148100000Y-104400000D03*
X148100000Y-101860000D03*
X148100000Y-99320000D03*
X148100000Y-96780000D03*
X148100000Y-94240000D03*
X148100000Y-91700000D03*
X122690000Y-91700000D03*
X122690000Y-94240000D03*
X122690000Y-96780000D03*
X122690000Y-99320000D03*
X122690000Y-101860000D03*
X122690000Y-104400000D03*
D19*
X141350000Y-100300000D03*
X139350000Y-100300000D03*
X131500000Y-100300000D03*
X129500000Y-100300000D03*
D20*
X141400000Y-102500000D03*
X139400000Y-102500000D03*
X140400000Y-104700000D03*
X131400000Y-102500000D03*
X129400000Y-102500000D03*
X130400000Y-104700000D03*
D21*
X142004000Y-86950000D03*
X141704000Y-91800000D03*
X141404000Y-86950000D03*
X141104000Y-91800000D03*
X140804000Y-86950000D03*
X140504000Y-91800000D03*
X140204000Y-86950000D03*
X139904000Y-91800000D03*
X139604000Y-86950000D03*
X139304000Y-91800000D03*
X139004000Y-86950000D03*
X138704000Y-91800000D03*
X138404000Y-86950000D03*
X138104000Y-91800000D03*
X137804000Y-86950000D03*
X137504000Y-91800000D03*
X137204000Y-86950000D03*
X136904000Y-91800000D03*
X136604000Y-86950000D03*
X136304000Y-91800000D03*
X136004000Y-86950000D03*
X135704000Y-91800000D03*
X135404000Y-86950000D03*
X135104000Y-91800000D03*
X134804000Y-86950000D03*
X134504000Y-91800000D03*
X134204000Y-86950000D03*
X133904000Y-91800000D03*
X133604000Y-86950000D03*
X133304000Y-91800000D03*
X133004000Y-86950000D03*
X132704000Y-91800000D03*
X132404000Y-86950000D03*
X132104000Y-91800000D03*
X131804000Y-86950000D03*
X131504000Y-91800000D03*
X131204000Y-86950000D03*
X130904000Y-91800000D03*
X130604000Y-86950000D03*
X130304000Y-91800000D03*
X130004000Y-86950000D03*
X129704000Y-91800000D03*
X129404000Y-86950000D03*
X129104000Y-91800000D03*
X128804000Y-86950000D03*
M02*
